<?xml version="1.0" encoding="utf-8"?>
<!-- Generator: Adobe Illustrator 22.0.1, SVG Export Plug-In . SVG Version: 6.00 Build 0)  -->
<svg version="1.1" id="Layer_1" xmlns="http://www.w3.org/2000/svg" xmlns:xlink="http://www.w3.org/1999/xlink" x="0px" y="0px"
	 viewBox="0 0 70 68.5" style="enable-background:new 0 0 70 68.5;" xml:space="preserve">
<style type="text/css">
	.st0{fill:#FFFFFF;}
</style>
<path class="st0" d="M35.3,0.1c12.3,0,23.1,5,29.2,13.2L50.4,24.4c-3.7-5.3-9.2-7.5-14.7-7.5C27,16.9,19,23.1,19,34.5
	c0,5.1,1.5,9.2,4.7,12.4c3.1,3.1,7.2,4.7,12.1,4.7c7.5,0,13.3-4,14.5-10H33.8V28h35.9V35c0,18.2-14.3,33.2-34.4,33.2
	c-20,0-35.2-14.3-35.2-33.9C0.2,13.8,15.7,0.1,35.3,0.1z"/>
</svg>
