<?xml version="1.0" encoding="utf-8"?>
<!-- Generator: Adobe Illustrator 22.0.1, SVG Export Plug-In . SVG Version: 6.00 Build 0)  -->
<svg version="1.1" id="Layer_1" xmlns="http://www.w3.org/2000/svg" xmlns:xlink="http://www.w3.org/1999/xlink" x="0px" y="0px"
	 viewBox="0 0 215.6 128.5" style="enable-background:new 0 0 215.6 128.5;" xml:space="preserve">
<style type="text/css">
	.st0{fill:#FAAF43;}
	.st1{fill:none;stroke:#FAAF43;stroke-width:0.25;stroke-miterlimit:10;}
</style>
<g>
	<path d="M35.4,41.5L33,37.1H19.2l-2.3,4.4H3.5v-0.1l22.6-41h0.8l22.4,41v0.1H35.4z M22.6,28.1H30l-3.7-7.7L22.6,28.1z"/>
	<path d="M60.4,31.6v9.9H48.7V1h19.1c10.8,0,17.6,6.8,17.6,15c0,5.1-2.8,9.8-7.6,12.5l10.2,13H73.9l-7-9.9H60.4z M67.5,21.9
		c3.8,0,6.2-2.4,6.2-5.2c0-3-2.6-5.3-6.3-5.3h-6.9V22h7V21.9z"/>
	<polygon points="108.6,41.5 96.9,41.5 96.9,11.6 84.9,11.6 84.9,1 120.6,1 120.6,11.6 108.6,11.6 	"/>
	<polygon points="4.2,83.9 4.2,43 4.7,43 25.3,58 46.1,43 46.6,43 46.6,83.9 34.5,83.9 34.5,64.7 25.2,72.1 24.9,72.1 15.5,64.7 
		15.5,83.9 	"/>
	<polygon points="48.5,83.9 48.5,43.4 83,43.4 83,53.7 60,53.7 60,58.5 77.6,58.5 77.6,68.4 60,68.4 60,73.5 83,73.5 83,83.9 	"/>
	<path d="M84.8,83.9V43.4h18c12.4,0,21.1,8.6,21.1,20.1c0,11.7-8.8,20.5-21.2,20.5L84.8,83.9L84.8,83.9z M96.6,73.4h5.2
		c5.5,0,9.8-3.3,9.8-9.9c0-3.3-0.9-5.7-2.8-7.3c-1.9-1.7-4.1-2.5-6.8-2.5h-5.5v19.7H96.6z"/>
	<rect x="124.8" y="43.4" width="11.9" height="40.5"/>
	<path d="M166.8,83.9l-2.4-4.4h-13.8l-2.3,4.4h-13.5v-0.1l22.6-41h0.8l22.4,41v0.1H166.8z M154,70.5h7.4l-3.7-7.7L154,70.5z"/>
	<path d="M8.2,112.8c3.1,3.3,8.4,5.2,12.7,5.2c3.3,0,5.7-1,5.7-3c0-1-0.8-1.8-2.5-2l-6.3-1c-10.1-1.3-14.7-5.5-14.7-12.5
		C3.1,91.3,11,86,20.6,86c7.8,0,13.3,2.8,16.6,6.1l-6.4,7.9c-1.4-1.4-3.1-2.5-5.2-3.2c-2-0.7-3.9-1.1-5.7-1.1c-3.3,0-5,1.2-5,2.6
		c0,1,0.8,1.7,2.5,2s3.7,0.7,6.1,1c9.9,1.4,14.5,5.5,14.5,12.5c0,9.8-9.5,14.1-17.8,14.1c-3.4,0-6.8-0.6-10.1-1.7
		c-3.3-1.2-6.1-2.9-8.4-5.4L8.2,112.8z"/>
	<polygon points="60.7,127.2 49.1,127.2 49.1,97.3 37.1,97.3 37.1,86.6 72.8,86.6 72.8,97.3 60.7,97.3 	"/>
	<path d="M73.9,86.6h11.8v23.1c0,1.9,0.7,3.6,2.2,4.9s3.2,2,5.2,2s3.8-0.7,5-2c1.3-1.4,2-3,2-4.9V86.6h11.8V111
		c0,8.9-7.4,16.9-18.7,16.9c-10.9,0-19.3-7.3-19.3-16.9C73.9,111,73.9,86.6,73.9,86.6z"/>
	<path d="M115.5,127.2V86.6h18c12.4,0,21.1,8.6,21.1,20.1c0,11.7-8.8,20.5-21.2,20.5H115.5z M127.3,116.7h5.2c5.5,0,9.8-3.3,9.8-9.9
		c0-3.3-0.9-5.7-2.8-7.3c-1.9-1.7-4.1-2.5-6.8-2.5h-5.5v19.7H127.3z"/>
	<rect x="156.9" y="86.6" width="11.9" height="40.5"/>
	<path d="M171.1,107c0-12,9.4-21.1,21.9-21.1c12.6,0,21.9,9,21.9,21c0,12.1-9.3,21-21.9,21C180.5,127.8,171.1,118.9,171.1,107
		 M185.6,114.5c2,2,4.5,3,7.4,3s5.5-1,7.4-3c2-2,3-4.6,3-7.6s-1-5.5-3-7.5s-4.5-3.1-7.4-3.1s-5.5,1-7.4,3.1c-2,2-3,4.5-3,7.5
		S183.6,112.4,185.6,114.5"/>
	<path class="st0" d="M0.7,94.9h0.9v3.9H0.7V94.9z M0.7,98.8h0.9v3.9H0.7V98.8z M0.7,102.7h0.9v3.9H0.7V102.7z M0.7,106.6h0.9v3.9
		H0.7V106.6z M0.7,118.3h0.9v3.9H0.7V118.3z M0.7,122.2h0.9v3.9H0.7V122.2z M4.5,94.9h0.9v3.9H4.5V94.9z M4.5,98.8h0.9v3.9H4.5V98.8
		z M4.5,102.7h0.9v3.9H4.5V102.7z M4.5,106.6h0.9v3.9H4.5V106.6z M4.5,118.3h0.9v3.9H4.5V118.3z M4.5,122.2h0.9v3.9H4.5V122.2z
		 M8.2,87.2h0.9v3.9H8.2V87.2z M8.2,91.1h0.9V95H8.2V91.1z M8.2,102.7h0.9v3.9H8.2V102.7z M8.2,106.6h0.9v3.9H8.2V106.6z M8.2,118.3
		h0.9v3.9H8.2V118.3z M8.2,122.2h0.9v3.9H8.2V122.2z M11.9,87.2h0.9v3.9h-0.9V87.2z M11.9,91.1h0.9V95h-0.9V91.1z M11.9,102.7h0.9
		v3.9h-0.9V102.7z M11.9,106.6h0.9v3.9h-0.9V106.6z M11.9,118.3h0.9v3.9h-0.9V118.3z M11.9,122.2h0.9v3.9h-0.9V122.2z M15.7,87.2
		h0.9v3.9h-0.9C15.7,91.1,15.7,87.2,15.7,87.2z M15.7,91.1h0.9V95h-0.9C15.7,95,15.7,91.1,15.7,91.1z M15.7,102.7h0.9v3.9h-0.9
		C15.7,106.6,15.7,102.7,15.7,102.7z M15.7,106.6h0.9v3.9h-0.9C15.7,110.5,15.7,106.6,15.7,106.6z M15.7,118.3h0.9v3.9h-0.9
		C15.7,122.2,15.7,118.3,15.7,118.3z M15.7,122.2h0.9v3.9h-0.9C15.7,126.1,15.7,122.2,15.7,122.2z M19.4,87.2h0.9v3.9h-0.9V87.2z
		 M19.4,91.1h0.9V95h-0.9V91.1z M19.4,102.7h0.9v3.9h-0.9V102.7z M19.4,106.6h0.9v3.9h-0.9V106.6z M19.4,118.3h0.9v3.9h-0.9V118.3z
		 M19.4,122.2h0.9v3.9h-0.9V122.2z M23.1,87.2H24v3.9h-0.9V87.2z M23.1,91.1H24V95h-0.9V91.1z M23.1,102.7H24v3.9h-0.9V102.7z
		 M23.1,106.6H24v3.9h-0.9V106.6z M23.1,110.5H24v3.9h-0.9V110.5z M23.1,114.4H24v3.9h-0.9V114.4z M26.9,87.2h0.9v3.9h-0.9V87.2z
		 M26.9,91.1h0.9V95h-0.9V91.1z M26.9,102.7h0.9v3.9h-0.9V102.7z M26.9,106.6h0.9v3.9h-0.9V106.6z M26.9,110.5h0.9v3.9h-0.9V110.5z
		 M26.9,114.4h0.9v3.9h-0.9V114.4z"/>
	<path class="st1" d="M0.7,94.9h0.9v3.9H0.7V94.9z M0.7,98.8h0.9v3.9H0.7V98.8z M0.7,102.7h0.9v3.9H0.7V102.7z M0.7,106.6h0.9v3.9
		H0.7V106.6z M0.7,118.3h0.9v3.9H0.7V118.3z M0.7,122.2h0.9v3.9H0.7V122.2z M4.5,94.9h0.9v3.9H4.5V94.9z M4.5,98.8h0.9v3.9H4.5V98.8
		z M4.5,102.7h0.9v3.9H4.5V102.7z M4.5,106.6h0.9v3.9H4.5V106.6z M4.5,118.3h0.9v3.9H4.5V118.3z M4.5,122.2h0.9v3.9H4.5V122.2z
		 M8.2,87.2h0.9v3.9H8.2V87.2z M8.2,91.1h0.9V95H8.2V91.1z M8.2,102.7h0.9v3.9H8.2V102.7z M8.2,106.6h0.9v3.9H8.2V106.6z M8.2,118.3
		h0.9v3.9H8.2V118.3z M8.2,122.2h0.9v3.9H8.2V122.2z M11.9,87.2h0.9v3.9h-0.9V87.2z M11.9,91.1h0.9V95h-0.9V91.1z M11.9,102.7h0.9
		v3.9h-0.9V102.7z M11.9,106.6h0.9v3.9h-0.9V106.6z M11.9,118.3h0.9v3.9h-0.9V118.3z M11.9,122.2h0.9v3.9h-0.9V122.2z M15.7,87.2
		h0.9v3.9h-0.9C15.7,91.1,15.7,87.2,15.7,87.2z M15.7,91.1h0.9V95h-0.9C15.7,95,15.7,91.1,15.7,91.1z M15.7,102.7h0.9v3.9h-0.9
		C15.7,106.6,15.7,102.7,15.7,102.7z M15.7,106.6h0.9v3.9h-0.9C15.7,110.5,15.7,106.6,15.7,106.6z M15.7,118.3h0.9v3.9h-0.9
		C15.7,122.2,15.7,118.3,15.7,118.3z M15.7,122.2h0.9v3.9h-0.9C15.7,126.1,15.7,122.2,15.7,122.2z M19.4,87.2h0.9v3.9h-0.9V87.2z
		 M19.4,91.1h0.9V95h-0.9V91.1z M19.4,102.7h0.9v3.9h-0.9V102.7z M19.4,106.6h0.9v3.9h-0.9V106.6z M19.4,118.3h0.9v3.9h-0.9V118.3z
		 M19.4,122.2h0.9v3.9h-0.9V122.2z M23.1,87.2H24v3.9h-0.9V87.2z M23.1,91.1H24V95h-0.9V91.1z M23.1,102.7H24v3.9h-0.9V102.7z
		 M23.1,106.6H24v3.9h-0.9V106.6z M23.1,110.5H24v3.9h-0.9V110.5z M23.1,114.4H24v3.9h-0.9V114.4z M26.9,87.2h0.9v3.9h-0.9V87.2z
		 M26.9,91.1h0.9V95h-0.9V91.1z M26.9,102.7h0.9v3.9h-0.9V102.7z M26.9,106.6h0.9v3.9h-0.9V106.6z M26.9,110.5h0.9v3.9h-0.9V110.5z
		 M26.9,114.4h0.9v3.9h-0.9V114.4z"/>
	<path class="st0" d="M39.1,87.2H40v3.9h-0.9V87.2z M39.1,91.1H40V95h-0.9V91.1z M42.9,87.2h0.9v3.9h-0.9V87.2z M42.9,91.1h0.9V95
		h-0.9V91.1z M46.6,87.2h0.9v3.9h-0.9V87.2z M46.6,91.1h0.9V95h-0.9V91.1z M50.3,87.2h0.9v3.9h-0.9V87.2z M50.3,91.1h0.9V95h-0.9
		V91.1z M50.3,94.9h0.9v3.9h-0.9V94.9z M50.3,98.8h0.9v3.9h-0.9V98.8z M50.3,102.7h0.9v3.9h-0.9V102.7z M50.3,106.6h0.9v3.9h-0.9
		V106.6z M50.3,110.5h0.9v3.9h-0.9V110.5z M50.3,114.4h0.9v3.9h-0.9V114.4z M50.3,118.3h0.9v3.9h-0.9V118.3z M50.3,122.2h0.9v3.9
		h-0.9V122.2z M54.1,87.2H55v3.9h-0.9V87.2z M54.1,91.1H55V95h-0.9V91.1z M54.1,94.9H55v3.9h-0.9V94.9z M54.1,98.8H55v3.9h-0.9V98.8
		z M54.1,102.7H55v3.9h-0.9V102.7z M54.1,106.6H55v3.9h-0.9V106.6z M54.1,110.5H55v3.9h-0.9V110.5z M54.1,114.4H55v3.9h-0.9V114.4z
		 M54.1,118.3H55v3.9h-0.9V118.3z M54.1,122.2H55v3.9h-0.9V122.2z M57.8,87.2h0.9v3.9h-0.9V87.2z M57.8,91.1h0.9V95h-0.9V91.1z
		 M61.6,87.2h0.9v3.9h-0.9V87.2z M61.6,91.1h0.9V95h-0.9V91.1z M65.3,87.2h0.9v3.9h-0.9V87.2z M65.3,91.1h0.9V95h-0.9V91.1z"/>
	<path class="st1" d="M39.1,87.2H40v3.9h-0.9V87.2z M39.1,91.1H40V95h-0.9V91.1z M42.9,87.2h0.9v3.9h-0.9V87.2z M42.9,91.1h0.9V95
		h-0.9V91.1z M46.6,87.2h0.9v3.9h-0.9V87.2z M46.6,91.1h0.9V95h-0.9V91.1z M50.3,87.2h0.9v3.9h-0.9V87.2z M50.3,91.1h0.9V95h-0.9
		V91.1z M50.3,94.9h0.9v3.9h-0.9V94.9z M50.3,98.8h0.9v3.9h-0.9V98.8z M50.3,102.7h0.9v3.9h-0.9V102.7z M50.3,106.6h0.9v3.9h-0.9
		V106.6z M50.3,110.5h0.9v3.9h-0.9V110.5z M50.3,114.4h0.9v3.9h-0.9V114.4z M50.3,118.3h0.9v3.9h-0.9V118.3z M50.3,122.2h0.9v3.9
		h-0.9V122.2z M54.1,87.2H55v3.9h-0.9V87.2z M54.1,91.1H55V95h-0.9V91.1z M54.1,94.9H55v3.9h-0.9V94.9z M54.1,98.8H55v3.9h-0.9V98.8
		z M54.1,102.7H55v3.9h-0.9V102.7z M54.1,106.6H55v3.9h-0.9V106.6z M54.1,110.5H55v3.9h-0.9V110.5z M54.1,114.4H55v3.9h-0.9V114.4z
		 M54.1,118.3H55v3.9h-0.9V118.3z M54.1,122.2H55v3.9h-0.9V122.2z M57.8,87.2h0.9v3.9h-0.9V87.2z M57.8,91.1h0.9V95h-0.9V91.1z
		 M61.6,87.2h0.9v3.9h-0.9V87.2z M61.6,91.1h0.9V95h-0.9V91.1z M65.3,87.2h0.9v3.9h-0.9V87.2z M65.3,91.1h0.9V95h-0.9V91.1z"/>
	<path class="st0" d="M75.7,87.2h0.9v3.9h-0.9V87.2z M75.7,91.1h0.9V95h-0.9V91.1z M75.7,94.9h0.9v3.9h-0.9V94.9z M75.7,98.8h0.9
		v3.9h-0.9V98.8z M75.7,102.7h0.9v3.9h-0.9V102.7z M75.7,106.6h0.9v3.9h-0.9V106.6z M75.7,110.5h0.9v3.9h-0.9V110.5z M75.7,114.4
		h0.9v3.9h-0.9V114.4z M79.5,87.2h0.9v3.9h-0.9V87.2z M79.5,91.1h0.9V95h-0.9V91.1z M79.5,94.9h0.9v3.9h-0.9V94.9z M79.5,98.8h0.9
		v3.9h-0.9V98.8z M79.5,102.7h0.9v3.9h-0.9V102.7z M79.5,106.6h0.9v3.9h-0.9V106.6z M79.5,110.5h0.9v3.9h-0.9V110.5z M79.5,114.4
		h0.9v3.9h-0.9V114.4z M83.2,118.3h0.9v3.9h-0.9V118.3z M83.2,122.2h0.9v3.9h-0.9V122.2z M86.9,118.3h0.9v3.9h-0.9V118.3z
		 M86.9,122.2h0.9v3.9h-0.9V122.2z M90.7,118.3h0.9v3.9h-0.9V118.3z M90.7,122.2h0.9v3.9h-0.9V122.2z M94.4,118.3h0.9v3.9h-0.9
		V118.3z M94.4,122.2h0.9v3.9h-0.9V122.2z M98.1,87.2H99v3.9h-0.9V87.2z M98.1,91.1H99V95h-0.9V91.1z M98.1,94.9H99v3.9h-0.9V94.9z
		 M98.1,98.8H99v3.9h-0.9V98.8z M98.1,102.7H99v3.9h-0.9V102.7z M98.1,106.6H99v3.9h-0.9V106.6z M98.1,110.5H99v3.9h-0.9V110.5z
		 M98.1,114.4H99v3.9h-0.9V114.4z M98.1,118.3H99v3.9h-0.9V118.3z M98.1,122.2H99v3.9h-0.9V122.2z M101.9,87.2h0.9v3.9h-0.9V87.2z
		 M101.9,91.1h0.9V95h-0.9V91.1z M101.9,94.9h0.9v3.9h-0.9V94.9z M101.9,98.8h0.9v3.9h-0.9V98.8z M101.9,102.7h0.9v3.9h-0.9V102.7z
		 M101.9,106.6h0.9v3.9h-0.9V106.6z M101.9,110.5h0.9v3.9h-0.9V110.5z M101.9,114.4h0.9v3.9h-0.9V114.4z M101.9,118.3h0.9v3.9h-0.9
		V118.3z M101.9,122.2h0.9v3.9h-0.9V122.2z"/>
	<path class="st1" d="M75.7,87.2h0.9v3.9h-0.9V87.2z M75.7,91.1h0.9V95h-0.9V91.1z M75.7,94.9h0.9v3.9h-0.9V94.9z M75.7,98.8h0.9
		v3.9h-0.9V98.8z M75.7,102.7h0.9v3.9h-0.9V102.7z M75.7,106.6h0.9v3.9h-0.9V106.6z M75.7,110.5h0.9v3.9h-0.9V110.5z M75.7,114.4
		h0.9v3.9h-0.9V114.4z M79.5,87.2h0.9v3.9h-0.9V87.2z M79.5,91.1h0.9V95h-0.9V91.1z M79.5,94.9h0.9v3.9h-0.9V94.9z M79.5,98.8h0.9
		v3.9h-0.9V98.8z M79.5,102.7h0.9v3.9h-0.9V102.7z M79.5,106.6h0.9v3.9h-0.9V106.6z M79.5,110.5h0.9v3.9h-0.9V110.5z M79.5,114.4
		h0.9v3.9h-0.9V114.4z M83.2,118.3h0.9v3.9h-0.9V118.3z M83.2,122.2h0.9v3.9h-0.9V122.2z M86.9,118.3h0.9v3.9h-0.9V118.3z
		 M86.9,122.2h0.9v3.9h-0.9V122.2z M90.7,118.3h0.9v3.9h-0.9V118.3z M90.7,122.2h0.9v3.9h-0.9V122.2z M94.4,118.3h0.9v3.9h-0.9
		V118.3z M94.4,122.2h0.9v3.9h-0.9V122.2z M98.1,87.2H99v3.9h-0.9V87.2z M98.1,91.1H99V95h-0.9V91.1z M98.1,94.9H99v3.9h-0.9V94.9z
		 M98.1,98.8H99v3.9h-0.9V98.8z M98.1,102.7H99v3.9h-0.9V102.7z M98.1,106.6H99v3.9h-0.9V106.6z M98.1,110.5H99v3.9h-0.9V110.5z
		 M98.1,114.4H99v3.9h-0.9V114.4z M98.1,118.3H99v3.9h-0.9V118.3z M98.1,122.2H99v3.9h-0.9V122.2z M101.9,87.2h0.9v3.9h-0.9V87.2z
		 M101.9,91.1h0.9V95h-0.9V91.1z M101.9,94.9h0.9v3.9h-0.9V94.9z M101.9,98.8h0.9v3.9h-0.9V98.8z M101.9,102.7h0.9v3.9h-0.9V102.7z
		 M101.9,106.6h0.9v3.9h-0.9V106.6z M101.9,110.5h0.9v3.9h-0.9V110.5z M101.9,114.4h0.9v3.9h-0.9V114.4z M101.9,118.3h0.9v3.9h-0.9
		V118.3z M101.9,122.2h0.9v3.9h-0.9V122.2z"/>
	<path class="st0" d="M114.6,87.2h0.9v3.9h-0.9V87.2z M114.6,91.1h0.9V95h-0.9V91.1z M114.6,94.9h0.9v3.9h-0.9V94.9z M114.6,98.8
		h0.9v3.9h-0.9V98.8z M114.6,102.7h0.9v3.9h-0.9V102.7z M114.6,106.6h0.9v3.9h-0.9V106.6z M114.6,110.5h0.9v3.9h-0.9V110.5z
		 M114.6,114.4h0.9v3.9h-0.9V114.4z M114.6,118.3h0.9v3.9h-0.9V118.3z M114.6,122.2h0.9v3.9h-0.9V122.2z M118.3,87.2h0.9v3.9h-0.9
		V87.2z M118.3,91.1h0.9V95h-0.9V91.1z M118.3,94.9h0.9v3.9h-0.9V94.9z M118.3,98.8h0.9v3.9h-0.9V98.8z M118.3,102.7h0.9v3.9h-0.9
		V102.7z M118.3,106.6h0.9v3.9h-0.9V106.6z M118.3,110.5h0.9v3.9h-0.9V110.5z M118.3,114.4h0.9v3.9h-0.9V114.4z M118.3,118.3h0.9
		v3.9h-0.9V118.3z M118.3,122.2h0.9v3.9h-0.9V122.2z M122,87.2h0.9v3.9H122V87.2z M122,91.1h0.9V95H122V91.1z M122,118.3h0.9v3.9
		H122V118.3z M122,122.2h0.9v3.9H122V122.2z M125.8,87.2h0.9v3.9h-0.9V87.2z M125.8,91.1h0.9V95h-0.9V91.1z M125.8,118.3h0.9v3.9
		h-0.9V118.3z M125.8,122.2h0.9v3.9h-0.9V122.2z M129.5,87.2h0.9v3.9h-0.9V87.2z M129.5,91.1h0.9V95h-0.9V91.1z M129.5,118.3h0.9
		v3.9h-0.9V118.3z M129.5,122.2h0.9v3.9h-0.9V122.2z M133.2,87.2h0.9v3.9h-0.9V87.2z M133.2,91.1h0.9V95h-0.9V91.1z M133.2,118.3
		h0.9v3.9h-0.9V118.3z M133.2,122.2h0.9v3.9h-0.9V122.2z M137,94.9h0.9v3.9H137V94.9z M137,98.8h0.9v3.9H137V98.8z M137,102.7h0.9
		v3.9H137V102.7z M137,106.6h0.9v3.9H137V106.6z M137,110.5h0.9v3.9H137V110.5z M137,114.4h0.9v3.9H137V114.4z M140.7,94.9h0.9v3.9
		h-0.9V94.9z M140.7,98.8h0.9v3.9h-0.9V98.8z M140.7,102.7h0.9v3.9h-0.9V102.7z M140.7,106.6h0.9v3.9h-0.9V106.6z M140.7,110.5h0.9
		v3.9h-0.9V110.5z M140.7,114.4h0.9v3.9h-0.9V114.4z"/>
	<path class="st1" d="M114.6,87.2h0.9v3.9h-0.9V87.2z M114.6,91.1h0.9V95h-0.9V91.1z M114.6,94.9h0.9v3.9h-0.9V94.9z M114.6,98.8
		h0.9v3.9h-0.9V98.8z M114.6,102.7h0.9v3.9h-0.9V102.7z M114.6,106.6h0.9v3.9h-0.9V106.6z M114.6,110.5h0.9v3.9h-0.9V110.5z
		 M114.6,114.4h0.9v3.9h-0.9V114.4z M114.6,118.3h0.9v3.9h-0.9V118.3z M114.6,122.2h0.9v3.9h-0.9V122.2z M118.3,87.2h0.9v3.9h-0.9
		V87.2z M118.3,91.1h0.9V95h-0.9V91.1z M118.3,94.9h0.9v3.9h-0.9V94.9z M118.3,98.8h0.9v3.9h-0.9V98.8z M118.3,102.7h0.9v3.9h-0.9
		V102.7z M118.3,106.6h0.9v3.9h-0.9V106.6z M118.3,110.5h0.9v3.9h-0.9V110.5z M118.3,114.4h0.9v3.9h-0.9V114.4z M118.3,118.3h0.9
		v3.9h-0.9V118.3z M118.3,122.2h0.9v3.9h-0.9V122.2z M122,87.2h0.9v3.9H122V87.2z M122,91.1h0.9V95H122V91.1z M122,118.3h0.9v3.9
		H122V118.3z M122,122.2h0.9v3.9H122V122.2z M125.8,87.2h0.9v3.9h-0.9V87.2z M125.8,91.1h0.9V95h-0.9V91.1z M125.8,118.3h0.9v3.9
		h-0.9V118.3z M125.8,122.2h0.9v3.9h-0.9V122.2z M129.5,87.2h0.9v3.9h-0.9V87.2z M129.5,91.1h0.9V95h-0.9V91.1z M129.5,118.3h0.9
		v3.9h-0.9V118.3z M129.5,122.2h0.9v3.9h-0.9V122.2z M133.2,87.2h0.9v3.9h-0.9V87.2z M133.2,91.1h0.9V95h-0.9V91.1z M133.2,118.3
		h0.9v3.9h-0.9V118.3z M133.2,122.2h0.9v3.9h-0.9V122.2z M137,94.9h0.9v3.9H137V94.9z M137,98.8h0.9v3.9H137V98.8z M137,102.7h0.9
		v3.9H137V102.7z M137,106.6h0.9v3.9H137V106.6z M137,110.5h0.9v3.9H137V110.5z M137,114.4h0.9v3.9H137V114.4z M140.7,94.9h0.9v3.9
		h-0.9V94.9z M140.7,98.8h0.9v3.9h-0.9V98.8z M140.7,102.7h0.9v3.9h-0.9V102.7z M140.7,106.6h0.9v3.9h-0.9V106.6z M140.7,110.5h0.9
		v3.9h-0.9V110.5z M140.7,114.4h0.9v3.9h-0.9V114.4z"/>
	<path class="st0" d="M153.8,87.2h0.9v3.9h-0.9V87.2z M153.8,91.1h0.9V95h-0.9V91.1z M153.8,118.3h0.9v3.9h-0.9V118.3z M153.8,122.2
		h0.9v3.9h-0.9V122.2z M157.5,87.2h0.9v3.9h-0.9V87.2z M157.5,91.1h0.9V95h-0.9V91.1z M157.5,118.3h0.9v3.9h-0.9V118.3z
		 M157.5,122.2h0.9v3.9h-0.9V122.2z M161.3,87.2h0.9v3.9h-0.9V87.2z M161.3,91.1h0.9V95h-0.9V91.1z M161.3,94.9h0.9v3.9h-0.9V94.9z
		 M161.3,98.8h0.9v3.9h-0.9V98.8z M161.3,102.7h0.9v3.9h-0.9V102.7z M161.3,106.6h0.9v3.9h-0.9V106.6z M161.3,110.5h0.9v3.9h-0.9
		V110.5z M161.3,114.4h0.9v3.9h-0.9V114.4z M161.3,118.3h0.9v3.9h-0.9V118.3z M161.3,122.2h0.9v3.9h-0.9V122.2z M165,87.2h0.9v3.9
		H165V87.2z M165,91.1h0.9V95H165V91.1z M165,94.9h0.9v3.9H165V94.9z M165,98.8h0.9v3.9H165V98.8z M165,102.7h0.9v3.9H165V102.7z
		 M165,106.6h0.9v3.9H165V106.6z M165,110.5h0.9v3.9H165V110.5z M165,114.4h0.9v3.9H165V114.4z M165,118.3h0.9v3.9H165V118.3z
		 M165,122.2h0.9v3.9H165V122.2z M168.7,87.2h0.9v3.9h-0.9V87.2z M168.7,91.1h0.9V95h-0.9V91.1z M168.7,118.3h0.9v3.9h-0.9V118.3z
		 M168.7,122.2h0.9v3.9h-0.9V122.2z M172.5,87.2h0.9v3.9h-0.9V87.2z M172.5,91.1h0.9V95h-0.9V91.1z M172.5,118.3h0.9v3.9h-0.9V118.3
		z M172.5,122.2h0.9v3.9h-0.9V122.2z"/>
	<path class="st1" d="M153.8,87.2h0.9v3.9h-0.9V87.2z M153.8,91.1h0.9V95h-0.9V91.1z M153.8,118.3h0.9v3.9h-0.9V118.3z M153.8,122.2
		h0.9v3.9h-0.9V122.2z M157.5,87.2h0.9v3.9h-0.9V87.2z M157.5,91.1h0.9V95h-0.9V91.1z M157.5,118.3h0.9v3.9h-0.9V118.3z
		 M157.5,122.2h0.9v3.9h-0.9V122.2z M161.3,87.2h0.9v3.9h-0.9V87.2z M161.3,91.1h0.9V95h-0.9V91.1z M161.3,94.9h0.9v3.9h-0.9V94.9z
		 M161.3,98.8h0.9v3.9h-0.9V98.8z M161.3,102.7h0.9v3.9h-0.9V102.7z M161.3,106.6h0.9v3.9h-0.9V106.6z M161.3,110.5h0.9v3.9h-0.9
		V110.5z M161.3,114.4h0.9v3.9h-0.9V114.4z M161.3,118.3h0.9v3.9h-0.9V118.3z M161.3,122.2h0.9v3.9h-0.9V122.2z M165,87.2h0.9v3.9
		H165V87.2z M165,91.1h0.9V95H165V91.1z M165,94.9h0.9v3.9H165V94.9z M165,98.8h0.9v3.9H165V98.8z M165,102.7h0.9v3.9H165V102.7z
		 M165,106.6h0.9v3.9H165V106.6z M165,110.5h0.9v3.9H165V110.5z M165,114.4h0.9v3.9H165V114.4z M165,118.3h0.9v3.9H165V118.3z
		 M165,122.2h0.9v3.9H165V122.2z M168.7,87.2h0.9v3.9h-0.9V87.2z M168.7,91.1h0.9V95h-0.9V91.1z M168.7,118.3h0.9v3.9h-0.9V118.3z
		 M168.7,122.2h0.9v3.9h-0.9V122.2z M172.5,87.2h0.9v3.9h-0.9V87.2z M172.5,91.1h0.9V95h-0.9V91.1z M172.5,118.3h0.9v3.9h-0.9V118.3
		z M172.5,122.2h0.9v3.9h-0.9V122.2z"/>
	<path class="st0" d="M184.1,94.9h0.9v3.9h-0.9V94.9z M184.1,98.8h0.9v3.9h-0.9V98.8z M184.1,102.7h0.9v3.9h-0.9V102.7z
		 M184.1,106.6h0.9v3.9h-0.9V106.6z M184.1,110.5h0.9v3.9h-0.9V110.5z M184.1,114.4h0.9v3.9h-0.9V114.4z M187.8,94.9h0.9v3.9h-0.9
		V94.9z M187.8,98.8h0.9v3.9h-0.9V98.8z M187.8,102.7h0.9v3.9h-0.9V102.7z M187.8,106.6h0.9v3.9h-0.9V106.6z M187.8,110.5h0.9v3.9
		h-0.9V110.5z M187.8,114.4h0.9v3.9h-0.9V114.4z M191.5,87.2h0.9v3.9h-0.9V87.2z M191.5,91.1h0.9V95h-0.9V91.1z M191.5,118.3h0.9
		v3.9h-0.9V118.3z M191.5,122.2h0.9v3.9h-0.9V122.2z M195.3,87.2h0.9v3.9h-0.9V87.2z M195.3,91.1h0.9V95h-0.9V91.1z M195.3,118.3
		h0.9v3.9h-0.9V118.3z M195.3,122.2h0.9v3.9h-0.9V122.2z M199,87.2h0.9v3.9H199V87.2z M199,91.1h0.9V95H199V91.1z M199,118.3h0.9
		v3.9H199V118.3z M199,122.2h0.9v3.9H199V122.2z M202.8,87.2h0.9v3.9h-0.9V87.2z M202.8,91.1h0.9V95h-0.9V91.1z M202.8,118.3h0.9
		v3.9h-0.9V118.3z M202.8,122.2h0.9v3.9h-0.9V122.2z M206.5,94.9h0.9v3.9h-0.9V94.9z M206.5,98.8h0.9v3.9h-0.9V98.8z M206.5,102.7
		h0.9v3.9h-0.9V102.7z M206.5,106.6h0.9v3.9h-0.9V106.6z M206.5,110.5h0.9v3.9h-0.9V110.5z M206.5,114.4h0.9v3.9h-0.9V114.4z
		 M210.2,94.9h0.9v3.9h-0.9V94.9z M210.2,98.8h0.9v3.9h-0.9V98.8z M210.2,102.7h0.9v3.9h-0.9V102.7z M210.2,106.6h0.9v3.9h-0.9
		V106.6z M210.2,110.5h0.9v3.9h-0.9V110.5z M210.2,114.4h0.9v3.9h-0.9V114.4z"/>
	<path class="st1" d="M184.1,94.9h0.9v3.9h-0.9V94.9z M184.1,98.8h0.9v3.9h-0.9V98.8z M184.1,102.7h0.9v3.9h-0.9V102.7z
		 M184.1,106.6h0.9v3.9h-0.9V106.6z M184.1,110.5h0.9v3.9h-0.9V110.5z M184.1,114.4h0.9v3.9h-0.9V114.4z M187.8,94.9h0.9v3.9h-0.9
		V94.9z M187.8,98.8h0.9v3.9h-0.9V98.8z M187.8,102.7h0.9v3.9h-0.9V102.7z M187.8,106.6h0.9v3.9h-0.9V106.6z M187.8,110.5h0.9v3.9
		h-0.9V110.5z M187.8,114.4h0.9v3.9h-0.9V114.4z M191.5,87.2h0.9v3.9h-0.9V87.2z M191.5,91.1h0.9V95h-0.9V91.1z M191.5,118.3h0.9
		v3.9h-0.9V118.3z M191.5,122.2h0.9v3.9h-0.9V122.2z M195.3,87.2h0.9v3.9h-0.9V87.2z M195.3,91.1h0.9V95h-0.9V91.1z M195.3,118.3
		h0.9v3.9h-0.9V118.3z M195.3,122.2h0.9v3.9h-0.9V122.2z M199,87.2h0.9v3.9H199V87.2z M199,91.1h0.9V95H199V91.1z M199,118.3h0.9
		v3.9H199V118.3z M199,122.2h0.9v3.9H199V122.2z M202.8,87.2h0.9v3.9h-0.9V87.2z M202.8,91.1h0.9V95h-0.9V91.1z M202.8,118.3h0.9
		v3.9h-0.9V118.3z M202.8,122.2h0.9v3.9h-0.9V122.2z M206.5,94.9h0.9v3.9h-0.9V94.9z M206.5,98.8h0.9v3.9h-0.9V98.8z M206.5,102.7
		h0.9v3.9h-0.9V102.7z M206.5,106.6h0.9v3.9h-0.9V106.6z M206.5,110.5h0.9v3.9h-0.9V110.5z M206.5,114.4h0.9v3.9h-0.9V114.4z
		 M210.2,94.9h0.9v3.9h-0.9V94.9z M210.2,98.8h0.9v3.9h-0.9V98.8z M210.2,102.7h0.9v3.9h-0.9V102.7z M210.2,106.6h0.9v3.9h-0.9
		V106.6z M210.2,110.5h0.9v3.9h-0.9V110.5z M210.2,114.4h0.9v3.9h-0.9V114.4z"/>
</g>
</svg>
