<?xml version="1.0" encoding="utf-8"?>
<!-- Generator: Adobe Illustrator 22.0.1, SVG Export Plug-In . SVG Version: 6.00 Build 0)  -->
<svg version="1.1" id="Layer_1" xmlns="http://www.w3.org/2000/svg" xmlns:xlink="http://www.w3.org/1999/xlink" x="0px" y="0px"
	 viewBox="0 0 215.6 128.5" style="enable-background:new 0 0 215.6 128.5;" xml:space="preserve">
<style type="text/css">
	.st0{fill:#FFFFFF;}
	.st1{clip-path:url(#SVGID_2_);fill:#EF2AC1;}
	.st2{clip-path:url(#SVGID_4_);fill:#EF2AC1;}
	.st3{clip-path:url(#SVGID_6_);fill:#EF2AC1;}
	.st4{clip-path:url(#SVGID_8_);fill:#EF2AC1;}
	.st5{clip-path:url(#SVGID_10_);fill:#EF2AC1;}
	.st6{clip-path:url(#SVGID_12_);fill:#EF2AC1;}
</style>
<g>
	<path class="st0" d="M35.9,41.7l-2.4-4.4H19.7l-2.3,4.4H4.1v-0.1L26.6,0.7h0.8l22.3,40.9v0.1H35.9z M23.1,28.3h7.4l-3.7-7.6
		L23.1,28.3z"/>
	<path class="st0" d="M60.8,31.8v9.9H49.2V1.3h19c10.8,0,17.5,6.8,17.5,14.9c0,5.1-2.7,9.8-7.5,12.4l10.1,13h-14l-7-9.9h-6.5
		C60.8,31.7,60.8,31.8,60.8,31.8z M67.9,22.1c3.8,0,6.2-2.4,6.2-5.2c0-3-2.6-5.3-6.3-5.3h-6.9v10.6h7C67.9,22.2,67.9,22.1,67.9,22.1
		z"/>
	<polygon class="st0" points="108.8,41.7 97.2,41.7 97.2,11.9 85.3,11.9 85.3,1.3 120.8,1.3 120.8,11.9 108.8,11.9 	"/>
	<polygon class="st0" points="4.8,83.9 4.8,43.2 5.3,43.2 25.9,58.2 46.5,43.2 47,43.2 47,83.9 35.1,83.9 35.1,64.8 25.8,72.2 
		25.4,72.2 16,64.8 16,83.9 	"/>
	<polygon class="st0" points="49,83.9 49,43.5 83.3,43.5 83.3,53.9 60.4,53.9 60.4,58.7 78,58.7 78,68.5 60.4,68.5 60.4,73.5 
		83.3,73.5 83.3,83.9 	"/>
	<path class="st0" d="M85.1,83.9V43.5H103c12.3,0,21,8.6,21,20c0,11.6-8.7,20.4-21.1,20.4H85.1z M96.9,73.5h5.2
		c5.4,0,9.8-3.2,9.8-9.9c0-3.2-0.9-5.7-2.8-7.3s-4.1-2.5-6.8-2.5h-5.4C96.9,53.8,96.9,73.5,96.9,73.5z"/>
	<rect x="125" y="43.5" class="st0" width="11.8" height="40.4"/>
	<path class="st0" d="M166.9,83.9l-2.4-4.4h-13.8l-2.3,4.4H135v-0.1L157.6,43h0.8l22.3,40.9V84L166.9,83.9L166.9,83.9z M154.1,70.6
		h7.4l-3.7-7.6L154.1,70.6z"/>
	<path class="st0" d="M8.8,112.7c3.1,3.2,8.4,5.2,12.7,5.2c3.3,0,5.7-1,5.7-3c0-1-0.8-1.8-2.5-2l-6.3-1
		c-10.1-1.3-14.7-5.4-14.7-12.5c0-8.1,7.9-13.5,17.4-13.5c7.8,0,13.3,2.8,16.5,6.1l-6.4,7.9c-1.4-1.4-3.1-2.5-5.2-3.2
		c-2-0.7-3.9-1.1-5.7-1.1c-3.2,0-4.9,1.2-4.9,2.6c0,1,0.8,1.7,2.5,2s3.7,0.7,6,1c9.9,1.4,14.5,5.4,14.5,12.4c0,9.7-9.5,14-17.7,14
		c-3.4,0-6.8-0.5-10.1-1.6c-3.3-1.2-6.1-2.9-8.4-5.3L8.8,112.7z"/>
	<polygon class="st0" points="61.2,127.1 49.5,127.1 49.5,97.3 37.6,97.3 37.6,86.7 73.1,86.7 73.1,97.3 61.2,97.3 	"/>
	<path class="st0" d="M74.3,86.7h11.8v23c0,1.9,0.7,3.6,2.1,4.9c1.5,1.3,3.2,2,5.2,2s3.7-0.7,5-2c1.3-1.4,2-3,2-4.8V86.7h11.8v24.2
		c0,8.8-7.4,16.9-18.6,16.9c-10.8,0-19.2-7.3-19.2-16.9V86.7H74.3z"/>
	<path class="st0" d="M115.7,127.1V86.7h17.9c12.3,0,21,8.6,21,20c0,11.7-8.7,20.4-21.1,20.4H115.7z M127.5,116.6h5.2
		c5.4,0,9.8-3.2,9.8-9.9c0-3.2-0.9-5.7-2.8-7.3c-1.9-1.6-4.1-2.5-6.8-2.5h-5.4C127.5,96.9,127.5,116.6,127.5,116.6z"/>
	<rect x="157" y="86.7" class="st0" width="11.8" height="40.4"/>
	<path class="st0" d="M171.2,107c0-12,9.3-21,21.9-21c12.5,0,21.9,9,21.9,20.9c0,12.1-9.3,20.9-21.8,20.9
		C180.6,127.7,171.2,118.9,171.2,107 M185.6,114.4c2,2,4.5,3,7.4,3c3,0,5.4-1,7.4-3s3-4.6,3-7.6s-1-5.4-3-7.5c-2-2-4.5-3.1-7.4-3.1
		c-3,0-5.4,1-7.4,3.1c-2,2-3,4.5-3,7.5C182.6,109.9,183.6,112.4,185.6,114.4"/>
	<g>
		<g>
			<g>
				<g>
					<defs>
						<rect id="SVGID_1_" x="0.2" y="87.5" width="212" height="38.9"/>
					</defs>
					<clipPath id="SVGID_2_">
						<use xlink:href="#SVGID_1_"  style="overflow:visible;"/>
					</clipPath>
					<path class="st1" d="M0.2,97c0-0.8,0.6-1.4,1.4-1.4S3,96.2,3,97s-0.6,1.4-1.4,1.4S0.2,97.7,0.2,97 M0.2,101
						c0-0.8,0.6-1.4,1.4-1.4S3,100.2,3,101s-0.6,1.4-1.4,1.4S0.2,101.7,0.2,101 M0.2,105c0-0.8,0.6-1.4,1.4-1.4S3,104.2,3,105
						s-0.6,1.4-1.4,1.4S0.2,105.7,0.2,105 M0.2,109c0-0.8,0.6-1.4,1.4-1.4S3,108.3,3,109c0,0.8-0.6,1.4-1.4,1.4S0.2,109.8,0.2,109
						 M0.2,121c0-0.8,0.6-1.4,1.4-1.4S3,120.3,3,121c0,0.8-0.6,1.4-1.4,1.4S0.2,121.8,0.2,121 M0.2,125.1c0-0.8,0.6-1.4,1.4-1.4
						s1.4,0.6,1.4,1.4s-0.6,1.4-1.4,1.4S0.2,125.8,0.2,125.1 M4.3,97c0-0.8,0.6-1.4,1.4-1.4S7,96.2,7,97s-0.6,1.4-1.4,1.4
						S4.3,97.7,4.3,97 M4.3,101c0-0.8,0.6-1.4,1.4-1.4S7,100.2,7,101s-0.6,1.4-1.4,1.4S4.3,101.7,4.3,101 M4.3,105
						c0-0.8,0.6-1.4,1.4-1.4S7,104.2,7,105s-0.6,1.4-1.4,1.4S4.3,105.7,4.3,105 M4.3,109c0-0.8,0.6-1.4,1.4-1.4S7,108.3,7,109
						c0,0.8-0.6,1.4-1.4,1.4S4.3,109.8,4.3,109 M4.3,121c0-0.8,0.6-1.4,1.4-1.4S7,120.3,7,121c0,0.8-0.6,1.4-1.4,1.4
						S4.3,121.8,4.3,121 M4.3,125.1c0-0.8,0.6-1.4,1.4-1.4s1.4,0.6,1.4,1.4s-0.6,1.4-1.4,1.4S4.3,125.8,4.3,125.1 M8.3,88.9
						c0-0.8,0.6-1.4,1.4-1.4s1.4,0.6,1.4,1.4s-0.6,1.4-1.4,1.4S8.3,89.7,8.3,88.9 M8.3,92.9c0-0.8,0.6-1.4,1.4-1.4s1.4,0.6,1.4,1.4
						s-0.6,1.4-1.4,1.4S8.3,93.7,8.3,92.9 M8.3,105c0-0.8,0.6-1.4,1.4-1.4s1.4,0.6,1.4,1.4s-0.6,1.4-1.4,1.4S8.3,105.7,8.3,105
						 M8.3,109c0-0.8,0.6-1.4,1.4-1.4s1.4,0.6,1.4,1.4s-0.6,1.4-1.4,1.4S8.3,109.8,8.3,109 M8.3,121c0-0.8,0.6-1.4,1.4-1.4
						s1.4,0.6,1.4,1.4s-0.6,1.4-1.4,1.4S8.3,121.8,8.3,121 M8.3,125.1c0-0.8,0.6-1.4,1.4-1.4s1.4,0.6,1.4,1.4s-0.6,1.4-1.4,1.4
						S8.3,125.8,8.3,125.1 M12.3,88.9c0-0.8,0.6-1.4,1.4-1.4c0.8,0,1.4,0.6,1.4,1.4s-0.6,1.4-1.4,1.4C12.9,90.3,12.3,89.7,12.3,88.9
						 M12.3,92.9c0-0.8,0.6-1.4,1.4-1.4c0.8,0,1.4,0.6,1.4,1.4s-0.6,1.4-1.4,1.4C12.9,94.3,12.3,93.7,12.3,92.9 M12.3,105
						c0-0.8,0.6-1.4,1.4-1.4c0.8,0,1.4,0.6,1.4,1.4s-0.6,1.4-1.4,1.4C12.9,106.4,12.3,105.7,12.3,105 M12.3,109
						c0-0.8,0.6-1.4,1.4-1.4c0.8,0,1.4,0.6,1.4,1.4s-0.6,1.4-1.4,1.4C12.9,110.4,12.3,109.8,12.3,109 M12.3,121
						c0-0.8,0.6-1.4,1.4-1.4c0.8,0,1.4,0.6,1.4,1.4s-0.6,1.4-1.4,1.4C12.9,122.4,12.3,121.8,12.3,121 M12.3,125.1
						c0-0.8,0.6-1.4,1.4-1.4c0.8,0,1.4,0.6,1.4,1.4s-0.6,1.4-1.4,1.4C12.9,126.4,12.3,125.8,12.3,125.1 M16.3,88.9
						c0-0.8,0.6-1.4,1.4-1.4s1.4,0.6,1.4,1.4s-0.6,1.4-1.4,1.4S16.3,89.7,16.3,88.9 M16.3,92.9c0-0.8,0.6-1.4,1.4-1.4
						s1.4,0.6,1.4,1.4s-0.6,1.4-1.4,1.4S16.3,93.7,16.3,92.9 M16.3,105c0-0.8,0.6-1.4,1.4-1.4s1.4,0.6,1.4,1.4s-0.6,1.4-1.4,1.4
						S16.3,105.7,16.3,105 M16.3,109c0-0.8,0.6-1.4,1.4-1.4s1.4,0.6,1.4,1.4s-0.6,1.4-1.4,1.4S16.3,109.8,16.3,109 M16.3,121
						c0-0.8,0.6-1.4,1.4-1.4s1.4,0.6,1.4,1.4s-0.6,1.4-1.4,1.4S16.3,121.8,16.3,121 M16.3,125.1c0-0.8,0.6-1.4,1.4-1.4
						s1.4,0.6,1.4,1.4s-0.6,1.4-1.4,1.4C16.9,126.4,16.3,125.8,16.3,125.1 M20.3,88.9c0-0.8,0.6-1.4,1.4-1.4s1.4,0.6,1.4,1.4
						s-0.6,1.4-1.4,1.4C21,90.3,20.3,89.7,20.3,88.9 M20.3,92.9c0-0.8,0.6-1.4,1.4-1.4s1.4,0.6,1.4,1.4s-0.6,1.4-1.4,1.4
						C21,94.3,20.3,93.7,20.3,92.9 M20.3,105c0-0.8,0.6-1.4,1.4-1.4s1.4,0.6,1.4,1.4s-0.6,1.4-1.4,1.4C21,106.4,20.3,105.7,20.3,105
						 M20.3,109c0-0.8,0.6-1.4,1.4-1.4s1.4,0.6,1.4,1.4s-0.6,1.4-1.4,1.4C21,110.4,20.3,109.8,20.3,109 M20.3,121
						c0-0.8,0.6-1.4,1.4-1.4s1.4,0.6,1.4,1.4s-0.6,1.4-1.4,1.4C21,122.4,20.3,121.8,20.3,121 M20.3,125.1c0-0.8,0.6-1.4,1.4-1.4
						s1.4,0.6,1.4,1.4s-0.6,1.4-1.4,1.4C21,126.4,20.3,125.8,20.3,125.1 M24.3,88.9c0-0.8,0.6-1.4,1.4-1.4s1.4,0.6,1.4,1.4
						s-0.6,1.4-1.4,1.4C25,90.3,24.3,89.7,24.3,88.9 M24.3,92.9c0-0.8,0.6-1.4,1.4-1.4s1.4,0.6,1.4,1.4s-0.6,1.4-1.4,1.4
						C25,94.3,24.3,93.7,24.3,92.9 M24.3,105c0-0.8,0.6-1.4,1.4-1.4s1.4,0.6,1.4,1.4s-0.6,1.4-1.4,1.4C25,106.4,24.3,105.7,24.3,105
						 M24.3,109c0-0.8,0.6-1.4,1.4-1.4s1.4,0.6,1.4,1.4s-0.6,1.4-1.4,1.4C25,110.4,24.3,109.8,24.3,109 M24.3,113
						c0-0.8,0.6-1.4,1.4-1.4s1.4,0.6,1.4,1.4s-0.6,1.4-1.4,1.4C25,114.4,24.3,113.8,24.3,113 M24.3,117c0-0.8,0.6-1.4,1.4-1.4
						s1.4,0.6,1.4,1.4s-0.6,1.4-1.4,1.4C25,118.4,24.3,117.8,24.3,117 M28.4,88.9c0-0.8,0.6-1.4,1.4-1.4s1.4,0.6,1.4,1.4
						s-0.6,1.4-1.4,1.4S28.4,89.7,28.4,88.9 M28.4,92.9c0-0.8,0.6-1.4,1.4-1.4s1.4,0.6,1.4,1.4s-0.6,1.4-1.4,1.4
						S28.4,93.7,28.4,92.9 M28.4,105c0-0.8,0.6-1.4,1.4-1.4s1.4,0.6,1.4,1.4s-0.6,1.4-1.4,1.4S28.4,105.7,28.4,105 M28.4,109
						c0-0.8,0.6-1.4,1.4-1.4s1.4,0.6,1.4,1.4s-0.6,1.4-1.4,1.4S28.4,109.8,28.4,109 M28.4,113c0-0.8,0.6-1.4,1.4-1.4
						s1.4,0.6,1.4,1.4s-0.6,1.4-1.4,1.4S28.4,113.8,28.4,113 M28.4,117c0-0.8,0.6-1.4,1.4-1.4s1.4,0.6,1.4,1.4s-0.6,1.4-1.4,1.4
						S28.4,117.8,28.4,117"/>
				</g>
			</g>
			<g>
				<g>
					<defs>
						<rect id="SVGID_3_" x="0.2" y="87.5" width="212" height="38.9"/>
					</defs>
					<clipPath id="SVGID_4_">
						<use xlink:href="#SVGID_3_"  style="overflow:visible;"/>
					</clipPath>
					<path class="st2" d="M37.6,88.9c0-0.8,0.6-1.4,1.4-1.4c0.8,0,1.4,0.6,1.4,1.4s-0.6,1.4-1.4,1.4C38.2,90.3,37.6,89.7,37.6,88.9
						 M37.6,92.9c0-0.8,0.6-1.4,1.4-1.4c0.8,0,1.4,0.6,1.4,1.4s-0.6,1.4-1.4,1.4C38.2,94.3,37.6,93.7,37.6,92.9 M41.6,88.9
						c0-0.8,0.6-1.4,1.4-1.4c0.8,0,1.4,0.6,1.4,1.4s-0.6,1.4-1.4,1.4C42.2,90.3,41.6,89.7,41.6,88.9 M41.6,92.9
						c0-0.8,0.6-1.4,1.4-1.4c0.8,0,1.4,0.6,1.4,1.4s-0.6,1.4-1.4,1.4C42.2,94.3,41.6,93.7,41.6,92.9 M45.6,88.9
						c0-0.8,0.6-1.4,1.4-1.4c0.8,0,1.4,0.6,1.4,1.4s-0.6,1.4-1.4,1.4C46.2,90.3,45.6,89.7,45.6,88.9 M45.6,92.9
						c0-0.8,0.6-1.4,1.4-1.4c0.8,0,1.4,0.6,1.4,1.4s-0.6,1.4-1.4,1.4C46.2,94.3,45.6,93.7,45.6,92.9 M49.6,88.9
						c0-0.8,0.6-1.4,1.4-1.4c0.8,0,1.4,0.6,1.4,1.4s-0.6,1.4-1.4,1.4C50.3,90.3,49.6,89.7,49.6,88.9 M49.6,92.9
						c0-0.8,0.6-1.4,1.4-1.4c0.8,0,1.4,0.6,1.4,1.4s-0.6,1.4-1.4,1.4C50.3,94.3,49.6,93.7,49.6,92.9 M49.6,97c0-0.8,0.6-1.4,1.4-1.4
						c0.8,0,1.4,0.6,1.4,1.4s-0.6,1.4-1.4,1.4C50.3,98.3,49.6,97.7,49.6,97 M49.6,101c0-0.8,0.6-1.4,1.4-1.4c0.8,0,1.4,0.6,1.4,1.4
						s-0.6,1.4-1.4,1.4C50.3,102.4,49.6,101.7,49.6,101 M49.6,105c0-0.8,0.6-1.4,1.4-1.4c0.8,0,1.4,0.6,1.4,1.4s-0.6,1.4-1.4,1.4
						C50.3,106.4,49.6,105.7,49.6,105 M49.6,109c0-0.8,0.6-1.4,1.4-1.4c0.8,0,1.4,0.6,1.4,1.4s-0.6,1.4-1.4,1.4
						C50.3,110.4,49.6,109.8,49.6,109 M49.6,113c0-0.8,0.6-1.4,1.4-1.4c0.8,0,1.4,0.6,1.4,1.4s-0.6,1.4-1.4,1.4
						C50.3,114.4,49.6,113.8,49.6,113 M49.6,117c0-0.8,0.6-1.4,1.4-1.4c0.8,0,1.4,0.6,1.4,1.4s-0.6,1.4-1.4,1.4
						C50.3,118.4,49.6,117.8,49.6,117 M49.6,121c0-0.8,0.6-1.4,1.4-1.4c0.8,0,1.4,0.6,1.4,1.4s-0.6,1.4-1.4,1.4
						C50.3,122.4,49.6,121.8,49.6,121 M49.6,125.1c0-0.8,0.6-1.4,1.4-1.4c0.8,0,1.4,0.6,1.4,1.4s-0.6,1.4-1.4,1.4
						C50.3,126.4,49.6,125.8,49.6,125.1 M53.7,88.9c0-0.8,0.6-1.4,1.4-1.4c0.8,0,1.4,0.6,1.4,1.4s-0.6,1.4-1.4,1.4
						S53.7,89.7,53.7,88.9 M53.7,92.9c0-0.8,0.6-1.4,1.4-1.4c0.8,0,1.4,0.6,1.4,1.4s-0.6,1.4-1.4,1.4S53.7,93.7,53.7,92.9 M53.7,97
						c0-0.8,0.6-1.4,1.4-1.4c0.8,0,1.4,0.6,1.4,1.4s-0.6,1.4-1.4,1.4C54.3,98.3,53.7,97.7,53.7,97 M53.7,101c0-0.8,0.6-1.4,1.4-1.4
						c0.8,0,1.4,0.6,1.4,1.4s-0.6,1.4-1.4,1.4S53.7,101.7,53.7,101 M53.7,105c0-0.8,0.6-1.4,1.4-1.4c0.8,0,1.4,0.6,1.4,1.4
						s-0.6,1.4-1.4,1.4S53.7,105.7,53.7,105 M53.7,109c0-0.8,0.6-1.4,1.4-1.4c0.8,0,1.4,0.6,1.4,1.4s-0.6,1.4-1.4,1.4
						S53.7,109.8,53.7,109 M53.7,113c0-0.8,0.6-1.4,1.4-1.4c0.8,0,1.4,0.6,1.4,1.4s-0.6,1.4-1.4,1.4S53.7,113.8,53.7,113 M53.7,117
						c0-0.8,0.6-1.4,1.4-1.4c0.8,0,1.4,0.6,1.4,1.4s-0.6,1.4-1.4,1.4S53.7,117.8,53.7,117 M53.7,121c0-0.8,0.6-1.4,1.4-1.4
						c0.8,0,1.4,0.6,1.4,1.4s-0.6,1.4-1.4,1.4S53.7,121.8,53.7,121 M53.7,125.1c0-0.8,0.6-1.4,1.4-1.4c0.8,0,1.4,0.6,1.4,1.4
						s-0.6,1.4-1.4,1.4C54.3,126.4,53.7,125.8,53.7,125.1 M57.7,88.9c0-0.8,0.6-1.4,1.4-1.4c0.8,0,1.4,0.6,1.4,1.4s-0.6,1.4-1.4,1.4
						S57.7,89.7,57.7,88.9 M57.7,92.9c0-0.8,0.6-1.4,1.4-1.4c0.8,0,1.4,0.6,1.4,1.4s-0.6,1.4-1.4,1.4S57.7,93.7,57.7,92.9
						 M61.7,88.9c0-0.8,0.6-1.4,1.4-1.4c0.8,0,1.4,0.6,1.4,1.4s-0.6,1.4-1.4,1.4C62.3,90.3,61.7,89.7,61.7,88.9 M61.7,92.9
						c0-0.8,0.6-1.4,1.4-1.4c0.8,0,1.4,0.6,1.4,1.4s-0.6,1.4-1.4,1.4C62.3,94.3,61.7,93.7,61.7,92.9 M65.7,88.9
						c0-0.8,0.6-1.4,1.4-1.4s1.4,0.6,1.4,1.4s-0.6,1.4-1.4,1.4S65.7,89.7,65.7,88.9 M65.7,92.9c0-0.8,0.6-1.4,1.4-1.4
						s1.4,0.6,1.4,1.4s-0.6,1.4-1.4,1.4S65.7,93.7,65.7,92.9"/>
				</g>
			</g>
			<g>
				<g>
					<defs>
						<rect id="SVGID_5_" x="0.2" y="87.5" width="212" height="38.9"/>
					</defs>
					<clipPath id="SVGID_6_">
						<use xlink:href="#SVGID_5_"  style="overflow:visible;"/>
					</clipPath>
					<path class="st3" d="M74.9,88.9c0-0.8,0.6-1.4,1.4-1.4s1.4,0.6,1.4,1.4s-0.6,1.4-1.4,1.4C75.6,90.3,74.9,89.7,74.9,88.9
						 M74.9,92.9c0-0.8,0.6-1.4,1.4-1.4s1.4,0.6,1.4,1.4s-0.6,1.4-1.4,1.4C75.6,94.3,74.9,93.7,74.9,92.9 M74.9,97
						c0-0.8,0.6-1.4,1.4-1.4s1.4,0.6,1.4,1.4s-0.6,1.4-1.4,1.4C75.6,98.3,74.9,97.7,74.9,97 M74.9,101c0-0.8,0.6-1.4,1.4-1.4
						s1.4,0.6,1.4,1.4s-0.6,1.4-1.4,1.4C75.6,102.4,74.9,101.7,74.9,101 M74.9,105c0-0.8,0.6-1.4,1.4-1.4s1.4,0.6,1.4,1.4
						s-0.6,1.4-1.4,1.4C75.6,106.4,74.9,105.7,74.9,105 M74.9,109c0-0.8,0.6-1.4,1.4-1.4s1.4,0.6,1.4,1.4s-0.6,1.4-1.4,1.4
						C75.6,110.4,74.9,109.8,74.9,109 M74.9,113c0-0.8,0.6-1.4,1.4-1.4s1.4,0.6,1.4,1.4s-0.6,1.4-1.4,1.4
						C75.6,114.4,74.9,113.8,74.9,113 M74.9,117c0-0.8,0.6-1.4,1.4-1.4s1.4,0.6,1.4,1.4s-0.6,1.4-1.4,1.4
						C75.6,118.4,74.9,117.8,74.9,117 M79,88.9c0-0.8,0.6-1.4,1.4-1.4s1.4,0.6,1.4,1.4s-0.6,1.4-1.4,1.4S79,89.7,79,88.9 M79,92.9
						c0-0.8,0.6-1.4,1.4-1.4s1.4,0.6,1.4,1.4s-0.6,1.4-1.4,1.4S79,93.7,79,92.9 M79,97c0-0.8,0.6-1.4,1.4-1.4s1.4,0.6,1.4,1.4
						s-0.6,1.4-1.4,1.4C79.6,98.3,79,97.7,79,97 M79,101c0-0.8,0.6-1.4,1.4-1.4s1.4,0.6,1.4,1.4s-0.6,1.4-1.4,1.4S79,101.7,79,101
						 M79,105c0-0.8,0.6-1.4,1.4-1.4s1.4,0.6,1.4,1.4s-0.6,1.4-1.4,1.4S79,105.7,79,105 M79,109c0-0.8,0.6-1.4,1.4-1.4
						s1.4,0.6,1.4,1.4s-0.6,1.4-1.4,1.4S79,109.8,79,109 M79,113c0-0.8,0.6-1.4,1.4-1.4s1.4,0.6,1.4,1.4s-0.6,1.4-1.4,1.4
						S79,113.8,79,113 M79,117c0-0.8,0.6-1.4,1.4-1.4s1.4,0.6,1.4,1.4s-0.6,1.4-1.4,1.4S79,117.8,79,117 M83,121
						c0-0.8,0.6-1.4,1.4-1.4s1.4,0.6,1.4,1.4s-0.6,1.4-1.4,1.4S83,121.8,83,121 M83,125.1c0-0.8,0.6-1.4,1.4-1.4s1.4,0.6,1.4,1.4
						s-0.6,1.4-1.4,1.4C83.6,126.4,83,125.8,83,125.1 M87,121c0-0.8,0.6-1.4,1.4-1.4s1.4,0.6,1.4,1.4s-0.6,1.4-1.4,1.4
						S87,121.8,87,121 M87,125.1c0-0.8,0.6-1.4,1.4-1.4s1.4,0.6,1.4,1.4s-0.6,1.4-1.4,1.4C87.6,126.4,87,125.8,87,125.1 M91,121
						c0-0.8,0.6-1.4,1.4-1.4s1.4,0.6,1.4,1.4s-0.6,1.4-1.4,1.4S91,121.8,91,121 M91,125.1c0-0.8,0.6-1.4,1.4-1.4s1.4,0.6,1.4,1.4
						s-0.6,1.4-1.4,1.4C91.6,126.4,91,125.8,91,125.1 M95,121c0-0.8,0.6-1.4,1.4-1.4s1.4,0.6,1.4,1.4s-0.6,1.4-1.4,1.4
						S95,121.8,95,121 M95,125.1c0-0.8,0.6-1.4,1.4-1.4s1.4,0.6,1.4,1.4s-0.6,1.4-1.4,1.4C95.6,126.4,95,125.8,95,125.1 M99,88.9
						c0-0.8,0.6-1.4,1.4-1.4s1.4,0.6,1.4,1.4s-0.6,1.4-1.4,1.4C99.7,90.3,99,89.7,99,88.9 M99,92.9c0-0.8,0.6-1.4,1.4-1.4
						s1.4,0.6,1.4,1.4s-0.6,1.4-1.4,1.4C99.7,94.3,99,93.7,99,92.9 M99,97c0-0.8,0.6-1.4,1.4-1.4s1.4,0.6,1.4,1.4s-0.6,1.4-1.4,1.4
						C99.7,98.3,99,97.7,99,97 M99,101c0-0.8,0.6-1.4,1.4-1.4s1.4,0.6,1.4,1.4s-0.6,1.4-1.4,1.4C99.7,102.4,99,101.7,99,101 M99,105
						c0-0.8,0.6-1.4,1.4-1.4s1.4,0.6,1.4,1.4s-0.6,1.4-1.4,1.4C99.7,106.4,99,105.7,99,105 M99,109c0-0.8,0.6-1.4,1.4-1.4
						s1.4,0.6,1.4,1.4s-0.6,1.4-1.4,1.4C99.7,110.4,99,109.8,99,109 M99,113c0-0.8,0.6-1.4,1.4-1.4s1.4,0.6,1.4,1.4
						s-0.6,1.4-1.4,1.4C99.7,114.4,99,113.8,99,113 M99,117c0-0.8,0.6-1.4,1.4-1.4s1.4,0.6,1.4,1.4s-0.6,1.4-1.4,1.4
						C99.7,118.4,99,117.8,99,117 M99,121c0-0.8,0.6-1.4,1.4-1.4s1.4,0.6,1.4,1.4s-0.6,1.4-1.4,1.4C99.7,122.4,99,121.8,99,121
						 M99,125.1c0-0.8,0.6-1.4,1.4-1.4s1.4,0.6,1.4,1.4s-0.6,1.4-1.4,1.4C99.7,126.4,99,125.8,99,125.1 M103,88.9
						c0-0.8,0.6-1.4,1.4-1.4s1.4,0.6,1.4,1.4s-0.6,1.4-1.4,1.4C103.7,90.3,103,89.7,103,88.9 M103,92.9c0-0.8,0.6-1.4,1.4-1.4
						s1.4,0.6,1.4,1.4s-0.6,1.4-1.4,1.4C103.7,94.3,103,93.7,103,92.9 M103,97c0-0.8,0.6-1.4,1.4-1.4s1.4,0.6,1.4,1.4
						s-0.6,1.4-1.4,1.4C103.7,98.3,103,97.7,103,97 M103,101c0-0.8,0.6-1.4,1.4-1.4s1.4,0.6,1.4,1.4s-0.6,1.4-1.4,1.4
						C103.7,102.4,103,101.7,103,101 M103,105c0-0.8,0.6-1.4,1.4-1.4s1.4,0.6,1.4,1.4s-0.6,1.4-1.4,1.4
						C103.7,106.4,103,105.7,103,105 M103,109c0-0.8,0.6-1.4,1.4-1.4s1.4,0.6,1.4,1.4s-0.6,1.4-1.4,1.4
						C103.7,110.4,103,109.8,103,109 M103,113c0-0.8,0.6-1.4,1.4-1.4s1.4,0.6,1.4,1.4s-0.6,1.4-1.4,1.4
						C103.7,114.4,103,113.8,103,113 M103,117c0-0.8,0.6-1.4,1.4-1.4s1.4,0.6,1.4,1.4s-0.6,1.4-1.4,1.4
						C103.7,118.4,103,117.8,103,117 M103,121c0-0.8,0.6-1.4,1.4-1.4s1.4,0.6,1.4,1.4s-0.6,1.4-1.4,1.4
						C103.7,122.4,103,121.8,103,121 M103,125.1c0-0.8,0.6-1.4,1.4-1.4s1.4,0.6,1.4,1.4s-0.6,1.4-1.4,1.4
						C103.7,126.4,103,125.8,103,125.1"/>
				</g>
			</g>
			<g>
				<g>
					<defs>
						<rect id="SVGID_7_" x="0.2" y="87.5" width="212" height="38.9"/>
					</defs>
					<clipPath id="SVGID_8_">
						<use xlink:href="#SVGID_7_"  style="overflow:visible;"/>
					</clipPath>
					<path class="st4" d="M113.7,88.9c0-0.8,0.6-1.4,1.4-1.4s1.4,0.6,1.4,1.4s-0.6,1.4-1.4,1.4C114.3,90.3,113.7,89.7,113.7,88.9
						 M113.7,92.9c0-0.8,0.6-1.4,1.4-1.4s1.4,0.6,1.4,1.4s-0.6,1.4-1.4,1.4C114.3,94.3,113.7,93.7,113.7,92.9 M113.7,97
						c0-0.8,0.6-1.4,1.4-1.4s1.4,0.6,1.4,1.4s-0.6,1.4-1.4,1.4C114.3,98.3,113.7,97.7,113.7,97 M113.7,101c0-0.8,0.6-1.4,1.4-1.4
						s1.4,0.6,1.4,1.4s-0.6,1.4-1.4,1.4C114.3,102.4,113.7,101.7,113.7,101 M113.7,105c0-0.8,0.6-1.4,1.4-1.4s1.4,0.6,1.4,1.4
						s-0.6,1.4-1.4,1.4C114.3,106.4,113.7,105.7,113.7,105 M113.7,109c0-0.8,0.6-1.4,1.4-1.4s1.4,0.6,1.4,1.4s-0.6,1.4-1.4,1.4
						C114.3,110.4,113.7,109.8,113.7,109 M113.7,113c0-0.8,0.6-1.4,1.4-1.4s1.4,0.6,1.4,1.4s-0.6,1.4-1.4,1.4
						C114.3,114.4,113.7,113.8,113.7,113 M113.7,117c0-0.8,0.6-1.4,1.4-1.4s1.4,0.6,1.4,1.4s-0.6,1.4-1.4,1.4
						C114.3,118.4,113.7,117.8,113.7,117 M113.7,121c0-0.8,0.6-1.4,1.4-1.4s1.4,0.6,1.4,1.4s-0.6,1.4-1.4,1.4
						C114.3,122.4,113.7,121.8,113.7,121 M113.7,125.1c0-0.8,0.6-1.4,1.4-1.4s1.4,0.6,1.4,1.4s-0.6,1.4-1.4,1.4
						C114.3,126.4,113.7,125.8,113.7,125.1 M117.7,88.9c0-0.8,0.6-1.4,1.4-1.4s1.4,0.6,1.4,1.4s-0.6,1.4-1.4,1.4
						C118.3,90.3,117.7,89.7,117.7,88.9 M117.7,92.9c0-0.8,0.6-1.4,1.4-1.4s1.4,0.6,1.4,1.4s-0.6,1.4-1.4,1.4
						C118.3,94.3,117.7,93.7,117.7,92.9 M117.7,97c0-0.8,0.6-1.4,1.4-1.4s1.4,0.6,1.4,1.4s-0.6,1.4-1.4,1.4
						C118.3,98.3,117.7,97.7,117.7,97 M117.7,101c0-0.8,0.6-1.4,1.4-1.4s1.4,0.6,1.4,1.4s-0.6,1.4-1.4,1.4
						C118.3,102.4,117.7,101.7,117.7,101 M117.7,105c0-0.8,0.6-1.4,1.4-1.4s1.4,0.6,1.4,1.4s-0.6,1.4-1.4,1.4
						C118.3,106.4,117.7,105.7,117.7,105 M117.7,109c0-0.8,0.6-1.4,1.4-1.4s1.4,0.6,1.4,1.4s-0.6,1.4-1.4,1.4
						C118.3,110.4,117.7,109.8,117.7,109 M117.7,113c0-0.8,0.6-1.4,1.4-1.4s1.4,0.6,1.4,1.4s-0.6,1.4-1.4,1.4
						C118.3,114.4,117.7,113.8,117.7,113 M117.7,117c0-0.8,0.6-1.4,1.4-1.4s1.4,0.6,1.4,1.4s-0.6,1.4-1.4,1.4
						C118.3,118.4,117.7,117.8,117.7,117 M117.7,121c0-0.8,0.6-1.4,1.4-1.4s1.4,0.6,1.4,1.4s-0.6,1.4-1.4,1.4
						C118.3,122.4,117.7,121.8,117.7,121 M117.7,125.1c0-0.8,0.6-1.4,1.4-1.4s1.4,0.6,1.4,1.4s-0.6,1.4-1.4,1.4
						C118.3,126.4,117.7,125.8,117.7,125.1 M121.7,88.9c0-0.8,0.6-1.4,1.4-1.4s1.4,0.6,1.4,1.4s-0.6,1.4-1.4,1.4
						C122.3,90.3,121.7,89.7,121.7,88.9 M121.7,92.9c0-0.8,0.6-1.4,1.4-1.4s1.4,0.6,1.4,1.4s-0.6,1.4-1.4,1.4
						C122.3,94.3,121.7,93.7,121.7,92.9 M121.7,121c0-0.8,0.6-1.4,1.4-1.4s1.4,0.6,1.4,1.4s-0.6,1.4-1.4,1.4
						C122.3,122.4,121.7,121.8,121.7,121 M121.7,125.1c0-0.8,0.6-1.4,1.4-1.4s1.4,0.6,1.4,1.4s-0.6,1.4-1.4,1.4
						C122.3,126.4,121.7,125.8,121.7,125.1 M125.7,88.9c0-0.8,0.6-1.4,1.4-1.4s1.4,0.6,1.4,1.4s-0.6,1.4-1.4,1.4
						C126.4,90.3,125.7,89.7,125.7,88.9 M125.7,92.9c0-0.8,0.6-1.4,1.4-1.4s1.4,0.6,1.4,1.4s-0.6,1.4-1.4,1.4
						C126.4,94.3,125.7,93.7,125.7,92.9 M125.7,121c0-0.8,0.6-1.4,1.4-1.4s1.4,0.6,1.4,1.4s-0.6,1.4-1.4,1.4
						C126.4,122.4,125.7,121.8,125.7,121 M125.7,125.1c0-0.8,0.6-1.4,1.4-1.4s1.4,0.6,1.4,1.4s-0.6,1.4-1.4,1.4
						C126.4,126.4,125.7,125.8,125.7,125.1 M129.7,88.9c0-0.8,0.6-1.4,1.4-1.4c0.8,0,1.4,0.6,1.4,1.4s-0.6,1.4-1.4,1.4
						C130.4,90.3,129.7,89.7,129.7,88.9 M129.7,92.9c0-0.8,0.6-1.4,1.4-1.4c0.8,0,1.4,0.6,1.4,1.4s-0.6,1.4-1.4,1.4
						C130.4,94.3,129.7,93.7,129.7,92.9 M129.7,121c0-0.8,0.6-1.4,1.4-1.4c0.8,0,1.4,0.6,1.4,1.4s-0.6,1.4-1.4,1.4
						C130.4,122.4,129.7,121.8,129.7,121 M129.7,125.1c0-0.8,0.6-1.4,1.4-1.4c0.8,0,1.4,0.6,1.4,1.4s-0.6,1.4-1.4,1.4
						C130.4,126.4,129.7,125.8,129.7,125.1 M133.8,88.9c0-0.8,0.6-1.4,1.4-1.4c0.8,0,1.4,0.6,1.4,1.4s-0.6,1.4-1.4,1.4
						C134.4,90.3,133.8,89.7,133.8,88.9 M133.8,92.9c0-0.8,0.6-1.4,1.4-1.4c0.8,0,1.4,0.6,1.4,1.4s-0.6,1.4-1.4,1.4
						C134.4,94.3,133.8,93.7,133.8,92.9 M133.8,121c0-0.8,0.6-1.4,1.4-1.4c0.8,0,1.4,0.6,1.4,1.4s-0.6,1.4-1.4,1.4
						C134.4,122.4,133.8,121.8,133.8,121 M133.8,125.1c0-0.8,0.6-1.4,1.4-1.4c0.8,0,1.4,0.6,1.4,1.4s-0.6,1.4-1.4,1.4
						C134.4,126.4,133.8,125.8,133.8,125.1 M137.8,97c0-0.8,0.6-1.4,1.4-1.4c0.8,0,1.4,0.6,1.4,1.4s-0.6,1.4-1.4,1.4
						C138.4,98.3,137.8,97.7,137.8,97 M137.8,101c0-0.8,0.6-1.4,1.4-1.4c0.8,0,1.4,0.6,1.4,1.4s-0.6,1.4-1.4,1.4
						C138.4,102.4,137.8,101.7,137.8,101 M137.8,105c0-0.8,0.6-1.4,1.4-1.4c0.8,0,1.4,0.6,1.4,1.4s-0.6,1.4-1.4,1.4
						C138.4,106.4,137.8,105.7,137.8,105 M137.8,109c0-0.8,0.6-1.4,1.4-1.4c0.8,0,1.4,0.6,1.4,1.4s-0.6,1.4-1.4,1.4
						C138.4,110.4,137.8,109.8,137.8,109 M137.8,113c0-0.8,0.6-1.4,1.4-1.4c0.8,0,1.4,0.6,1.4,1.4s-0.6,1.4-1.4,1.4
						C138.4,114.4,137.8,113.8,137.8,113 M137.8,117c0-0.8,0.6-1.4,1.4-1.4c0.8,0,1.4,0.6,1.4,1.4s-0.6,1.4-1.4,1.4
						C138.4,118.4,137.8,117.8,137.8,117 M141.8,97c0-0.8,0.6-1.4,1.4-1.4s1.4,0.6,1.4,1.4s-0.6,1.4-1.4,1.4S141.8,97.7,141.8,97
						 M141.8,101c0-0.8,0.6-1.4,1.4-1.4s1.4,0.6,1.4,1.4s-0.6,1.4-1.4,1.4S141.8,101.7,141.8,101 M141.8,105c0-0.8,0.6-1.4,1.4-1.4
						s1.4,0.6,1.4,1.4s-0.6,1.4-1.4,1.4S141.8,105.7,141.8,105 M141.8,109c0-0.8,0.6-1.4,1.4-1.4s1.4,0.6,1.4,1.4s-0.6,1.4-1.4,1.4
						S141.8,109.8,141.8,109 M141.8,113c0-0.8,0.6-1.4,1.4-1.4s1.4,0.6,1.4,1.4s-0.6,1.4-1.4,1.4S141.8,113.8,141.8,113 M141.8,117
						c0-0.8,0.6-1.4,1.4-1.4s1.4,0.6,1.4,1.4s-0.6,1.4-1.4,1.4S141.8,117.8,141.8,117"/>
				</g>
			</g>
			<g>
				<g>
					<defs>
						<rect id="SVGID_9_" x="0.2" y="87.5" width="212" height="38.9"/>
					</defs>
					<clipPath id="SVGID_10_">
						<use xlink:href="#SVGID_9_"  style="overflow:visible;"/>
					</clipPath>
					<path class="st5" d="M152.2,88.9c0-0.8,0.6-1.4,1.4-1.4c0.8,0,1.4,0.6,1.4,1.4s-0.6,1.4-1.4,1.4
						C152.9,90.3,152.2,89.7,152.2,88.9 M152.2,92.9c0-0.8,0.6-1.4,1.4-1.4c0.8,0,1.4,0.6,1.4,1.4s-0.6,1.4-1.4,1.4
						C152.9,94.3,152.2,93.7,152.2,92.9 M152.2,121c0-0.8,0.6-1.4,1.4-1.4c0.8,0,1.4,0.6,1.4,1.4s-0.6,1.4-1.4,1.4
						C152.9,122.4,152.2,121.8,152.2,121 M152.2,125.1c0-0.8,0.6-1.4,1.4-1.4c0.8,0,1.4,0.6,1.4,1.4s-0.6,1.4-1.4,1.4
						C152.9,126.4,152.2,125.8,152.2,125.1 M156.3,88.9c0-0.8,0.6-1.4,1.4-1.4c0.8,0,1.4,0.6,1.4,1.4s-0.6,1.4-1.4,1.4
						C156.9,90.3,156.3,89.7,156.3,88.9 M156.3,92.9c0-0.8,0.6-1.4,1.4-1.4c0.8,0,1.4,0.6,1.4,1.4s-0.6,1.4-1.4,1.4
						C156.9,94.3,156.3,93.7,156.3,92.9 M156.3,121c0-0.8,0.6-1.4,1.4-1.4c0.8,0,1.4,0.6,1.4,1.4s-0.6,1.4-1.4,1.4
						C156.9,122.4,156.3,121.8,156.3,121 M156.3,125.1c0-0.8,0.6-1.4,1.4-1.4c0.8,0,1.4,0.6,1.4,1.4s-0.6,1.4-1.4,1.4
						C156.9,126.4,156.3,125.8,156.3,125.1 M160.3,88.9c0-0.8,0.6-1.4,1.4-1.4c0.8,0,1.4,0.6,1.4,1.4s-0.6,1.4-1.4,1.4
						C160.9,90.3,160.3,89.7,160.3,88.9 M160.3,92.9c0-0.8,0.6-1.4,1.4-1.4c0.8,0,1.4,0.6,1.4,1.4s-0.6,1.4-1.4,1.4
						C160.9,94.3,160.3,93.7,160.3,92.9 M160.3,97c0-0.8,0.6-1.4,1.4-1.4c0.8,0,1.4,0.6,1.4,1.4s-0.6,1.4-1.4,1.4
						C160.9,98.3,160.3,97.7,160.3,97 M160.3,101c0-0.8,0.6-1.4,1.4-1.4c0.8,0,1.4,0.6,1.4,1.4s-0.6,1.4-1.4,1.4
						C160.9,102.4,160.3,101.7,160.3,101 M160.3,105c0-0.8,0.6-1.4,1.4-1.4c0.8,0,1.4,0.6,1.4,1.4s-0.6,1.4-1.4,1.4
						C160.9,106.4,160.3,105.7,160.3,105 M160.3,109c0-0.8,0.6-1.4,1.4-1.4c0.8,0,1.4,0.6,1.4,1.4s-0.6,1.4-1.4,1.4
						C160.9,110.4,160.3,109.8,160.3,109 M160.3,113c0-0.8,0.6-1.4,1.4-1.4c0.8,0,1.4,0.6,1.4,1.4s-0.6,1.4-1.4,1.4
						C160.9,114.4,160.3,113.8,160.3,113 M160.3,117c0-0.8,0.6-1.4,1.4-1.4c0.8,0,1.4,0.6,1.4,1.4s-0.6,1.4-1.4,1.4
						C160.9,118.4,160.3,117.8,160.3,117 M160.3,121c0-0.8,0.6-1.4,1.4-1.4c0.8,0,1.4,0.6,1.4,1.4s-0.6,1.4-1.4,1.4
						C160.9,122.4,160.3,121.8,160.3,121 M160.3,125.1c0-0.8,0.6-1.4,1.4-1.4c0.8,0,1.4,0.6,1.4,1.4s-0.6,1.4-1.4,1.4
						C160.9,126.4,160.3,125.8,160.3,125.1 M164.3,88.9c0-0.8,0.6-1.4,1.4-1.4c0.8,0,1.4,0.6,1.4,1.4s-0.6,1.4-1.4,1.4
						C164.9,90.3,164.3,89.7,164.3,88.9 M164.3,92.9c0-0.8,0.6-1.4,1.4-1.4c0.8,0,1.4,0.6,1.4,1.4s-0.6,1.4-1.4,1.4
						C164.9,94.3,164.3,93.7,164.3,92.9 M164.3,97c0-0.8,0.6-1.4,1.4-1.4c0.8,0,1.4,0.6,1.4,1.4s-0.6,1.4-1.4,1.4
						C164.9,98.3,164.3,97.7,164.3,97 M164.3,101c0-0.8,0.6-1.4,1.4-1.4c0.8,0,1.4,0.6,1.4,1.4s-0.6,1.4-1.4,1.4
						C164.9,102.4,164.3,101.7,164.3,101 M164.3,105c0-0.8,0.6-1.4,1.4-1.4c0.8,0,1.4,0.6,1.4,1.4s-0.6,1.4-1.4,1.4
						C164.9,106.4,164.3,105.7,164.3,105 M164.3,109c0-0.8,0.6-1.4,1.4-1.4c0.8,0,1.4,0.6,1.4,1.4s-0.6,1.4-1.4,1.4
						C164.9,110.4,164.3,109.8,164.3,109 M164.3,113c0-0.8,0.6-1.4,1.4-1.4c0.8,0,1.4,0.6,1.4,1.4s-0.6,1.4-1.4,1.4
						C164.9,114.4,164.3,113.8,164.3,113 M164.3,117c0-0.8,0.6-1.4,1.4-1.4c0.8,0,1.4,0.6,1.4,1.4s-0.6,1.4-1.4,1.4
						C164.9,118.4,164.3,117.8,164.3,117 M164.3,121c0-0.8,0.6-1.4,1.4-1.4c0.8,0,1.4,0.6,1.4,1.4s-0.6,1.4-1.4,1.4
						C164.9,122.4,164.3,121.8,164.3,121 M164.3,125.1c0-0.8,0.6-1.4,1.4-1.4c0.8,0,1.4,0.6,1.4,1.4s-0.6,1.4-1.4,1.4
						C164.9,126.4,164.3,125.8,164.3,125.1 M168.3,88.9c0-0.8,0.6-1.4,1.4-1.4c0.8,0,1.4,0.6,1.4,1.4s-0.6,1.4-1.4,1.4
						C168.9,90.3,168.3,89.7,168.3,88.9 M168.3,92.9c0-0.8,0.6-1.4,1.4-1.4c0.8,0,1.4,0.6,1.4,1.4s-0.6,1.4-1.4,1.4
						C168.9,94.3,168.3,93.7,168.3,92.9 M168.3,121c0-0.8,0.6-1.4,1.4-1.4c0.8,0,1.4,0.6,1.4,1.4s-0.6,1.4-1.4,1.4
						C168.9,122.4,168.3,121.8,168.3,121 M168.3,125.1c0-0.8,0.6-1.4,1.4-1.4c0.8,0,1.4,0.6,1.4,1.4s-0.6,1.4-1.4,1.4
						C168.9,126.4,168.3,125.8,168.3,125.1 M172.3,88.9c0-0.8,0.6-1.4,1.4-1.4c0.8,0,1.4,0.6,1.4,1.4s-0.6,1.4-1.4,1.4
						C172.9,90.3,172.3,89.7,172.3,88.9 M172.3,92.9c0-0.8,0.6-1.4,1.4-1.4c0.8,0,1.4,0.6,1.4,1.4s-0.6,1.4-1.4,1.4
						C172.9,94.3,172.3,93.7,172.3,92.9 M172.3,121c0-0.8,0.6-1.4,1.4-1.4c0.8,0,1.4,0.6,1.4,1.4s-0.6,1.4-1.4,1.4
						C172.9,122.4,172.3,121.8,172.3,121 M172.3,125.1c0-0.8,0.6-1.4,1.4-1.4c0.8,0,1.4,0.6,1.4,1.4s-0.6,1.4-1.4,1.4
						C172.9,126.4,172.3,125.8,172.3,125.1"/>
				</g>
			</g>
			<g>
				<g>
					<defs>
						<rect id="SVGID_11_" x="0.2" y="87.5" width="212" height="38.9"/>
					</defs>
					<clipPath id="SVGID_12_">
						<use xlink:href="#SVGID_11_"  style="overflow:visible;"/>
					</clipPath>
					<path class="st6" d="M181.4,97c0-0.8,0.6-1.4,1.4-1.4c0.8,0,1.4,0.6,1.4,1.4s-0.6,1.4-1.4,1.4C182,98.3,181.4,97.7,181.4,97
						 M181.4,101c0-0.8,0.6-1.4,1.4-1.4c0.8,0,1.4,0.6,1.4,1.4s-0.6,1.4-1.4,1.4S181.4,101.7,181.4,101 M181.4,105
						c0-0.8,0.6-1.4,1.4-1.4c0.8,0,1.4,0.6,1.4,1.4s-0.6,1.4-1.4,1.4S181.4,105.7,181.4,105 M181.4,109c0-0.8,0.6-1.4,1.4-1.4
						c0.8,0,1.4,0.6,1.4,1.4s-0.6,1.4-1.4,1.4S181.4,109.8,181.4,109 M181.4,113c0-0.8,0.6-1.4,1.4-1.4c0.8,0,1.4,0.6,1.4,1.4
						s-0.6,1.4-1.4,1.4S181.4,113.8,181.4,113 M181.4,117c0-0.8,0.6-1.4,1.4-1.4c0.8,0,1.4,0.6,1.4,1.4s-0.6,1.4-1.4,1.4
						S181.4,117.8,181.4,117 M185.4,97c0-0.8,0.6-1.4,1.4-1.4c0.8,0,1.4,0.6,1.4,1.4s-0.6,1.4-1.4,1.4C186,98.3,185.4,97.7,185.4,97
						 M185.4,101c0-0.8,0.6-1.4,1.4-1.4c0.8,0,1.4,0.6,1.4,1.4s-0.6,1.4-1.4,1.4S185.4,101.7,185.4,101 M185.4,105
						c0-0.8,0.6-1.4,1.4-1.4c0.8,0,1.4,0.6,1.4,1.4s-0.6,1.4-1.4,1.4S185.4,105.7,185.4,105 M185.4,109c0-0.8,0.6-1.4,1.4-1.4
						c0.8,0,1.4,0.6,1.4,1.4s-0.6,1.4-1.4,1.4S185.4,109.8,185.4,109 M185.4,113c0-0.8,0.6-1.4,1.4-1.4c0.8,0,1.4,0.6,1.4,1.4
						s-0.6,1.4-1.4,1.4S185.4,113.8,185.4,113 M185.4,117c0-0.8,0.6-1.4,1.4-1.4c0.8,0,1.4,0.6,1.4,1.4s-0.6,1.4-1.4,1.4
						S185.4,117.8,185.4,117 M189.4,88.9c0-0.8,0.6-1.4,1.4-1.4c0.8,0,1.4,0.6,1.4,1.4s-0.6,1.4-1.4,1.4S189.4,89.7,189.4,88.9
						 M189.4,92.9c0-0.8,0.6-1.4,1.4-1.4c0.8,0,1.4,0.6,1.4,1.4s-0.6,1.4-1.4,1.4S189.4,93.7,189.4,92.9 M189.4,121
						c0-0.8,0.6-1.4,1.4-1.4c0.8,0,1.4,0.6,1.4,1.4s-0.6,1.4-1.4,1.4S189.4,121.8,189.4,121 M189.4,125.1c0-0.8,0.6-1.4,1.4-1.4
						c0.8,0,1.4,0.6,1.4,1.4s-0.6,1.4-1.4,1.4C190,126.4,189.4,125.8,189.4,125.1 M193.4,88.9c0-0.8,0.6-1.4,1.4-1.4
						c0.8,0,1.4,0.6,1.4,1.4s-0.6,1.4-1.4,1.4S193.4,89.7,193.4,88.9 M193.4,92.9c0-0.8,0.6-1.4,1.4-1.4c0.8,0,1.4,0.6,1.4,1.4
						s-0.6,1.4-1.4,1.4S193.4,93.7,193.4,92.9 M193.4,121c0-0.8,0.6-1.4,1.4-1.4c0.8,0,1.4,0.6,1.4,1.4s-0.6,1.4-1.4,1.4
						S193.4,121.8,193.4,121 M193.4,125.1c0-0.8,0.6-1.4,1.4-1.4c0.8,0,1.4,0.6,1.4,1.4s-0.6,1.4-1.4,1.4
						C194,126.4,193.4,125.8,193.4,125.1 M197.4,88.9c0-0.8,0.6-1.4,1.4-1.4c0.8,0,1.4,0.6,1.4,1.4s-0.6,1.4-1.4,1.4
						S197.4,89.7,197.4,88.9 M197.4,92.9c0-0.8,0.6-1.4,1.4-1.4c0.8,0,1.4,0.6,1.4,1.4s-0.6,1.4-1.4,1.4S197.4,93.7,197.4,92.9
						 M197.4,121c0-0.8,0.6-1.4,1.4-1.4c0.8,0,1.4,0.6,1.4,1.4s-0.6,1.4-1.4,1.4S197.4,121.8,197.4,121 M197.4,125.1
						c0-0.8,0.6-1.4,1.4-1.4c0.8,0,1.4,0.6,1.4,1.4s-0.6,1.4-1.4,1.4C198,126.4,197.4,125.8,197.4,125.1 M201.4,88.9
						c0-0.8,0.6-1.4,1.4-1.4c0.8,0,1.4,0.6,1.4,1.4s-0.6,1.4-1.4,1.4C202.1,90.3,201.4,89.7,201.4,88.9 M201.4,92.9
						c0-0.8,0.6-1.4,1.4-1.4c0.8,0,1.4,0.6,1.4,1.4s-0.6,1.4-1.4,1.4C202.1,94.3,201.4,93.7,201.4,92.9 M201.4,121
						c0-0.8,0.6-1.4,1.4-1.4c0.8,0,1.4,0.6,1.4,1.4s-0.6,1.4-1.4,1.4C202.1,122.4,201.4,121.8,201.4,121 M201.4,125.1
						c0-0.8,0.6-1.4,1.4-1.4c0.8,0,1.4,0.6,1.4,1.4s-0.6,1.4-1.4,1.4C202.1,126.4,201.4,125.8,201.4,125.1 M205.4,97
						c0-0.8,0.6-1.4,1.4-1.4c0.8,0,1.4,0.6,1.4,1.4s-0.6,1.4-1.4,1.4C206.1,98.3,205.4,97.7,205.4,97 M205.4,101
						c0-0.8,0.6-1.4,1.4-1.4c0.8,0,1.4,0.6,1.4,1.4s-0.6,1.4-1.4,1.4C206.1,102.4,205.4,101.7,205.4,101 M205.4,105
						c0-0.8,0.6-1.4,1.4-1.4c0.8,0,1.4,0.6,1.4,1.4s-0.6,1.4-1.4,1.4C206.1,106.4,205.4,105.7,205.4,105 M205.4,109
						c0-0.8,0.6-1.4,1.4-1.4c0.8,0,1.4,0.6,1.4,1.4s-0.6,1.4-1.4,1.4C206.1,110.4,205.4,109.8,205.4,109 M205.4,113
						c0-0.8,0.6-1.4,1.4-1.4c0.8,0,1.4,0.6,1.4,1.4s-0.6,1.4-1.4,1.4C206.1,114.4,205.4,113.8,205.4,113 M205.4,117
						c0-0.8,0.6-1.4,1.4-1.4c0.8,0,1.4,0.6,1.4,1.4s-0.6,1.4-1.4,1.4C206.1,118.4,205.4,117.8,205.4,117 M209.5,97
						c0-0.8,0.6-1.4,1.4-1.4c0.8,0,1.4,0.6,1.4,1.4s-0.6,1.4-1.4,1.4C210.1,98.3,209.5,97.7,209.5,97 M209.5,101
						c0-0.8,0.6-1.4,1.4-1.4c0.8,0,1.4,0.6,1.4,1.4s-0.6,1.4-1.4,1.4S209.5,101.7,209.5,101 M209.5,105c0-0.8,0.6-1.4,1.4-1.4
						c0.8,0,1.4,0.6,1.4,1.4s-0.6,1.4-1.4,1.4S209.5,105.7,209.5,105 M209.5,109c0-0.8,0.6-1.4,1.4-1.4c0.8,0,1.4,0.6,1.4,1.4
						s-0.6,1.4-1.4,1.4S209.5,109.8,209.5,109 M209.5,113c0-0.8,0.6-1.4,1.4-1.4c0.8,0,1.4,0.6,1.4,1.4s-0.6,1.4-1.4,1.4
						S209.5,113.8,209.5,113 M209.5,117c0-0.8,0.6-1.4,1.4-1.4c0.8,0,1.4,0.6,1.4,1.4s-0.6,1.4-1.4,1.4S209.5,117.8,209.5,117"/>
				</g>
			</g>
		</g>
	</g>
</g>
</svg>
