<?xml version="1.0" encoding="utf-8"?>
<!-- Generator: Adobe Illustrator 22.0.1, SVG Export Plug-In . SVG Version: 6.00 Build 0)  -->
<svg version="1.1" id="Layer_1" xmlns="http://www.w3.org/2000/svg" xmlns:xlink="http://www.w3.org/1999/xlink" x="0px" y="0px"
	 viewBox="0 0 215.6 128.5" style="enable-background:new 0 0 215.6 128.5;" xml:space="preserve">
<style type="text/css">
	.st0{fill:#FFFFFF;}
	.st1{clip-path:url(#SVGID_2_);fill:#38D430;}
	.st2{clip-path:url(#SVGID_4_);fill:#38D430;}
	.st3{clip-path:url(#SVGID_6_);fill:#38D430;}
	.st4{clip-path:url(#SVGID_8_);fill:#38D430;}
	.st5{clip-path:url(#SVGID_10_);fill:#38D430;}
	.st6{clip-path:url(#SVGID_12_);fill:#38D430;}
</style>
<path class="st0" d="M36.7,42.5l-2.4-4.4H20.6l-2.2,4.4H5v-0.1L27.4,1.7h0.8l22.2,40.7v0.1H36.7z M24,29.2h7.3l-3.7-7.6L24,29.2z"/>
<path class="st0" d="M61.5,32.6v9.8H49.9V2.3h18.9c10.7,0,17.4,6.8,17.4,14.9c0,5-2.7,9.7-7.5,12.4l10.1,13h-14l-6.9-9.8h-6.4V32.6z
	 M68.5,23c3.8,0,6.1-2.4,6.1-5.2c0-3-2.6-5.3-6.3-5.3h-6.9V23H68.5z"/>
<polygon class="st0" points="109.2,42.5 97.7,42.5 97.7,12.8 85.8,12.8 85.8,2.3 121.2,2.3 121.2,12.8 109.2,12.8 "/>
<polygon class="st0" points="5.7,84.5 5.7,43.9 6.2,43.9 26.7,58.9 47.3,43.9 47.8,43.9 47.8,84.5 35.9,84.5 35.9,65.5 26.6,72.8 
	26.3,72.8 16.9,65.5 16.9,84.5 "/>
<polygon class="st0" points="49.7,84.5 49.7,44.3 83.9,44.3 83.9,54.6 61.1,54.6 61.1,59.3 78.6,59.3 78.6,69.2 61.1,69.2 
	61.1,74.2 83.9,74.2 83.9,84.5 "/>
<path class="st0" d="M85.7,84.5V44.3h17.8c12.2,0,20.9,8.5,20.9,19.9c0,11.6-8.7,20.3-21,20.3H85.7z M97.4,74.1h5.2
	c5.4,0,9.7-3.2,9.7-9.8c0-3.2-0.9-5.6-2.8-7.2c-1.9-1.6-4.1-2.5-6.7-2.5h-5.4C97.4,54.6,97.4,74.1,97.4,74.1z"/>
<rect x="125.4" y="44.3" class="st0" width="11.8" height="40.2"/>
<path class="st0" d="M167,84.5l-2.4-4.4h-13.7l-2.2,4.4h-13.3v-0.1l22.4-40.7h0.8l22.2,40.7v0.1H167z M154.3,71.2h7.3l-3.7-7.6
	L154.3,71.2z"/>
<path class="st0" d="M9.8,113.1c3.1,3.2,8.3,5.1,12.6,5.1c3.3,0,5.6-1,5.6-3c0-1-0.8-1.7-2.5-2l-6.2-1c-10-1.3-14.6-5.4-14.6-12.4
	c0-8.1,7.8-13.4,17.3-13.4c7.7,0,13.2,2.8,16.5,6.1l-6.3,7.9C30.8,99,29.1,98,27,97.3c-2-0.7-3.9-1.1-5.7-1.1
	c-3.2,0-4.9,1.1-4.9,2.6c0,1,0.8,1.7,2.5,2s3.7,0.7,6,1c9.8,1.4,14.4,5.4,14.4,12.4c0,9.7-9.5,13.9-17.6,13.9
	c-3.4,0-6.7-0.5-10.1-1.6c-3.3-1.1-6.1-2.9-8.3-5.3L9.8,113.1z"/>
<polygon class="st0" points="61.8,127.4 50.2,127.4 50.2,97.8 38.4,97.8 38.4,87.2 73.7,87.2 73.7,97.8 61.8,97.8 "/>
<path class="st0" d="M74.9,87.2h11.7v22.9c0,1.9,0.7,3.6,2.1,4.9c1.5,1.3,3.2,2,5.2,2s3.7-0.7,5-2c1.3-1.4,2-3,2-4.8v-23h11.7v24.1
	c0,8.8-7.4,16.8-18.5,16.8c-10.8,0-19.1-7.3-19.1-16.8L74.9,87.2L74.9,87.2z"/>
<path class="st0" d="M116.1,127.4V87.2h17.8c12.2,0,20.9,8.5,20.9,19.9c0,11.6-8.7,20.3-21,20.3
	C133.8,127.4,116.1,127.4,116.1,127.4z M127.8,117h5.2c5.4,0,9.7-3.2,9.7-9.8c0-3.2-0.9-5.6-2.8-7.2c-1.9-1.6-4.1-2.5-6.7-2.5h-5.4
	C127.8,97.5,127.8,117,127.8,117z"/>
<rect x="157.1" y="87.2" class="st0" width="11.8" height="40.2"/>
<path class="st0" d="M171.2,107.4c0-11.9,9.3-20.9,21.8-20.9s21.8,8.9,21.8,20.8c0,12-9.2,20.8-21.7,20.8S171.2,119.3,171.2,107.4
	 M185.6,114.8c2,2,4.4,3,7.4,3s5.4-1,7.4-3s3-4.5,3-7.5s-1-5.4-3-7.4s-4.4-3.1-7.4-3.1s-5.4,1-7.4,3.1c-2,2-3,4.5-3,7.4
	C182.7,110.3,183.6,112.8,185.6,114.8"/>
<g>
	<g>
		<g>
			<defs>
				<rect id="SVGID_1_" x="0.6" y="89" width="212.1" height="36.9"/>
			</defs>
			<clipPath id="SVGID_2_">
				<use xlink:href="#SVGID_1_"  style="overflow:visible;"/>
			</clipPath>
			<path class="st1" d="M0.6,97h4v1h-4C0.6,98,0.6,97,0.6,97z M0.6,100.9h4v1h-4C0.6,101.9,0.6,100.9,0.6,100.9z M0.6,104.9h4v1h-4
				C0.6,105.9,0.6,104.9,0.6,104.9z M0.6,108.9h4v1h-4C0.6,109.9,0.6,108.9,0.6,108.9z M0.6,120.9h4v1h-4
				C0.6,121.9,0.6,120.9,0.6,120.9z M0.6,124.9h4v1h-4C0.6,125.9,0.6,124.9,0.6,124.9z M4.6,97h4v1h-4C4.6,98,4.6,97,4.6,97z
				 M4.6,100.9h4v1h-4C4.6,101.9,4.6,100.9,4.6,100.9z M4.6,104.9h4v1h-4C4.6,105.9,4.6,104.9,4.6,104.9z M4.6,108.9h4v1h-4
				C4.6,109.9,4.6,108.9,4.6,108.9z M4.6,120.9h4v1h-4C4.6,121.9,4.6,120.9,4.6,120.9z M4.6,124.9h4v1h-4
				C4.6,125.9,4.6,124.9,4.6,124.9z M8.6,89h4v1h-4V89z M8.6,93h4v1h-4V93z M8.6,104.9h4v1h-4V104.9z M8.6,108.9h4v1h-4V108.9z
				 M8.6,120.9h4v1h-4V120.9z M8.6,124.9h4v1h-4V124.9z M12.6,89h4v1h-4V89z M12.6,93h4v1h-4V93z M12.6,104.9h4v1h-4V104.9z
				 M12.6,108.9h4v1h-4V108.9z M12.6,120.9h4v1h-4V120.9z M12.6,124.9h4v1h-4V124.9z M16.6,89h4v1h-4V89z M16.6,93h4v1h-4V93z
				 M16.6,104.9h4v1h-4V104.9z M16.6,108.9h4v1h-4V108.9z M16.6,120.9h4v1h-4V120.9z M16.6,124.9h4v1h-4V124.9z M20.6,89h4v1h-4V89z
				 M20.6,93h4v1h-4V93z M20.6,104.9h4v1h-4V104.9z M20.6,108.9h4v1h-4V108.9z M20.6,120.9h4v1h-4V120.9z M20.6,124.9h4v1h-4V124.9z
				 M24.6,89h4v1h-4V89z M24.6,93h4v1h-4V93z M24.6,104.9h4v1h-4V104.9z M24.6,108.9h4v1h-4V108.9z M24.6,112.9h4v1h-4V112.9z
				 M24.6,116.9h4v1h-4V116.9z M28.6,89h4v1h-4C28.6,90,28.6,89,28.6,89z M28.6,93h4v1h-4C28.6,94,28.6,93,28.6,93z M28.6,104.9h4v1
				h-4C28.6,105.9,28.6,104.9,28.6,104.9z M28.6,108.9h4v1h-4C28.6,109.9,28.6,108.9,28.6,108.9z M28.6,112.9h4v1h-4
				C28.6,113.9,28.6,112.9,28.6,112.9z M28.6,116.9h4v1h-4C28.6,117.9,28.6,116.9,28.6,116.9z"/>
		</g>
		<g>
			<defs>
				<rect id="SVGID_3_" x="0.6" y="89" width="212.1" height="36.9"/>
			</defs>
			<clipPath id="SVGID_4_">
				<use xlink:href="#SVGID_3_"  style="overflow:visible;"/>
			</clipPath>
			<path class="st2" d="M37.8,89h4v1h-4V89z M37.8,93h4v1h-4V93z M41.8,89h4v1h-4V89z M41.8,93h4v1h-4V93z M45.7,89h4v1h-4V89z
				 M45.7,93h4v1h-4V93z M49.7,89h4v1h-4V89z M49.7,93h4v1h-4V93z M49.7,97h4v1h-4V97z M49.7,100.9h4v1h-4V100.9z M49.7,104.9h4v1
				h-4V104.9z M49.7,108.9h4v1h-4V108.9z M49.7,112.9h4v1h-4V112.9z M49.7,116.9h4v1h-4V116.9z M49.7,120.9h4v1h-4V120.9z
				 M49.7,124.9h4v1h-4V124.9z M53.7,89h4v1h-4V89z M53.7,93h4v1h-4V93z M53.7,97h4v1h-4V97z M53.7,100.9h4v1h-4V100.9z M53.7,104.9
				h4v1h-4V104.9z M53.7,108.9h4v1h-4V108.9z M53.7,112.9h4v1h-4V112.9z M53.7,116.9h4v1h-4V116.9z M53.7,120.9h4v1h-4V120.9z
				 M53.7,124.9h4v1h-4V124.9z M57.7,89h4v1h-4V89z M57.7,93h4v1h-4V93z M61.7,89h4v1h-4C61.7,90,61.7,89,61.7,89z M61.7,93h4v1h-4
				C61.7,94,61.7,93,61.7,93z M65.7,89h4v1h-4V89z M65.7,93h4v1h-4V93z"/>
		</g>
		<g>
			<defs>
				<rect id="SVGID_5_" x="0.6" y="89" width="212.1" height="36.9"/>
			</defs>
			<clipPath id="SVGID_6_">
				<use xlink:href="#SVGID_5_"  style="overflow:visible;"/>
			</clipPath>
			<path class="st3" d="M74.9,89h4v1h-4V89z M74.9,93h4v1h-4V93z M74.9,97h4v1h-4V97z M74.9,100.9h4v1h-4V100.9z M74.9,104.9h4v1h-4
				V104.9z M74.9,108.9h4v1h-4V108.9z M74.9,112.9h4v1h-4V112.9z M74.9,116.9h4v1h-4V116.9z M78.9,89h4v1h-4V89z M78.9,93h4v1h-4V93
				z M78.9,97h4v1h-4V97z M78.9,100.9h4v1h-4V100.9z M78.9,104.9h4v1h-4V104.9z M78.9,108.9h4v1h-4V108.9z M78.9,112.9h4v1h-4V112.9
				z M78.9,116.9h4v1h-4V116.9z M82.9,120.9h4v1h-4V120.9z M82.9,124.9h4v1h-4V124.9z M86.9,120.9h4v1h-4V120.9z M86.9,124.9h4v1h-4
				V124.9z M90.9,120.9h4v1h-4V120.9z M90.9,124.9h4v1h-4V124.9z M94.9,120.9h4v1h-4V120.9z M94.9,124.9h4v1h-4V124.9z M98.9,89h4v1
				h-4V89z M98.9,93h4v1h-4V93z M98.9,97h4v1h-4V97z M98.9,100.9h4v1h-4V100.9z M98.9,104.9h4v1h-4V104.9z M98.9,108.9h4v1h-4V108.9
				z M98.9,112.9h4v1h-4V112.9z M98.9,116.9h4v1h-4V116.9z M98.9,120.9h4v1h-4V120.9z M98.9,124.9h4v1h-4V124.9z M102.9,89h4v1h-4
				V89z M102.9,93h4v1h-4V93z M102.9,97h4v1h-4V97z M102.9,100.9h4v1h-4V100.9z M102.9,104.9h4v1h-4V104.9z M102.9,108.9h4v1h-4
				V108.9z M102.9,112.9h4v1h-4V112.9z M102.9,116.9h4v1h-4V116.9z M102.9,120.9h4v1h-4V120.9z M102.9,124.9h4v1h-4V124.9z"/>
		</g>
		<g>
			<defs>
				<rect id="SVGID_7_" x="0.6" y="89" width="212.1" height="36.9"/>
			</defs>
			<clipPath id="SVGID_8_">
				<use xlink:href="#SVGID_7_"  style="overflow:visible;"/>
			</clipPath>
			<path class="st4" d="M113.4,89h4v1h-4V89z M113.4,93h4v1h-4V93z M113.4,97h4v1h-4V97z M113.4,100.9h4v1h-4V100.9z M113.4,104.9h4
				v1h-4V104.9z M113.4,108.9h4v1h-4V108.9z M113.4,112.9h4v1h-4V112.9z M113.4,116.9h4v1h-4V116.9z M113.4,120.9h4v1h-4V120.9z
				 M113.4,124.9h4v1h-4V124.9z M117.4,89h4v1h-4V89z M117.4,93h4v1h-4V93z M117.4,97h4v1h-4V97z M117.4,100.9h4v1h-4V100.9z
				 M117.4,104.9h4v1h-4V104.9z M117.4,108.9h4v1h-4V108.9z M117.4,112.9h4v1h-4V112.9z M117.4,116.9h4v1h-4V116.9z M117.4,120.9h4
				v1h-4V120.9z M117.4,124.9h4v1h-4V124.9z M121.4,89h4v1h-4V89z M121.4,93h4v1h-4V93z M121.4,120.9h4v1h-4V120.9z M121.4,124.9h4
				v1h-4V124.9z M125.4,89h4v1h-4C125.4,90,125.4,89,125.4,89z M125.4,93h4v1h-4C125.4,94,125.4,93,125.4,93z M125.4,120.9h4v1h-4
				C125.4,121.9,125.4,120.9,125.4,120.9z M125.4,124.9h4v1h-4C125.4,125.9,125.4,124.9,125.4,124.9z M129.4,89h4v1h-4V89z
				 M129.4,93h4v1h-4V93z M129.4,120.9h4v1h-4V120.9z M129.4,124.9h4v1h-4V124.9z M133.4,89h4v1h-4V89z M133.4,93h4v1h-4V93z
				 M133.4,120.9h4v1h-4V120.9z M133.4,124.9h4v1h-4V124.9z M137.4,97h4v1h-4V97z M137.4,100.9h4v1h-4V100.9z M137.4,104.9h4v1h-4
				V104.9z M137.4,108.9h4v1h-4V108.9z M137.4,112.9h4v1h-4V112.9z M137.4,116.9h4v1h-4V116.9z M141.4,97h4v1h-4V97z M141.4,100.9h4
				v1h-4V100.9z M141.4,104.9h4v1h-4V104.9z M141.4,108.9h4v1h-4V108.9z M141.4,112.9h4v1h-4V112.9z M141.4,116.9h4v1h-4V116.9z"/>
		</g>
		<g>
			<defs>
				<rect id="SVGID_9_" x="0.6" y="89" width="212.1" height="36.9"/>
			</defs>
			<clipPath id="SVGID_10_">
				<use xlink:href="#SVGID_9_"  style="overflow:visible;"/>
			</clipPath>
			<path class="st5" d="M151.8,89h4v1h-4V89z M151.8,93h4v1h-4V93z M151.8,120.9h4v1h-4V120.9z M151.8,124.9h4v1h-4V124.9z
				 M155.8,89h4v1h-4V89z M155.8,93h4v1h-4V93z M155.8,120.9h4v1h-4V120.9z M155.8,124.9h4v1h-4V124.9z M159.8,89h4v1h-4V89z
				 M159.8,93h4v1h-4V93z M159.8,97h4v1h-4V97z M159.8,100.9h4v1h-4V100.9z M159.8,104.9h4v1h-4V104.9z M159.8,108.9h4v1h-4V108.9z
				 M159.8,112.9h4v1h-4V112.9z M159.8,116.9h4v1h-4V116.9z M159.8,120.9h4v1h-4V120.9z M159.8,124.9h4v1h-4V124.9z M163.8,89h4v1
				h-4V89z M163.8,93h4v1h-4V93z M163.8,97h4v1h-4V97z M163.8,100.9h4v1h-4V100.9z M163.8,104.9h4v1h-4V104.9z M163.8,108.9h4v1h-4
				V108.9z M163.8,112.9h4v1h-4V112.9z M163.8,116.9h4v1h-4V116.9z M163.8,120.9h4v1h-4V120.9z M163.8,124.9h4v1h-4V124.9z
				 M167.8,89h4v1h-4V89z M167.8,93h4v1h-4V93z M167.8,120.9h4v1h-4V120.9z M167.8,124.9h4v1h-4V124.9z M171.8,89h4v1h-4V89z
				 M171.8,93h4v1h-4V93z M171.8,120.9h4v1h-4V120.9z M171.8,124.9h4v1h-4V124.9z"/>
		</g>
		<g>
			<defs>
				<rect id="SVGID_11_" x="0.6" y="89" width="212.1" height="36.9"/>
			</defs>
			<clipPath id="SVGID_12_">
				<use xlink:href="#SVGID_11_"  style="overflow:visible;"/>
			</clipPath>
			<path class="st6" d="M180.8,97h4v1h-4V97z M180.8,100.9h4v1h-4V100.9z M180.8,104.9h4v1h-4V104.9z M180.8,108.9h4v1h-4V108.9z
				 M180.8,112.9h4v1h-4V112.9z M180.8,116.9h4v1h-4V116.9z M184.7,97h4v1h-4V97z M184.7,100.9h4v1h-4V100.9z M184.7,104.9h4v1h-4
				V104.9z M184.7,108.9h4v1h-4V108.9z M184.7,112.9h4v1h-4V112.9z M184.7,116.9h4v1h-4V116.9z M188.7,89h4v1h-4V89z M188.7,93h4v1
				h-4V93z M188.7,120.9h4v1h-4V120.9z M188.7,124.9h4v1h-4V124.9z M192.7,89h4v1h-4V89z M192.7,93h4v1h-4V93z M192.7,120.9h4v1h-4
				V120.9z M192.7,124.9h4v1h-4V124.9z M196.7,89h4v1h-4V89z M196.7,93h4v1h-4V93z M196.7,120.9h4v1h-4V120.9z M196.7,124.9h4v1h-4
				V124.9z M200.7,89h4v1h-4V89z M200.7,93h4v1h-4V93z M200.7,120.9h4v1h-4V120.9z M200.7,124.9h4v1h-4V124.9z M204.7,97h4v1h-4V97z
				 M204.7,100.9h4v1h-4V100.9z M204.7,104.9h4v1h-4V104.9z M204.7,108.9h4v1h-4V108.9z M204.7,112.9h4v1h-4V112.9z M204.7,116.9h4
				v1h-4V116.9z M208.7,97h4v1h-4V97z M208.7,100.9h4v1h-4V100.9z M208.7,104.9h4v1h-4V104.9z M208.7,108.9h4v1h-4V108.9z
				 M208.7,112.9h4v1h-4V112.9z M208.7,116.9h4v1h-4V116.9z"/>
		</g>
	</g>
</g>
</svg>
