<?xml version="1.0" encoding="utf-8"?>
<!-- Generator: Adobe Illustrator 22.0.1, SVG Export Plug-In . SVG Version: 6.00 Build 0)  -->
<svg version="1.1" id="Layer_1" xmlns="http://www.w3.org/2000/svg" xmlns:xlink="http://www.w3.org/1999/xlink" x="0px" y="0px"
	 viewBox="0 0 215.6 128.5" style="enable-background:new 0 0 215.6 128.5;" xml:space="preserve">
<style type="text/css">
	.st0{fill:#221F1F;}
	.st1{clip-path:url(#SVGID_2_);fill:#F6E931;}
</style>
<g>
	<path class="st0" d="M35.8,41.9l-2.4-4.4H19.6l-2.3,4.4H3.9v-0.1L26.5,0.9h0.8l22.3,40.9v0.1H35.8z M23,28.5h7.4l-3.7-7.6L23,28.5z
		"/>
	<path class="st0" d="M60.7,32v9.9H49.1V1.4h19c10.8,0,17.5,6.8,17.5,15c0,5.1-2.8,9.8-7.5,12.4l10.1,13H74.2l-7-9.9H60.7z
		 M67.8,22.3c3.8,0,6.2-2.4,6.2-5.2c0-3-2.6-5.3-6.3-5.3h-6.9v10.6H67.8z"/>
	<polygon class="st0" points="108.8,41.9 97.2,41.9 97.2,12.1 85.2,12.1 85.2,1.4 120.8,1.4 120.8,12.1 108.8,12.1 	"/>
	<polygon class="st0" points="4.7,84.2 4.7,43.4 5.1,43.4 25.8,58.4 46.5,43.4 47,43.4 47,84.2 35,84.2 35,65 25.7,72.4 25.3,72.4 
		15.9,65 15.9,84.2 	"/>
	<polygon class="st0" points="48.9,84.2 48.9,43.7 83.3,43.7 83.3,54.1 60.3,54.1 60.3,58.9 77.9,58.9 77.9,68.8 60.3,68.8 
		60.3,73.8 83.3,73.8 83.3,84.2 	"/>
	<path class="st0" d="M85.1,84.2V43.7H103c12.3,0,21,8.6,21,20c0,11.7-8.7,20.4-21.1,20.4H85.1z M96.9,73.7h5.2
		c5.4,0,9.8-3.2,9.8-9.9c0-3.2-0.9-5.7-2.8-7.3c-1.9-1.7-4.1-2.5-6.8-2.5h-5.4V73.7z"/>
	<rect x="125" y="43.7" class="st0" width="11.8" height="40.4"/>
	<path class="st0" d="M166.9,84.2l-2.4-4.4h-13.8l-2.3,4.4h-13.4v-0.1l22.6-40.9h0.8l22.3,40.9v0.1H166.9z M154.1,70.8h7.4l-3.7-7.6
		L154.1,70.8z"/>
	<path class="st0" d="M8.7,113c3.1,3.2,8.4,5.2,12.7,5.2c3.3,0,5.7-1,5.7-3c0-1-0.8-1.8-2.5-2l-6.3-1c-10.1-1.3-14.7-5.4-14.7-12.5
		c0-8.1,7.9-13.5,17.4-13.5c7.8,0,13.3,2.8,16.6,6.1l-6.4,7.9c-1.4-1.4-3.1-2.5-5.2-3.2c-2-0.7-3.9-1.1-5.7-1.1c-3.2,0-5,1.2-5,2.6
		c0,1,0.8,1.7,2.5,2c1.7,0.3,3.7,0.7,6.1,1c9.9,1.4,14.5,5.4,14.5,12.4c0,9.7-9.5,14-17.7,14c-3.4,0-6.8-0.6-10.1-1.7
		c-3.3-1.2-6.1-2.9-8.4-5.3L8.7,113z"/>
	<polygon class="st0" points="61.1,127.4 49.4,127.4 49.4,97.5 37.5,97.5 37.5,86.9 73.1,86.9 73.1,97.5 61.1,97.5 	"/>
	<path class="st0" d="M74.3,86.9H86V110c0,1.9,0.7,3.6,2.1,4.9c1.5,1.3,3.2,2,5.2,2c2,0,3.7-0.7,5-2c1.3-1.4,2-3,2-4.8V86.9h11.8
		v24.3c0,8.9-7.4,16.9-18.7,16.9c-10.8,0-19.3-7.3-19.3-16.9V86.9z"/>
	<path class="st0" d="M115.7,127.4V86.9h17.9c12.3,0,21,8.6,21,20c0,11.7-8.7,20.4-21.1,20.4H115.7z M127.5,116.9h5.2
		c5.4,0,9.8-3.2,9.8-9.9c0-3.2-0.9-5.7-2.8-7.3c-1.9-1.7-4.1-2.5-6.8-2.5h-5.4V116.9z"/>
	<rect x="157" y="86.9" class="st0" width="11.8" height="40.4"/>
	<path class="st0" d="M171.2,107.2c0-12,9.4-21,21.9-21c12.5,0,21.9,9,21.9,20.9c0,12.1-9.3,20.9-21.8,20.9
		C180.6,128,171.2,119.2,171.2,107.2 M185.7,114.7c2,2,4.5,3,7.4,3c3,0,5.4-1,7.4-3c2-2,3-4.6,3-7.6c0-3-1-5.4-3-7.5
		c-2-2-4.5-3.1-7.4-3.1c-3,0-5.4,1-7.4,3.1c-2,2-3,4.5-3,7.5C182.7,110.1,183.7,112.7,185.7,114.7"/>
	<g>
		<g>
			<defs>
				<rect id="SVGID_1_" x="0.5" y="88.2" width="211.4" height="38.2"/>
			</defs>
			<clipPath id="SVGID_2_">
				<use xlink:href="#SVGID_1_"  style="overflow:visible;"/>
			</clipPath>
			<path class="st1" d="M0.5,96.2h2v2h-2V96.2z M0.5,100.2h2v2h-2V100.2z M0.5,104.2h2v2h-2V104.2z M0.5,108.3h2v2h-2V108.3z
				 M0.5,120.3h2v2h-2V120.3z M0.5,124.3h2v2h-2V124.3z M4.5,96.2h2v2h-2V96.2z M4.5,100.2h2v2h-2V100.2z M4.5,104.2h2v2h-2V104.2z
				 M4.5,108.3h2v2h-2V108.3z M4.5,120.3h2v2h-2V120.3z M4.5,124.3h2v2h-2V124.3z M8.5,88.2h2v2h-2V88.2z M8.5,92.2h2v2h-2V92.2z
				 M8.5,104.2h2v2h-2V104.2z M8.5,108.3h2v2h-2V108.3z M8.5,120.3h2v2h-2V120.3z M8.5,124.3h2v2h-2V124.3z M12.6,88.2h2v2h-2V88.2z
				 M12.6,92.2h2v2h-2V92.2z M12.6,104.2h2v2h-2V104.2z M12.6,108.3h2v2h-2V108.3z M12.6,120.3h2v2h-2V120.3z M12.6,124.3h2v2h-2
				V124.3z M16.6,88.2h2v2h-2V88.2z M16.6,92.2h2v2h-2V92.2z M16.6,104.2h2v2h-2V104.2z M16.6,108.3h2v2h-2V108.3z M16.6,120.3h2v2
				h-2V120.3z M16.6,124.3h2v2h-2V124.3z M20.6,88.2h2v2h-2V88.2z M20.6,92.2h2v2h-2V92.2z M20.6,104.2h2v2h-2V104.2z M20.6,108.3h2
				v2h-2V108.3z M20.6,120.3h2v2h-2V120.3z M20.6,124.3h2v2h-2V124.3z M24.6,88.2h2v2h-2V88.2z M24.6,92.2h2v2h-2V92.2z M24.6,104.2
				h2v2h-2V104.2z M24.6,108.3h2v2h-2V108.3z M24.6,112.3h2v2h-2V112.3z M24.6,116.3h2v2h-2V116.3z M28.6,88.2h2v2h-2V88.2z
				 M28.6,92.2h2v2h-2V92.2z M28.6,104.2h2v2h-2V104.2z M28.6,108.3h2v2h-2V108.3z M28.6,112.3h2v2h-2V112.3z M28.6,116.3h2v2h-2
				V116.3z"/>
			<path class="st1" d="M37.9,88.2h2v2h-2V88.2z M37.9,92.2h2v2h-2V92.2z M41.9,88.2h2v2h-2V88.2z M41.9,92.2h2v2h-2V92.2z
				 M45.9,88.2h2v2h-2V88.2z M45.9,92.2h2v2h-2V92.2z M49.9,88.2h2v2h-2V88.2z M49.9,92.2h2v2h-2V92.2z M49.9,96.2h2v2h-2V96.2z
				 M49.9,100.2h2v2h-2V100.2z M49.9,104.2h2v2h-2V104.2z M49.9,108.3h2v2h-2V108.3z M49.9,112.3h2v2h-2V112.3z M49.9,116.3h2v2h-2
				V116.3z M49.9,120.3h2v2h-2V120.3z M49.9,124.3h2v2h-2V124.3z M54,88.2h2v2h-2V88.2z M54,92.2h2v2h-2V92.2z M54,96.2h2v2h-2V96.2
				z M54,100.2h2v2h-2V100.2z M54,104.2h2v2h-2V104.2z M54,108.3h2v2h-2V108.3z M54,112.3h2v2h-2V112.3z M54,116.3h2v2h-2V116.3z
				 M54,120.3h2v2h-2V120.3z M54,124.3h2v2h-2V124.3z M58,88.2h2v2h-2V88.2z M58,92.2h2v2h-2V92.2z M62,88.2h2v2h-2V88.2z M62,92.2
				h2v2h-2V92.2z M66,88.2h2v2h-2V88.2z M66,92.2h2v2h-2V92.2z"/>
			<path class="st1" d="M75.3,88.2h2v2h-2V88.2z M75.3,92.2h2v2h-2V92.2z M75.3,96.2h2v2h-2V96.2z M75.3,100.2h2v2h-2V100.2z
				 M75.3,104.2h2v2h-2V104.2z M75.3,108.3h2v2h-2V108.3z M75.3,112.3h2v2h-2V112.3z M75.3,116.3h2v2h-2V116.3z M79.3,88.2h2v2h-2
				V88.2z M79.3,92.2h2v2h-2V92.2z M79.3,96.2h2v2h-2V96.2z M79.3,100.2h2v2h-2V100.2z M79.3,104.2h2v2h-2V104.2z M79.3,108.3h2v2
				h-2V108.3z M79.3,112.3h2v2h-2V112.3z M79.3,116.3h2v2h-2V116.3z M83.3,120.3h2v2h-2V120.3z M83.3,124.3h2v2h-2V124.3z
				 M87.3,120.3h2v2h-2V120.3z M87.3,124.3h2v2h-2V124.3z M91.3,120.3h2v2h-2V120.3z M91.3,124.3h2v2h-2V124.3z M95.4,120.3h2v2h-2
				V120.3z M95.4,124.3h2v2h-2V124.3z M99.4,88.2h2v2h-2V88.2z M99.4,92.2h2v2h-2V92.2z M99.4,96.2h2v2h-2V96.2z M99.4,100.2h2v2h-2
				V100.2z M99.4,104.2h2v2h-2V104.2z M99.4,108.3h2v2h-2V108.3z M99.4,112.3h2v2h-2V112.3z M99.4,116.3h2v2h-2V116.3z M99.4,120.3
				h2v2h-2V120.3z M99.4,124.3h2v2h-2V124.3z M103.4,88.2h2v2h-2V88.2z M103.4,92.2h2v2h-2V92.2z M103.4,96.2h2v2h-2V96.2z
				 M103.4,100.2h2v2h-2V100.2z M103.4,104.2h2v2h-2V104.2z M103.4,108.3h2v2h-2V108.3z M103.4,112.3h2v2h-2V112.3z M103.4,116.3h2
				v2h-2V116.3z M103.4,120.3h2v2h-2V120.3z M103.4,124.3h2v2h-2V124.3z"/>
			<path class="st1" d="M114.1,88.2h2v2h-2V88.2z M114.1,92.2h2v2h-2V92.2z M114.1,96.2h2v2h-2V96.2z M114.1,100.2h2v2h-2V100.2z
				 M114.1,104.2h2v2h-2V104.2z M114.1,108.3h2v2h-2V108.3z M114.1,112.3h2v2h-2V112.3z M114.1,116.3h2v2h-2V116.3z M114.1,120.3h2
				v2h-2V120.3z M114.1,124.3h2v2h-2V124.3z M118.1,88.2h2v2h-2V88.2z M118.1,92.2h2v2h-2V92.2z M118.1,96.2h2v2h-2V96.2z
				 M118.1,100.2h2v2h-2V100.2z M118.1,104.2h2v2h-2V104.2z M118.1,108.3h2v2h-2V108.3z M118.1,112.3h2v2h-2V112.3z M118.1,116.3h2
				v2h-2V116.3z M118.1,120.3h2v2h-2V120.3z M118.1,124.3h2v2h-2V124.3z M122.1,88.2h2v2h-2V88.2z M122.1,92.2h2v2h-2V92.2z
				 M122.1,120.3h2v2h-2V120.3z M122.1,124.3h2v2h-2V124.3z M126.1,88.2h2v2h-2V88.2z M126.1,92.2h2v2h-2V92.2z M126.1,120.3h2v2h-2
				V120.3z M126.1,124.3h2v2h-2V124.3z M130.1,88.2h2v2h-2V88.2z M130.1,92.2h2v2h-2V92.2z M130.1,120.3h2v2h-2V120.3z M130.1,124.3
				h2v2h-2V124.3z M134.2,88.2h2v2h-2V88.2z M134.2,92.2h2v2h-2V92.2z M134.2,120.3h2v2h-2V120.3z M134.2,124.3h2v2h-2V124.3z
				 M138.2,96.2h2v2h-2V96.2z M138.2,100.2h2v2h-2V100.2z M138.2,104.2h2v2h-2V104.2z M138.2,108.3h2v2h-2V108.3z M138.2,112.3h2v2
				h-2V112.3z M138.2,116.3h2v2h-2V116.3z M142.2,96.2h2v2h-2V96.2z M142.2,100.2h2v2h-2V100.2z M142.2,104.2h2v2h-2V104.2z
				 M142.2,108.3h2v2h-2V108.3z M142.2,112.3h2v2h-2V112.3z M142.2,116.3h2v2h-2V116.3z"/>
			<path class="st1" d="M152.7,88.2h2v2h-2V88.2z M152.7,92.2h2v2h-2V92.2z M152.7,120.3h2v2h-2V120.3z M152.7,124.3h2v2h-2V124.3z
				 M156.7,88.2h2v2h-2V88.2z M156.7,92.2h2v2h-2V92.2z M156.7,120.3h2v2h-2V120.3z M156.7,124.3h2v2h-2V124.3z M160.7,88.2h2v2h-2
				V88.2z M160.7,92.2h2v2h-2V92.2z M160.7,96.2h2v2h-2V96.2z M160.7,100.2h2v2h-2V100.2z M160.7,104.2h2v2h-2V104.2z M160.7,108.3
				h2v2h-2V108.3z M160.7,112.3h2v2h-2V112.3z M160.7,116.3h2v2h-2V116.3z M160.7,120.3h2v2h-2V120.3z M160.7,124.3h2v2h-2V124.3z
				 M164.7,88.2h2v2h-2V88.2z M164.7,92.2h2v2h-2V92.2z M164.7,96.2h2v2h-2V96.2z M164.7,100.2h2v2h-2V100.2z M164.7,104.2h2v2h-2
				V104.2z M164.7,108.3h2v2h-2V108.3z M164.7,112.3h2v2h-2V112.3z M164.7,116.3h2v2h-2V116.3z M164.7,120.3h2v2h-2V120.3z
				 M164.7,124.3h2v2h-2V124.3z M168.7,88.2h2v2h-2V88.2z M168.7,92.2h2v2h-2V92.2z M168.7,120.3h2v2h-2V120.3z M168.7,124.3h2v2h-2
				V124.3z M172.7,88.2h2v2h-2V88.2z M172.7,92.2h2v2h-2V92.2z M172.7,120.3h2v2h-2V120.3z M172.7,124.3h2v2h-2V124.3z"/>
			<path class="st1" d="M181.8,96.2h2v2h-2V96.2z M181.8,100.2h2v2h-2V100.2z M181.8,104.2h2v2h-2V104.2z M181.8,108.3h2v2h-2V108.3
				z M181.8,112.3h2v2h-2V112.3z M181.8,116.3h2v2h-2V116.3z M185.8,96.2h2v2h-2V96.2z M185.8,100.2h2v2h-2V100.2z M185.8,104.2h2v2
				h-2V104.2z M185.8,108.3h2v2h-2V108.3z M185.8,112.3h2v2h-2V112.3z M185.8,116.3h2v2h-2V116.3z M189.8,88.2h2v2h-2V88.2z
				 M189.8,92.2h2v2h-2V92.2z M189.8,120.3h2v2h-2V120.3z M189.8,124.3h2v2h-2V124.3z M193.9,88.2h2v2h-2V88.2z M193.9,92.2h2v2h-2
				V92.2z M193.9,120.3h2v2h-2V120.3z M193.9,124.3h2v2h-2V124.3z M197.9,88.2h2v2h-2V88.2z M197.9,92.2h2v2h-2V92.2z M197.9,120.3
				h2v2h-2V120.3z M197.9,124.3h2v2h-2V124.3z M201.9,88.2h2v2h-2V88.2z M201.9,92.2h2v2h-2V92.2z M201.9,120.3h2v2h-2V120.3z
				 M201.9,124.3h2v2h-2V124.3z M205.9,96.2h2v2h-2V96.2z M205.9,100.2h2v2h-2V100.2z M205.9,104.2h2v2h-2V104.2z M205.9,108.3h2v2
				h-2V108.3z M205.9,112.3h2v2h-2V112.3z M205.9,116.3h2v2h-2V116.3z M209.9,96.2h2v2h-2V96.2z M209.9,100.2h2v2h-2V100.2z
				 M209.9,104.2h2v2h-2V104.2z M209.9,108.3h2v2h-2V108.3z M209.9,112.3h2v2h-2V112.3z M209.9,116.3h2v2h-2V116.3z"/>
		</g>
	</g>
</g>
</svg>
