<?xml version="1.0" encoding="utf-8"?>
<!-- Generator: Adobe Illustrator 22.0.1, SVG Export Plug-In . SVG Version: 6.00 Build 0)  -->
<svg version="1.1" id="Layer_1" xmlns="http://www.w3.org/2000/svg" xmlns:xlink="http://www.w3.org/1999/xlink" x="0px" y="0px"
	 viewBox="0 0 215.6 128.5" style="enable-background:new 0 0 215.6 128.5;" xml:space="preserve">
<style type="text/css">
	.st0{fill:#FFFFFF;}
	.st1{clip-path:url(#SVGID_2_);fill:#29ABE2;}
	.st2{clip-path:url(#SVGID_4_);fill:#29ABE2;}
	.st3{clip-path:url(#SVGID_6_);fill:#29ABE2;}
	.st4{clip-path:url(#SVGID_8_);fill:#29ABE2;}
	.st5{clip-path:url(#SVGID_10_);fill:#29ABE2;}
	.st6{clip-path:url(#SVGID_12_);fill:#29ABE2;}
</style>
<path class="st0" d="M36.6,42.4L34.2,38H20.4l-2.2,4.4H4.8v-0.1L27.3,1.6h0.8l22.2,40.8v0.1L36.6,42.4L36.6,42.4z M23.8,29.1h7.3
	l-3.7-7.6L23.8,29.1z"/>
<path class="st0" d="M61.4,32.5v9.9H49.8V2.1h19c10.7,0,17.5,6.8,17.5,14.9c0,5-2.7,9.8-7.5,12.4l10.1,13h-14l-7-9.9H61.4z
	 M68.4,22.9c3.8,0,6.1-2.4,6.1-5.2c0-3-2.6-5.3-6.3-5.3h-6.9v10.5C61.3,22.9,68.4,22.9,68.4,22.9z"/>
<polygon class="st0" points="109.3,42.4 97.6,42.4 97.6,12.7 85.8,12.7 85.8,2.1 121.2,2.1 121.2,12.7 109.3,12.7 "/>
<polygon class="st0" points="5.5,84.5 5.5,43.9 6,43.9 26.6,58.8 47.2,43.9 47.7,43.9 47.7,84.5 35.7,84.5 35.7,65.5 26.5,72.8 
	26.1,72.8 16.8,65.5 16.8,84.5 "/>
<polygon class="st0" points="49.6,84.5 49.6,44.2 83.8,44.2 83.8,54.5 61,54.5 61,59.3 78.5,59.3 78.5,69.2 61,69.2 61,74.2 
	83.8,74.2 83.8,84.5 "/>
<path class="st0" d="M85.6,84.5V44.2h17.9c12.3,0,20.9,8.5,20.9,19.9c0,11.6-8.7,20.3-21,20.3H85.6V84.5z M97.4,74.1h5.2
	c5.4,0,9.8-3.2,9.8-9.9c0-3.2-0.9-5.6-2.8-7.2c-1.9-1.6-4.1-2.5-6.7-2.5h-5.4L97.4,74.1L97.4,74.1z"/>
<rect x="125.4" y="44.2" class="st0" width="11.8" height="40.3"/>
<path class="st0" d="M167.1,84.5l-2.4-4.4H151l-2.2,4.4h-13.4v-0.1l22.5-40.8h0.8l22.2,40.8v0.1H167.1z M154.4,71.2h7.3l-3.7-7.6
	L154.4,71.2z"/>
<path class="st0" d="M9.6,113.2c3.1,3.2,8.3,5.2,12.7,5.2c3.3,0,5.6-1,5.6-3c0-1-0.8-1.8-2.5-2l-6.2-1C9.1,111.1,4.5,107,4.5,100
	c0-8.1,7.8-13.4,17.4-13.4c7.7,0,13.3,2.8,16.5,6.1l-6.4,7.9c-1.4-1.4-3.1-2.5-5.2-3.2c-2-0.7-3.9-1.1-5.7-1.1
	c-3.2,0-4.9,1.1-4.9,2.6c0,1,0.8,1.7,2.5,2s3.7,0.7,6,1c9.9,1.4,14.4,5.4,14.4,12.4c0,9.7-9.5,14-17.6,14c-3.4,0-6.7-0.6-10.1-1.6
	c-3.3-1.2-6.1-2.9-8.3-5.3L9.6,113.2z"/>
<polygon class="st0" points="61.7,127.5 50.1,127.5 50.1,97.8 38.2,97.8 38.2,87.2 73.7,87.2 73.7,97.8 61.7,97.8 "/>
<path class="st0" d="M74.8,87.2h11.7v23c0,1.9,0.7,3.6,2.1,4.9c1.5,1.3,3.2,2,5.2,2s3.7-0.7,5-2c1.3-1.4,2-3,2-4.8v-23h11.7v24.2
	c0,8.8-7.4,16.8-18.6,16.8c-10.8,0-19.2-7.3-19.2-16.8V87.2H74.8z"/>
<path class="st0" d="M116.1,127.5V87.2H134c12.3,0,20.9,8.5,20.9,19.9c0,11.6-8.7,20.3-21,20.3h-17.8
	C116.1,127.4,116.1,127.5,116.1,127.5z M127.8,117.1h5.2c5.4,0,9.8-3.2,9.8-9.9c0-3.2-0.9-5.6-2.8-7.2c-1.9-1.6-4.1-2.5-6.7-2.5
	h-5.4L127.8,117.1L127.8,117.1z"/>
<rect x="157.3" y="87.2" class="st0" width="11.8" height="40.3"/>
<path class="st0" d="M171.4,107.5c0-11.9,9.3-20.9,21.8-20.9s21.8,8.9,21.8,20.8c0,12.1-9.3,20.8-21.8,20.8
	C180.8,128.2,171.4,119.4,171.4,107.5 M185.8,114.9c2,2,4.4,3,7.4,3s5.4-1,7.4-3s3-4.5,3-7.6c0-3-1-5.4-3-7.5c-2-2-4.4-3.1-7.4-3.1
	s-5.4,1-7.4,3.1c-2,2-3,4.5-3,7.5C182.8,110.4,183.8,112.9,185.8,114.9"/>
<g>
	<g>
		<g>
			<g>
				<defs>
					<rect id="SVGID_1_" x="0.4" y="87.5" width="212.5" height="40"/>
				</defs>
				<clipPath id="SVGID_2_">
					<use xlink:href="#SVGID_1_"  style="overflow:visible;"/>
				</clipPath>
				<path class="st1" d="M4.4,95.5h4l-8,8v-4L4.4,95.5z M8.4,99.5v4l-8,8v-4L8.4,99.5z M4.4,119.5h4l-8,8v-4L4.4,119.5z M4.4,111.5
					l8-8h4l-8,8H4.4z M12.4,119.5h4l-8,8h-4L12.4,119.5z M8.4,91.5l4-4h4l-8,8V91.5z M20.4,87.5h4l-8,8h-4L20.4,87.5z M12.4,111.5
					l8-8h4l-8,8H12.4z M20.4,119.5h4l-8,8h-4L20.4,119.5z M20.4,95.5l8-8h4l-8,8H20.4z M20.4,111.5l8-8h4l-8,8H20.4z M24.4,123.5v4
					h-4L24.4,123.5z M32.4,107.5v4l-8,8v-4L32.4,107.5z M28.4,95.5l4-4v4H28.4z M28.4,119.5l4-4v4H28.4z"/>
			</g>
		</g>
		<g>
			<g>
				<defs>
					<rect id="SVGID_3_" x="0.4" y="87.5" width="212.5" height="40"/>
				</defs>
				<clipPath id="SVGID_4_">
					<use xlink:href="#SVGID_3_"  style="overflow:visible;"/>
				</clipPath>
				<path class="st2" d="M41.6,87.5h4l-8,8v-4L41.6,87.5z M41.6,95.5l8-8h4l-8,8H41.6z M57.6,87.5h4l-12,12v-4L57.6,87.5z
					 M57.6,95.5v4l-8,8v-4L57.6,95.5z M49.6,111.5l8-8v4l-8,8V111.5z M49.6,119.5l8-8v4l-8,8V119.5z M49.6,127.5l8-8v4l-4,4H49.6z
					 M57.6,95.5l8-8h4l-8,8H57.6z M69.6,91.5v4h-4L69.6,91.5z"/>
			</g>
		</g>
		<g>
			<g>
				<defs>
					<rect id="SVGID_5_" x="0.4" y="87.5" width="212.5" height="40"/>
				</defs>
				<clipPath id="SVGID_6_">
					<use xlink:href="#SVGID_5_"  style="overflow:visible;"/>
				</clipPath>
				<path class="st3" d="M74.9,91.5l4-4h4l-8,8V91.5z M82.9,91.5v4l-8,8v-4L82.9,91.5z M82.9,99.5v4l-8,8v-4L82.9,99.5z M74.9,115.5
					l8-8v4l-8,8V115.5z M78.9,119.5l4-4v4H78.9z M86.9,119.5h4l-8,8v-4L86.9,119.5z M94.9,119.5h4l-8,8h-4L94.9,119.5z M94.9,127.5
					l12-12v4l-8,8H94.9z M98.9,91.5l4-4h4l-8,8V91.5z M106.9,91.5v4l-8,8v-4L106.9,91.5z M106.9,99.5v4l-8,8v-4L106.9,99.5z
					 M98.9,115.5l8-8v4l-8,8V115.5z M106.9,123.5v4h-4L106.9,123.5z"/>
			</g>
		</g>
		<g>
			<g>
				<defs>
					<rect id="SVGID_7_" x="0.4" y="87.5" width="212.5" height="40"/>
				</defs>
				<clipPath id="SVGID_8_">
					<use xlink:href="#SVGID_7_"  style="overflow:visible;"/>
				</clipPath>
				<path class="st4" d="M113.5,99.5l12-12h4l-16,16V99.5z M117.5,87.5h4l-8,8v-4L117.5,87.5z M121.5,99.5v4l-8,8v-4L121.5,99.5z
					 M113.5,115.5l8-8v4l-8,8V115.5z M113.5,123.5l8-8v4l-8,8V123.5z M125.5,119.5h4l-8,8h-4L125.5,119.5z M133.5,87.5h4l-8,8h-4
					L133.5,87.5z M133.5,119.5h4l-8,8h-4L133.5,119.5z M137.5,91.5v4h-4L137.5,91.5z M137.5,123.5v4h-4L137.5,123.5z M137.5,99.5
					l4-4h4l-8,8V99.5z M137.5,107.5l8-8v4l-8,8V107.5z M137.5,115.5l8-8v4l-8,8V115.5z M145.5,115.5v4h-4L145.5,115.5z"/>
			</g>
		</g>
		<g>
			<g>
				<defs>
					<rect id="SVGID_9_" x="0.4" y="87.5" width="212.5" height="40"/>
				</defs>
				<clipPath id="SVGID_10_">
					<use xlink:href="#SVGID_9_"  style="overflow:visible;"/>
				</clipPath>
				<path class="st5" d="M151.9,95.5l8-8h4l-8,8H151.9z M151.9,87.5h4l-4,4V87.5z M151.9,127.5l16-16v4l-12,12H151.9z M151.9,119.5
					h4l-4,4V119.5z M167.9,87.5h4l-12,12v-4L167.9,87.5z M167.9,95.5v4l-8,8v-4L167.9,95.5z M159.9,111.5l8-8v4l-8,8V111.5z
					 M159.9,127.5l8-8h4l-8,8H159.9z M167.9,95.5l8-8v4l-4,4H167.9z M167.9,127.5l8-8v4l-4,4H167.9z"/>
			</g>
		</g>
		<g>
			<g>
				<defs>
					<rect id="SVGID_11_" x="0.4" y="87.5" width="212.5" height="40"/>
				</defs>
				<clipPath id="SVGID_12_">
					<use xlink:href="#SVGID_11_"  style="overflow:visible;"/>
				</clipPath>
				<path class="st6" d="M184.9,95.5h4l-8,8v-4L184.9,95.5z M188.9,99.5v4l-8,8v-4L188.9,99.5z M180.9,115.5l8-8v4l-8,8V115.5z
					 M184.9,119.5l4-4v4H184.9z M188.9,91.5l4-4h4l-8,8V91.5z M192.9,119.5h4l-8,8v-4L192.9,119.5z M200.9,87.5h4l-8,8h-4
					L200.9,87.5z M200.9,119.5h4l-8,8h-4L200.9,119.5z M204.9,91.5v4h-4L204.9,91.5z M204.9,123.5v4h-4L204.9,123.5z M204.9,99.5
					l4-4h4l-8,8V99.5z M204.9,107.5l8-8v4l-8,8V107.5z M204.9,115.5l8-8v4l-8,8V115.5z M213,115.5v4h-4L213,115.5z"/>
			</g>
		</g>
	</g>
</g>
</svg>
