<?xml version="1.0" encoding="utf-8"?>
<!-- Generator: Adobe Illustrator 22.0.1, SVG Export Plug-In . SVG Version: 6.00 Build 0)  -->
<svg version="1.1" id="Layer_1" xmlns="http://www.w3.org/2000/svg" xmlns:xlink="http://www.w3.org/1999/xlink" x="0px" y="0px"
	 viewBox="0 0 215.6 128.5" style="enable-background:new 0 0 215.6 128.5;" xml:space="preserve">
<style type="text/css">
	.st0{fill:#E7CF20;}
</style>
<g>
	<g>
		<path d="M7.9,113.1c3.1,3.3,8.4,5.2,12.8,5.2c3.3,0,5.7-1.1,5.7-3c0-1.1-0.8-1.8-2.5-2l-6.3-1C7.4,111,2.8,106.8,2.8,99.7
			c0-8.2,7.9-13.6,17.6-13.6c7.8,0,13.4,2.8,16.7,6.1l-6.4,8c-1.4-1.4-3.2-2.5-5.2-3.2c-2-0.7-3.9-1.1-5.8-1.1c-3.3,0-5,1.2-5,2.7
			c0,1.1,0.8,1.7,2.5,2c1.7,0.3,3.7,0.7,6.1,1c10,1.4,14.6,5.5,14.6,12.5c0,9.8-9.6,14.1-17.8,14.1c-3.4,0-6.8-0.6-10.2-1.7
			c-3.3-1.2-6.1-2.9-8.4-5.4L7.9,113.1z"/>
	</g>
	<g>
		<path d="M60.6,127.5H48.9v-30h-12V86.8h35.8v10.7H60.6V127.5z"/>
	</g>
	<g>
		<path d="M73.8,86.8h11.9V110c0,1.9,0.7,3.6,2.2,4.9c1.5,1.3,3.2,2,5.3,2s3.8-0.7,5-2c1.3-1.4,2-3,2-4.9V86.8H112v24.4
			c0,8.9-7.5,17-18.8,17c-10.9,0-19.4-7.4-19.4-17V86.8z"/>
	</g>
	<g>
		<path d="M115.6,127.5V86.8h18.1c12.4,0,21.2,8.6,21.2,20.2c0,11.7-8.8,20.5-21.3,20.5H115.6z M127.4,117h5.3c5.5,0,9.9-3.3,9.9-10
			c0-3.3-0.9-5.7-2.8-7.3c-1.9-1.7-4.2-2.5-6.8-2.5h-5.5V117z"/>
	</g>
	<g>
		<path d="M157.2,127.5V86.8h11.9v40.7H157.2z"/>
	</g>
	<g>
		<path d="M171.4,107.3c0-12.1,9.4-21.2,22-21.2c12.6,0,22,9,22,21c0,12.2-9.4,21-22,21C180.9,128.2,171.4,119.3,171.4,107.3z
			 M186,114.8c2,2,4.5,3,7.5,3c3,0,5.5-1,7.5-3c2-2,3-4.6,3-7.6c0-3-1-5.5-3-7.5c-2-2.1-4.5-3.1-7.5-3.1c-3,0-5.5,1.1-7.5,3.1
			c-2,2-3,4.5-3,7.5C183,110.2,184,112.8,186,114.8z"/>
	</g>
</g>
<g>
	<g>
		<path d="M35.1,41.5l-2.4-4.4H18.8l-2.3,4.4H3.1v-0.1L25.8,0.2h0.8L49,41.4v0.1H35.1z M22.3,28h7.4L26,20.3L22.3,28z"/>
	</g>
	<g>
		<path d="M60.2,31.5v10H48.5V0.8h19.2c10.9,0,17.7,6.9,17.7,15.1c0,5.1-2.8,9.9-7.6,12.5L88,41.5H73.8l-7-10H60.2z M67.4,21.8
			c3.8,0,6.2-2.4,6.2-5.3c0-3-2.6-5.4-6.4-5.4h-7v10.6H67.4z"/>
	</g>
	<g>
		<path d="M108.6,41.5H96.9v-30h-12V0.8h35.8v10.7h-12.1V41.5z"/>
	</g>
</g>
<g>
	<g>
		<path d="M3.8,84.1V43h0.5L25,58.1L45.9,43h0.5v41.1H34.3V64.8l-9.4,7.4h-0.3l-9.5-7.4v19.3H3.8z"/>
	</g>
	<g>
		<path d="M48.3,84.1V43.4h34.6v10.4H59.8v4.8h17.7v10H59.8v5h23.1v10.5H48.3z"/>
	</g>
	<g>
		<path d="M84.8,84.1V43.4h18.1c12.4,0,21.2,8.6,21.2,20.2c0,11.7-8.8,20.5-21.3,20.5H84.8z M96.6,73.6h5.3c5.5,0,9.9-3.3,9.9-10
			c0-3.3-0.9-5.7-2.8-7.3c-1.9-1.7-4.2-2.5-6.8-2.5h-5.5V73.6z"/>
	</g>
	<g>
		<path d="M125,84.1V43.4h11.9v40.7H125z"/>
	</g>
	<g>
		<path d="M167.1,84.1l-2.4-4.4h-13.9l-2.3,4.4h-13.5V84l22.7-41.2h0.8L181,84v0.1H167.1z M154.3,70.6h7.4l-3.7-7.7L154.3,70.6z"/>
	</g>
</g>
<g>
	<g>
		<path class="st0" d="M0.3,97.2c0-0.8,0.6-1.4,1.4-1.4c0.8,0,1.4,0.6,1.4,1.4c0,0.8-0.6,1.4-1.4,1.4C1,98.6,0.3,98,0.3,97.2z
			 M0.3,101.2c0-0.8,0.6-1.4,1.4-1.4c0.8,0,1.4,0.6,1.4,1.4c0,0.8-0.6,1.4-1.4,1.4C1,102.6,0.3,102,0.3,101.2z M0.3,105.3
			c0-0.8,0.6-1.4,1.4-1.4c0.8,0,1.4,0.6,1.4,1.4c0,0.8-0.6,1.4-1.4,1.4C1,106.7,0.3,106.1,0.3,105.3z M0.3,109.3
			c0-0.8,0.6-1.4,1.4-1.4c0.8,0,1.4,0.6,1.4,1.4c0,0.8-0.6,1.4-1.4,1.4C1,110.7,0.3,110.1,0.3,109.3z M0.3,121.5
			c0-0.8,0.6-1.4,1.4-1.4c0.8,0,1.4,0.6,1.4,1.4c0,0.8-0.6,1.4-1.4,1.4C1,122.9,0.3,122.2,0.3,121.5z M0.3,125.5
			c0-0.8,0.6-1.4,1.4-1.4c0.8,0,1.4,0.6,1.4,1.4c0,0.8-0.6,1.4-1.4,1.4C1,126.9,0.3,126.3,0.3,125.5z M4.4,97.2
			c0-0.8,0.6-1.4,1.4-1.4c0.8,0,1.4,0.6,1.4,1.4c0,0.8-0.6,1.4-1.4,1.4C5,98.6,4.4,98,4.4,97.2z M4.4,101.2c0-0.8,0.6-1.4,1.4-1.4
			c0.8,0,1.4,0.6,1.4,1.4c0,0.8-0.6,1.4-1.4,1.4C5,102.6,4.4,102,4.4,101.2z M4.4,105.3c0-0.8,0.6-1.4,1.4-1.4
			c0.8,0,1.4,0.6,1.4,1.4c0,0.8-0.6,1.4-1.4,1.4C5,106.7,4.4,106.1,4.4,105.3z M4.4,109.3c0-0.8,0.6-1.4,1.4-1.4
			c0.8,0,1.4,0.6,1.4,1.4c0,0.8-0.6,1.4-1.4,1.4C5,110.7,4.4,110.1,4.4,109.3z M4.4,121.5c0-0.8,0.6-1.4,1.4-1.4
			c0.8,0,1.4,0.6,1.4,1.4c0,0.8-0.6,1.4-1.4,1.4C5,122.9,4.4,122.2,4.4,121.5z M4.4,125.5c0-0.8,0.6-1.4,1.4-1.4
			c0.8,0,1.4,0.6,1.4,1.4c0,0.8-0.6,1.4-1.4,1.4C5,126.9,4.4,126.3,4.4,125.5z M8.4,89.1c0-0.8,0.6-1.4,1.4-1.4
			c0.8,0,1.4,0.6,1.4,1.4c0,0.8-0.6,1.4-1.4,1.4C9,90.5,8.4,89.9,8.4,89.1z M8.4,93.2c0-0.8,0.6-1.4,1.4-1.4c0.8,0,1.4,0.6,1.4,1.4
			c0,0.8-0.6,1.4-1.4,1.4C9,94.5,8.4,93.9,8.4,93.2z M8.4,105.3c0-0.8,0.6-1.4,1.4-1.4c0.8,0,1.4,0.6,1.4,1.4c0,0.8-0.6,1.4-1.4,1.4
			C9,106.7,8.4,106.1,8.4,105.3z M8.4,109.3c0-0.8,0.6-1.4,1.4-1.4c0.8,0,1.4,0.6,1.4,1.4c0,0.8-0.6,1.4-1.4,1.4
			C9,110.7,8.4,110.1,8.4,109.3z M8.4,121.5c0-0.8,0.6-1.4,1.4-1.4c0.8,0,1.4,0.6,1.4,1.4c0,0.8-0.6,1.4-1.4,1.4
			C9,122.9,8.4,122.2,8.4,121.5z M8.4,125.5c0-0.8,0.6-1.4,1.4-1.4c0.8,0,1.4,0.6,1.4,1.4c0,0.8-0.6,1.4-1.4,1.4
			C9,126.9,8.4,126.3,8.4,125.5z M12.5,89.1c0-0.8,0.6-1.4,1.4-1.4c0.8,0,1.4,0.6,1.4,1.4c0,0.8-0.6,1.4-1.4,1.4
			C13.1,90.5,12.5,89.9,12.5,89.1z M12.5,93.2c0-0.8,0.6-1.4,1.4-1.4c0.8,0,1.4,0.6,1.4,1.4c0,0.8-0.6,1.4-1.4,1.4
			C13.1,94.5,12.5,93.9,12.5,93.2z M12.5,105.3c0-0.8,0.6-1.4,1.4-1.4c0.8,0,1.4,0.6,1.4,1.4c0,0.8-0.6,1.4-1.4,1.4
			C13.1,106.7,12.5,106.1,12.5,105.3z M12.5,109.3c0-0.8,0.6-1.4,1.4-1.4c0.8,0,1.4,0.6,1.4,1.4c0,0.8-0.6,1.4-1.4,1.4
			C13.1,110.7,12.5,110.1,12.5,109.3z M12.5,121.5c0-0.8,0.6-1.4,1.4-1.4c0.8,0,1.4,0.6,1.4,1.4c0,0.8-0.6,1.4-1.4,1.4
			C13.1,122.9,12.5,122.2,12.5,121.5z M12.5,125.5c0-0.8,0.6-1.4,1.4-1.4c0.8,0,1.4,0.6,1.4,1.4c0,0.8-0.6,1.4-1.4,1.4
			C13.1,126.9,12.5,126.3,12.5,125.5z M16.5,89.1c0-0.8,0.6-1.4,1.4-1.4c0.8,0,1.4,0.6,1.4,1.4c0,0.8-0.6,1.4-1.4,1.4
			C17.1,90.5,16.5,89.9,16.5,89.1z M16.5,93.2c0-0.8,0.6-1.4,1.4-1.4c0.8,0,1.4,0.6,1.4,1.4c0,0.8-0.6,1.4-1.4,1.4
			C17.1,94.5,16.5,93.9,16.5,93.2z M16.5,105.3c0-0.8,0.6-1.4,1.4-1.4c0.8,0,1.4,0.6,1.4,1.4c0,0.8-0.6,1.4-1.4,1.4
			C17.1,106.7,16.5,106.1,16.5,105.3z M16.5,109.3c0-0.8,0.6-1.4,1.4-1.4c0.8,0,1.4,0.6,1.4,1.4c0,0.8-0.6,1.4-1.4,1.4
			C17.1,110.7,16.5,110.1,16.5,109.3z M16.5,121.5c0-0.8,0.6-1.4,1.4-1.4c0.8,0,1.4,0.6,1.4,1.4c0,0.8-0.6,1.4-1.4,1.4
			C17.1,122.9,16.5,122.2,16.5,121.5z M16.5,125.5c0-0.8,0.6-1.4,1.4-1.4c0.8,0,1.4,0.6,1.4,1.4c0,0.8-0.6,1.4-1.4,1.4
			C17.1,126.9,16.5,126.3,16.5,125.5z M20.6,89.1c0-0.8,0.6-1.4,1.4-1.4c0.8,0,1.4,0.6,1.4,1.4c0,0.8-0.6,1.4-1.4,1.4
			C21.2,90.5,20.6,89.9,20.6,89.1z M20.6,93.2c0-0.8,0.6-1.4,1.4-1.4c0.8,0,1.4,0.6,1.4,1.4c0,0.8-0.6,1.4-1.4,1.4
			C21.2,94.5,20.6,93.9,20.6,93.2z M20.6,105.3c0-0.8,0.6-1.4,1.4-1.4c0.8,0,1.4,0.6,1.4,1.4c0,0.8-0.6,1.4-1.4,1.4
			C21.2,106.7,20.6,106.1,20.6,105.3z M20.6,109.3c0-0.8,0.6-1.4,1.4-1.4c0.8,0,1.4,0.6,1.4,1.4c0,0.8-0.6,1.4-1.4,1.4
			C21.2,110.7,20.6,110.1,20.6,109.3z M20.6,121.5c0-0.8,0.6-1.4,1.4-1.4c0.8,0,1.4,0.6,1.4,1.4c0,0.8-0.6,1.4-1.4,1.4
			C21.2,122.9,20.6,122.2,20.6,121.5z M20.6,125.5c0-0.8,0.6-1.4,1.4-1.4c0.8,0,1.4,0.6,1.4,1.4c0,0.8-0.6,1.4-1.4,1.4
			C21.2,126.9,20.6,126.3,20.6,125.5z M24.6,89.1c0-0.8,0.6-1.4,1.4-1.4c0.8,0,1.4,0.6,1.4,1.4c0,0.8-0.6,1.4-1.4,1.4
			C25.2,90.5,24.6,89.9,24.6,89.1z M24.6,93.2c0-0.8,0.6-1.4,1.4-1.4c0.8,0,1.4,0.6,1.4,1.4c0,0.8-0.6,1.4-1.4,1.4
			C25.2,94.5,24.6,93.9,24.6,93.2z M24.6,105.3c0-0.8,0.6-1.4,1.4-1.4c0.8,0,1.4,0.6,1.4,1.4c0,0.8-0.6,1.4-1.4,1.4
			C25.2,106.7,24.6,106.1,24.6,105.3z M24.6,109.3c0-0.8,0.6-1.4,1.4-1.4c0.8,0,1.4,0.6,1.4,1.4c0,0.8-0.6,1.4-1.4,1.4
			C25.2,110.7,24.6,110.1,24.6,109.3z M24.6,113.4c0-0.8,0.6-1.4,1.4-1.4c0.8,0,1.4,0.6,1.4,1.4c0,0.8-0.6,1.4-1.4,1.4
			C25.2,114.8,24.6,114.1,24.6,113.4z M24.6,117.4c0-0.8,0.6-1.4,1.4-1.4c0.8,0,1.4,0.6,1.4,1.4c0,0.8-0.6,1.4-1.4,1.4
			C25.2,118.8,24.6,118.2,24.6,117.4z M28.6,89.1c0-0.8,0.6-1.4,1.4-1.4c0.8,0,1.4,0.6,1.4,1.4c0,0.8-0.6,1.4-1.4,1.4
			C29.3,90.5,28.6,89.9,28.6,89.1z M28.6,93.2c0-0.8,0.6-1.4,1.4-1.4c0.8,0,1.4,0.6,1.4,1.4c0,0.8-0.6,1.4-1.4,1.4
			C29.3,94.5,28.6,93.9,28.6,93.2z M28.6,105.3c0-0.8,0.6-1.4,1.4-1.4c0.8,0,1.4,0.6,1.4,1.4c0,0.8-0.6,1.4-1.4,1.4
			C29.3,106.7,28.6,106.1,28.6,105.3z M28.6,109.3c0-0.8,0.6-1.4,1.4-1.4c0.8,0,1.4,0.6,1.4,1.4c0,0.8-0.6,1.4-1.4,1.4
			C29.3,110.7,28.6,110.1,28.6,109.3z M28.6,113.4c0-0.8,0.6-1.4,1.4-1.4c0.8,0,1.4,0.6,1.4,1.4c0,0.8-0.6,1.4-1.4,1.4
			C29.3,114.8,28.6,114.1,28.6,113.4z M28.6,117.4c0-0.8,0.6-1.4,1.4-1.4c0.8,0,1.4,0.6,1.4,1.4c0,0.8-0.6,1.4-1.4,1.4
			C29.3,118.8,28.6,118.2,28.6,117.4z"/>
		<path class="st0" d="M38,89.1c0-0.8,0.6-1.4,1.4-1.4c0.8,0,1.4,0.6,1.4,1.4c0,0.8-0.6,1.4-1.4,1.4C38.6,90.5,38,89.9,38,89.1z
			 M38,93.2c0-0.8,0.6-1.4,1.4-1.4c0.8,0,1.4,0.6,1.4,1.4c0,0.8-0.6,1.4-1.4,1.4C38.6,94.5,38,93.9,38,93.2z M42,89.1
			c0-0.8,0.6-1.4,1.4-1.4c0.8,0,1.4,0.6,1.4,1.4c0,0.8-0.6,1.4-1.4,1.4C42.6,90.5,42,89.9,42,89.1z M42,93.2c0-0.8,0.6-1.4,1.4-1.4
			c0.8,0,1.4,0.6,1.4,1.4c0,0.8-0.6,1.4-1.4,1.4C42.6,94.5,42,93.9,42,93.2z M46,89.1c0-0.8,0.6-1.4,1.4-1.4c0.8,0,1.4,0.6,1.4,1.4
			c0,0.8-0.6,1.4-1.4,1.4C46.7,90.5,46,89.9,46,89.1z M46,93.2c0-0.8,0.6-1.4,1.4-1.4c0.8,0,1.4,0.6,1.4,1.4c0,0.8-0.6,1.4-1.4,1.4
			C46.7,94.5,46,93.9,46,93.2z M50.1,89.1c0-0.8,0.6-1.4,1.4-1.4s1.4,0.6,1.4,1.4c0,0.8-0.6,1.4-1.4,1.4S50.1,89.9,50.1,89.1z
			 M50.1,93.2c0-0.8,0.6-1.4,1.4-1.4s1.4,0.6,1.4,1.4c0,0.8-0.6,1.4-1.4,1.4S50.1,93.9,50.1,93.2z M50.1,97.2c0-0.8,0.6-1.4,1.4-1.4
			s1.4,0.6,1.4,1.4c0,0.8-0.6,1.4-1.4,1.4S50.1,98,50.1,97.2z M50.1,101.2c0-0.8,0.6-1.4,1.4-1.4s1.4,0.6,1.4,1.4
			c0,0.8-0.6,1.4-1.4,1.4S50.1,102,50.1,101.2z M50.1,105.3c0-0.8,0.6-1.4,1.4-1.4s1.4,0.6,1.4,1.4c0,0.8-0.6,1.4-1.4,1.4
			S50.1,106.1,50.1,105.3z M50.1,109.3c0-0.8,0.6-1.4,1.4-1.4s1.4,0.6,1.4,1.4c0,0.8-0.6,1.4-1.4,1.4S50.1,110.1,50.1,109.3z
			 M50.1,113.4c0-0.8,0.6-1.4,1.4-1.4s1.4,0.6,1.4,1.4c0,0.8-0.6,1.4-1.4,1.4S50.1,114.1,50.1,113.4z M50.1,117.4
			c0-0.8,0.6-1.4,1.4-1.4s1.4,0.6,1.4,1.4c0,0.8-0.6,1.4-1.4,1.4S50.1,118.2,50.1,117.4z M50.1,121.5c0-0.8,0.6-1.4,1.4-1.4
			s1.4,0.6,1.4,1.4c0,0.8-0.6,1.4-1.4,1.4S50.1,122.2,50.1,121.5z M50.1,125.5c0-0.8,0.6-1.4,1.4-1.4s1.4,0.6,1.4,1.4
			c0,0.8-0.6,1.4-1.4,1.4S50.1,126.3,50.1,125.5z M54.1,89.1c0-0.8,0.6-1.4,1.4-1.4s1.4,0.6,1.4,1.4c0,0.8-0.6,1.4-1.4,1.4
			S54.1,89.9,54.1,89.1z M54.1,93.2c0-0.8,0.6-1.4,1.4-1.4s1.4,0.6,1.4,1.4c0,0.8-0.6,1.4-1.4,1.4S54.1,93.9,54.1,93.2z M54.1,97.2
			c0-0.8,0.6-1.4,1.4-1.4s1.4,0.6,1.4,1.4c0,0.8-0.6,1.4-1.4,1.4S54.1,98,54.1,97.2z M54.1,101.2c0-0.8,0.6-1.4,1.4-1.4
			s1.4,0.6,1.4,1.4c0,0.8-0.6,1.4-1.4,1.4S54.1,102,54.1,101.2z M54.1,105.3c0-0.8,0.6-1.4,1.4-1.4s1.4,0.6,1.4,1.4
			c0,0.8-0.6,1.4-1.4,1.4S54.1,106.1,54.1,105.3z M54.1,109.3c0-0.8,0.6-1.4,1.4-1.4s1.4,0.6,1.4,1.4c0,0.8-0.6,1.4-1.4,1.4
			S54.1,110.1,54.1,109.3z M54.1,113.4c0-0.8,0.6-1.4,1.4-1.4s1.4,0.6,1.4,1.4c0,0.8-0.6,1.4-1.4,1.4S54.1,114.1,54.1,113.4z
			 M54.1,117.4c0-0.8,0.6-1.4,1.4-1.4s1.4,0.6,1.4,1.4c0,0.8-0.6,1.4-1.4,1.4S54.1,118.2,54.1,117.4z M54.1,121.5
			c0-0.8,0.6-1.4,1.4-1.4s1.4,0.6,1.4,1.4c0,0.8-0.6,1.4-1.4,1.4S54.1,122.2,54.1,121.5z M54.1,125.5c0-0.8,0.6-1.4,1.4-1.4
			s1.4,0.6,1.4,1.4c0,0.8-0.6,1.4-1.4,1.4S54.1,126.3,54.1,125.5z M58.2,89.1c0-0.8,0.6-1.4,1.4-1.4c0.8,0,1.4,0.6,1.4,1.4
			c0,0.8-0.6,1.4-1.4,1.4C58.8,90.5,58.2,89.9,58.2,89.1z M58.2,93.2c0-0.8,0.6-1.4,1.4-1.4c0.8,0,1.4,0.6,1.4,1.4
			c0,0.8-0.6,1.4-1.4,1.4C58.8,94.5,58.2,93.9,58.2,93.2z M62.2,89.1c0-0.8,0.6-1.4,1.4-1.4c0.8,0,1.4,0.6,1.4,1.4
			c0,0.8-0.6,1.4-1.4,1.4C62.9,90.5,62.2,89.9,62.2,89.1z M62.2,93.2c0-0.8,0.6-1.4,1.4-1.4c0.8,0,1.4,0.6,1.4,1.4
			c0,0.8-0.6,1.4-1.4,1.4C62.9,94.5,62.2,93.9,62.2,93.2z M66.3,89.1c0-0.8,0.6-1.4,1.4-1.4c0.8,0,1.4,0.6,1.4,1.4
			c0,0.8-0.6,1.4-1.4,1.4C66.9,90.5,66.3,89.9,66.3,89.1z M66.3,93.2c0-0.8,0.6-1.4,1.4-1.4c0.8,0,1.4,0.6,1.4,1.4
			c0,0.8-0.6,1.4-1.4,1.4C66.9,94.5,66.3,93.9,66.3,93.2z"/>
		<path class="st0" d="M75.6,89.1c0-0.8,0.6-1.4,1.4-1.4c0.8,0,1.4,0.6,1.4,1.4c0,0.8-0.6,1.4-1.4,1.4
			C76.2,90.5,75.6,89.9,75.6,89.1z M75.6,93.2c0-0.8,0.6-1.4,1.4-1.4c0.8,0,1.4,0.6,1.4,1.4c0,0.8-0.6,1.4-1.4,1.4
			C76.2,94.5,75.6,93.9,75.6,93.2z M75.6,97.2c0-0.8,0.6-1.4,1.4-1.4c0.8,0,1.4,0.6,1.4,1.4c0,0.8-0.6,1.4-1.4,1.4
			C76.2,98.6,75.6,98,75.6,97.2z M75.6,101.2c0-0.8,0.6-1.4,1.4-1.4c0.8,0,1.4,0.6,1.4,1.4c0,0.8-0.6,1.4-1.4,1.4
			C76.2,102.6,75.6,102,75.6,101.2z M75.6,105.3c0-0.8,0.6-1.4,1.4-1.4c0.8,0,1.4,0.6,1.4,1.4c0,0.8-0.6,1.4-1.4,1.4
			C76.2,106.7,75.6,106.1,75.6,105.3z M75.6,109.3c0-0.8,0.6-1.4,1.4-1.4c0.8,0,1.4,0.6,1.4,1.4c0,0.8-0.6,1.4-1.4,1.4
			C76.2,110.7,75.6,110.1,75.6,109.3z M75.6,113.4c0-0.8,0.6-1.4,1.4-1.4c0.8,0,1.4,0.6,1.4,1.4c0,0.8-0.6,1.4-1.4,1.4
			C76.2,114.8,75.6,114.1,75.6,113.4z M75.6,117.4c0-0.8,0.6-1.4,1.4-1.4c0.8,0,1.4,0.6,1.4,1.4c0,0.8-0.6,1.4-1.4,1.4
			C76.2,118.8,75.6,118.2,75.6,117.4z M79.6,89.1c0-0.8,0.6-1.4,1.4-1.4c0.8,0,1.4,0.6,1.4,1.4c0,0.8-0.6,1.4-1.4,1.4
			C80.3,90.5,79.6,89.9,79.6,89.1z M79.6,93.2c0-0.8,0.6-1.4,1.4-1.4c0.8,0,1.4,0.6,1.4,1.4c0,0.8-0.6,1.4-1.4,1.4
			C80.3,94.5,79.6,93.9,79.6,93.2z M79.6,97.2c0-0.8,0.6-1.4,1.4-1.4c0.8,0,1.4,0.6,1.4,1.4c0,0.8-0.6,1.4-1.4,1.4
			C80.3,98.6,79.6,98,79.6,97.2z M79.6,101.2c0-0.8,0.6-1.4,1.4-1.4c0.8,0,1.4,0.6,1.4,1.4c0,0.8-0.6,1.4-1.4,1.4
			C80.3,102.6,79.6,102,79.6,101.2z M79.6,105.3c0-0.8,0.6-1.4,1.4-1.4c0.8,0,1.4,0.6,1.4,1.4c0,0.8-0.6,1.4-1.4,1.4
			C80.3,106.7,79.6,106.1,79.6,105.3z M79.6,109.3c0-0.8,0.6-1.4,1.4-1.4c0.8,0,1.4,0.6,1.4,1.4c0,0.8-0.6,1.4-1.4,1.4
			C80.3,110.7,79.6,110.1,79.6,109.3z M79.6,113.4c0-0.8,0.6-1.4,1.4-1.4c0.8,0,1.4,0.6,1.4,1.4c0,0.8-0.6,1.4-1.4,1.4
			C80.3,114.8,79.6,114.1,79.6,113.4z M79.6,117.4c0-0.8,0.6-1.4,1.4-1.4c0.8,0,1.4,0.6,1.4,1.4c0,0.8-0.6,1.4-1.4,1.4
			C80.3,118.8,79.6,118.2,79.6,117.4z M83.7,121.5c0-0.8,0.6-1.4,1.4-1.4c0.8,0,1.4,0.6,1.4,1.4c0,0.8-0.6,1.4-1.4,1.4
			C84.3,122.9,83.7,122.2,83.7,121.5z M83.7,125.5c0-0.8,0.6-1.4,1.4-1.4c0.8,0,1.4,0.6,1.4,1.4c0,0.8-0.6,1.4-1.4,1.4
			C84.3,126.9,83.7,126.3,83.7,125.5z M87.7,121.5c0-0.8,0.6-1.4,1.4-1.4c0.8,0,1.4,0.6,1.4,1.4c0,0.8-0.6,1.4-1.4,1.4
			C88.4,122.9,87.7,122.2,87.7,121.5z M87.7,125.5c0-0.8,0.6-1.4,1.4-1.4c0.8,0,1.4,0.6,1.4,1.4c0,0.8-0.6,1.4-1.4,1.4
			C88.4,126.9,87.7,126.3,87.7,125.5z M91.8,121.5c0-0.8,0.6-1.4,1.4-1.4c0.8,0,1.4,0.6,1.4,1.4c0,0.8-0.6,1.4-1.4,1.4
			C92.4,122.9,91.8,122.2,91.8,121.5z M91.8,125.5c0-0.8,0.6-1.4,1.4-1.4c0.8,0,1.4,0.6,1.4,1.4c0,0.8-0.6,1.4-1.4,1.4
			C92.4,126.9,91.8,126.3,91.8,125.5z M95.8,121.5c0-0.8,0.6-1.4,1.4-1.4c0.8,0,1.4,0.6,1.4,1.4c0,0.8-0.6,1.4-1.4,1.4
			C96.5,122.9,95.8,122.2,95.8,121.5z M95.8,125.5c0-0.8,0.6-1.4,1.4-1.4c0.8,0,1.4,0.6,1.4,1.4c0,0.8-0.6,1.4-1.4,1.4
			C96.5,126.9,95.8,126.3,95.8,125.5z M99.9,89.1c0-0.8,0.6-1.4,1.4-1.4c0.8,0,1.4,0.6,1.4,1.4c0,0.8-0.6,1.4-1.4,1.4
			C100.5,90.5,99.9,89.9,99.9,89.1z M99.9,93.2c0-0.8,0.6-1.4,1.4-1.4c0.8,0,1.4,0.6,1.4,1.4c0,0.8-0.6,1.4-1.4,1.4
			C100.5,94.5,99.9,93.9,99.9,93.2z M99.9,97.2c0-0.8,0.6-1.4,1.4-1.4c0.8,0,1.4,0.6,1.4,1.4c0,0.8-0.6,1.4-1.4,1.4
			C100.5,98.6,99.9,98,99.9,97.2z M99.9,101.2c0-0.8,0.6-1.4,1.4-1.4c0.8,0,1.4,0.6,1.4,1.4c0,0.8-0.6,1.4-1.4,1.4
			C100.5,102.6,99.9,102,99.9,101.2z M99.9,105.3c0-0.8,0.6-1.4,1.4-1.4c0.8,0,1.4,0.6,1.4,1.4c0,0.8-0.6,1.4-1.4,1.4
			C100.5,106.7,99.9,106.1,99.9,105.3z M99.9,109.3c0-0.8,0.6-1.4,1.4-1.4c0.8,0,1.4,0.6,1.4,1.4c0,0.8-0.6,1.4-1.4,1.4
			C100.5,110.7,99.9,110.1,99.9,109.3z M99.9,113.4c0-0.8,0.6-1.4,1.4-1.4c0.8,0,1.4,0.6,1.4,1.4c0,0.8-0.6,1.4-1.4,1.4
			C100.5,114.8,99.9,114.1,99.9,113.4z M99.9,117.4c0-0.8,0.6-1.4,1.4-1.4c0.8,0,1.4,0.6,1.4,1.4c0,0.8-0.6,1.4-1.4,1.4
			C100.5,118.8,99.9,118.2,99.9,117.4z M99.9,121.5c0-0.8,0.6-1.4,1.4-1.4c0.8,0,1.4,0.6,1.4,1.4c0,0.8-0.6,1.4-1.4,1.4
			C100.5,122.9,99.9,122.2,99.9,121.5z M99.9,125.5c0-0.8,0.6-1.4,1.4-1.4c0.8,0,1.4,0.6,1.4,1.4c0,0.8-0.6,1.4-1.4,1.4
			C100.5,126.9,99.9,126.3,99.9,125.5z M103.9,89.1c0-0.8,0.6-1.4,1.4-1.4c0.8,0,1.4,0.6,1.4,1.4c0,0.8-0.6,1.4-1.4,1.4
			C104.5,90.5,103.9,89.9,103.9,89.1z M103.9,93.2c0-0.8,0.6-1.4,1.4-1.4c0.8,0,1.4,0.6,1.4,1.4c0,0.8-0.6,1.4-1.4,1.4
			C104.5,94.5,103.9,93.9,103.9,93.2z M103.9,97.2c0-0.8,0.6-1.4,1.4-1.4c0.8,0,1.4,0.6,1.4,1.4c0,0.8-0.6,1.4-1.4,1.4
			C104.5,98.6,103.9,98,103.9,97.2z M103.9,101.2c0-0.8,0.6-1.4,1.4-1.4c0.8,0,1.4,0.6,1.4,1.4c0,0.8-0.6,1.4-1.4,1.4
			C104.5,102.6,103.9,102,103.9,101.2z M103.9,105.3c0-0.8,0.6-1.4,1.4-1.4c0.8,0,1.4,0.6,1.4,1.4c0,0.8-0.6,1.4-1.4,1.4
			C104.5,106.7,103.9,106.1,103.9,105.3z M103.9,109.3c0-0.8,0.6-1.4,1.4-1.4c0.8,0,1.4,0.6,1.4,1.4c0,0.8-0.6,1.4-1.4,1.4
			C104.5,110.7,103.9,110.1,103.9,109.3z M103.9,113.4c0-0.8,0.6-1.4,1.4-1.4c0.8,0,1.4,0.6,1.4,1.4c0,0.8-0.6,1.4-1.4,1.4
			C104.5,114.8,103.9,114.1,103.9,113.4z M103.9,117.4c0-0.8,0.6-1.4,1.4-1.4c0.8,0,1.4,0.6,1.4,1.4c0,0.8-0.6,1.4-1.4,1.4
			C104.5,118.8,103.9,118.2,103.9,117.4z M103.9,121.5c0-0.8,0.6-1.4,1.4-1.4c0.8,0,1.4,0.6,1.4,1.4c0,0.8-0.6,1.4-1.4,1.4
			C104.5,122.9,103.9,122.2,103.9,121.5z M103.9,125.5c0-0.8,0.6-1.4,1.4-1.4c0.8,0,1.4,0.6,1.4,1.4c0,0.8-0.6,1.4-1.4,1.4
			C104.5,126.9,103.9,126.3,103.9,125.5z"/>
		<path class="st0" d="M114.6,89.1c0-0.8,0.6-1.4,1.4-1.4c0.8,0,1.4,0.6,1.4,1.4c0,0.8-0.6,1.4-1.4,1.4
			C115.3,90.5,114.6,89.9,114.6,89.1z M114.6,93.2c0-0.8,0.6-1.4,1.4-1.4c0.8,0,1.4,0.6,1.4,1.4c0,0.8-0.6,1.4-1.4,1.4
			C115.3,94.5,114.6,93.9,114.6,93.2z M114.6,97.2c0-0.8,0.6-1.4,1.4-1.4c0.8,0,1.4,0.6,1.4,1.4c0,0.8-0.6,1.4-1.4,1.4
			C115.3,98.6,114.6,98,114.6,97.2z M114.6,101.2c0-0.8,0.6-1.4,1.4-1.4c0.8,0,1.4,0.6,1.4,1.4c0,0.8-0.6,1.4-1.4,1.4
			C115.3,102.6,114.6,102,114.6,101.2z M114.6,105.3c0-0.8,0.6-1.4,1.4-1.4c0.8,0,1.4,0.6,1.4,1.4c0,0.8-0.6,1.4-1.4,1.4
			C115.3,106.7,114.6,106.1,114.6,105.3z M114.6,109.3c0-0.8,0.6-1.4,1.4-1.4c0.8,0,1.4,0.6,1.4,1.4c0,0.8-0.6,1.4-1.4,1.4
			C115.3,110.7,114.6,110.1,114.6,109.3z M114.6,113.4c0-0.8,0.6-1.4,1.4-1.4c0.8,0,1.4,0.6,1.4,1.4c0,0.8-0.6,1.4-1.4,1.4
			C115.3,114.8,114.6,114.1,114.6,113.4z M114.6,117.4c0-0.8,0.6-1.4,1.4-1.4c0.8,0,1.4,0.6,1.4,1.4c0,0.8-0.6,1.4-1.4,1.4
			C115.3,118.8,114.6,118.2,114.6,117.4z M114.6,121.5c0-0.8,0.6-1.4,1.4-1.4c0.8,0,1.4,0.6,1.4,1.4c0,0.8-0.6,1.4-1.4,1.4
			C115.3,122.9,114.6,122.2,114.6,121.5z M114.6,125.5c0-0.8,0.6-1.4,1.4-1.4c0.8,0,1.4,0.6,1.4,1.4c0,0.8-0.6,1.4-1.4,1.4
			C115.3,126.9,114.6,126.3,114.6,125.5z M118.7,89.1c0-0.8,0.6-1.4,1.4-1.4c0.8,0,1.4,0.6,1.4,1.4c0,0.8-0.6,1.4-1.4,1.4
			C119.3,90.5,118.7,89.9,118.7,89.1z M118.7,93.2c0-0.8,0.6-1.4,1.4-1.4c0.8,0,1.4,0.6,1.4,1.4c0,0.8-0.6,1.4-1.4,1.4
			C119.3,94.5,118.7,93.9,118.7,93.2z M118.7,97.2c0-0.8,0.6-1.4,1.4-1.4c0.8,0,1.4,0.6,1.4,1.4c0,0.8-0.6,1.4-1.4,1.4
			C119.3,98.6,118.7,98,118.7,97.2z M118.7,101.2c0-0.8,0.6-1.4,1.4-1.4c0.8,0,1.4,0.6,1.4,1.4c0,0.8-0.6,1.4-1.4,1.4
			C119.3,102.6,118.7,102,118.7,101.2z M118.7,105.3c0-0.8,0.6-1.4,1.4-1.4c0.8,0,1.4,0.6,1.4,1.4c0,0.8-0.6,1.4-1.4,1.4
			C119.3,106.7,118.7,106.1,118.7,105.3z M118.7,109.3c0-0.8,0.6-1.4,1.4-1.4c0.8,0,1.4,0.6,1.4,1.4c0,0.8-0.6,1.4-1.4,1.4
			C119.3,110.7,118.7,110.1,118.7,109.3z M118.7,113.4c0-0.8,0.6-1.4,1.4-1.4c0.8,0,1.4,0.6,1.4,1.4c0,0.8-0.6,1.4-1.4,1.4
			C119.3,114.8,118.7,114.1,118.7,113.4z M118.7,117.4c0-0.8,0.6-1.4,1.4-1.4c0.8,0,1.4,0.6,1.4,1.4c0,0.8-0.6,1.4-1.4,1.4
			C119.3,118.8,118.7,118.2,118.7,117.4z M118.7,121.5c0-0.8,0.6-1.4,1.4-1.4c0.8,0,1.4,0.6,1.4,1.4c0,0.8-0.6,1.4-1.4,1.4
			C119.3,122.9,118.7,122.2,118.7,121.5z M118.7,125.5c0-0.8,0.6-1.4,1.4-1.4c0.8,0,1.4,0.6,1.4,1.4c0,0.8-0.6,1.4-1.4,1.4
			C119.3,126.9,118.7,126.3,118.7,125.5z M122.7,89.1c0-0.8,0.6-1.4,1.4-1.4c0.8,0,1.4,0.6,1.4,1.4c0,0.8-0.6,1.4-1.4,1.4
			C123.4,90.5,122.7,89.9,122.7,89.1z M122.7,93.2c0-0.8,0.6-1.4,1.4-1.4c0.8,0,1.4,0.6,1.4,1.4c0,0.8-0.6,1.4-1.4,1.4
			C123.4,94.5,122.7,93.9,122.7,93.2z M122.7,121.5c0-0.8,0.6-1.4,1.4-1.4c0.8,0,1.4,0.6,1.4,1.4c0,0.8-0.6,1.4-1.4,1.4
			C123.4,122.9,122.7,122.2,122.7,121.5z M122.7,125.5c0-0.8,0.6-1.4,1.4-1.4c0.8,0,1.4,0.6,1.4,1.4c0,0.8-0.6,1.4-1.4,1.4
			C123.4,126.9,122.7,126.3,122.7,125.5z M126.8,89.1c0-0.8,0.6-1.4,1.4-1.4c0.8,0,1.4,0.6,1.4,1.4c0,0.8-0.6,1.4-1.4,1.4
			C127.4,90.5,126.8,89.9,126.8,89.1z M126.8,93.2c0-0.8,0.6-1.4,1.4-1.4c0.8,0,1.4,0.6,1.4,1.4c0,0.8-0.6,1.4-1.4,1.4
			C127.4,94.5,126.8,93.9,126.8,93.2z M126.8,121.5c0-0.8,0.6-1.4,1.4-1.4c0.8,0,1.4,0.6,1.4,1.4c0,0.8-0.6,1.4-1.4,1.4
			C127.4,122.9,126.8,122.2,126.8,121.5z M126.8,125.5c0-0.8,0.6-1.4,1.4-1.4c0.8,0,1.4,0.6,1.4,1.4c0,0.8-0.6,1.4-1.4,1.4
			C127.4,126.9,126.8,126.3,126.8,125.5z M130.8,89.1c0-0.8,0.6-1.4,1.4-1.4c0.8,0,1.4,0.6,1.4,1.4c0,0.8-0.6,1.4-1.4,1.4
			C131.5,90.5,130.8,89.9,130.8,89.1z M130.8,93.2c0-0.8,0.6-1.4,1.4-1.4c0.8,0,1.4,0.6,1.4,1.4c0,0.8-0.6,1.4-1.4,1.4
			C131.5,94.5,130.8,93.9,130.8,93.2z M130.8,121.5c0-0.8,0.6-1.4,1.4-1.4c0.8,0,1.4,0.6,1.4,1.4c0,0.8-0.6,1.4-1.4,1.4
			C131.5,122.9,130.8,122.2,130.8,121.5z M130.8,125.5c0-0.8,0.6-1.4,1.4-1.4c0.8,0,1.4,0.6,1.4,1.4c0,0.8-0.6,1.4-1.4,1.4
			C131.5,126.9,130.8,126.3,130.8,125.5z M134.9,89.1c0-0.8,0.6-1.4,1.4-1.4c0.8,0,1.4,0.6,1.4,1.4c0,0.8-0.6,1.4-1.4,1.4
			C135.5,90.5,134.9,89.9,134.9,89.1z M134.9,93.2c0-0.8,0.6-1.4,1.4-1.4c0.8,0,1.4,0.6,1.4,1.4c0,0.8-0.6,1.4-1.4,1.4
			C135.5,94.5,134.9,93.9,134.9,93.2z M134.9,121.5c0-0.8,0.6-1.4,1.4-1.4c0.8,0,1.4,0.6,1.4,1.4c0,0.8-0.6,1.4-1.4,1.4
			C135.5,122.9,134.9,122.2,134.9,121.5z M134.9,125.5c0-0.8,0.6-1.4,1.4-1.4c0.8,0,1.4,0.6,1.4,1.4c0,0.8-0.6,1.4-1.4,1.4
			C135.5,126.9,134.9,126.3,134.9,125.5z M138.9,97.2c0-0.8,0.6-1.4,1.4-1.4c0.8,0,1.4,0.6,1.4,1.4c0,0.8-0.6,1.4-1.4,1.4
			C139.6,98.6,138.9,98,138.9,97.2z M138.9,101.2c0-0.8,0.6-1.4,1.4-1.4c0.8,0,1.4,0.6,1.4,1.4c0,0.8-0.6,1.4-1.4,1.4
			C139.6,102.6,138.9,102,138.9,101.2z M138.9,105.3c0-0.8,0.6-1.4,1.4-1.4c0.8,0,1.4,0.6,1.4,1.4c0,0.8-0.6,1.4-1.4,1.4
			C139.6,106.7,138.9,106.1,138.9,105.3z M138.9,109.3c0-0.8,0.6-1.4,1.4-1.4c0.8,0,1.4,0.6,1.4,1.4c0,0.8-0.6,1.4-1.4,1.4
			C139.6,110.7,138.9,110.1,138.9,109.3z M138.9,113.4c0-0.8,0.6-1.4,1.4-1.4c0.8,0,1.4,0.6,1.4,1.4c0,0.8-0.6,1.4-1.4,1.4
			C139.6,114.8,138.9,114.1,138.9,113.4z M138.9,117.4c0-0.8,0.6-1.4,1.4-1.4c0.8,0,1.4,0.6,1.4,1.4c0,0.8-0.6,1.4-1.4,1.4
			C139.6,118.8,138.9,118.2,138.9,117.4z M143,97.2c0-0.8,0.6-1.4,1.4-1.4c0.8,0,1.4,0.6,1.4,1.4c0,0.8-0.6,1.4-1.4,1.4
			C143.6,98.6,143,98,143,97.2z M143,101.2c0-0.8,0.6-1.4,1.4-1.4c0.8,0,1.4,0.6,1.4,1.4c0,0.8-0.6,1.4-1.4,1.4
			C143.6,102.6,143,102,143,101.2z M143,105.3c0-0.8,0.6-1.4,1.4-1.4c0.8,0,1.4,0.6,1.4,1.4c0,0.8-0.6,1.4-1.4,1.4
			C143.6,106.7,143,106.1,143,105.3z M143,109.3c0-0.8,0.6-1.4,1.4-1.4c0.8,0,1.4,0.6,1.4,1.4c0,0.8-0.6,1.4-1.4,1.4
			C143.6,110.7,143,110.1,143,109.3z M143,113.4c0-0.8,0.6-1.4,1.4-1.4c0.8,0,1.4,0.6,1.4,1.4c0,0.8-0.6,1.4-1.4,1.4
			C143.6,114.8,143,114.1,143,113.4z M143,117.4c0-0.8,0.6-1.4,1.4-1.4c0.8,0,1.4,0.6,1.4,1.4c0,0.8-0.6,1.4-1.4,1.4
			C143.6,118.8,143,118.2,143,117.4z"/>
		<path class="st0" d="M153.5,89.1c0-0.8,0.6-1.4,1.4-1.4c0.8,0,1.4,0.6,1.4,1.4c0,0.8-0.6,1.4-1.4,1.4
			C154.1,90.5,153.5,89.9,153.5,89.1z M153.5,93.2c0-0.8,0.6-1.4,1.4-1.4c0.8,0,1.4,0.6,1.4,1.4c0,0.8-0.6,1.4-1.4,1.4
			C154.1,94.5,153.5,93.9,153.5,93.2z M153.5,121.5c0-0.8,0.6-1.4,1.4-1.4c0.8,0,1.4,0.6,1.4,1.4c0,0.8-0.6,1.4-1.4,1.4
			C154.1,122.9,153.5,122.2,153.5,121.5z M153.5,125.5c0-0.8,0.6-1.4,1.4-1.4c0.8,0,1.4,0.6,1.4,1.4c0,0.8-0.6,1.4-1.4,1.4
			C154.1,126.9,153.5,126.3,153.5,125.5z M157.5,89.1c0-0.8,0.6-1.4,1.4-1.4c0.8,0,1.4,0.6,1.4,1.4c0,0.8-0.6,1.4-1.4,1.4
			C158.2,90.5,157.5,89.9,157.5,89.1z M157.5,93.2c0-0.8,0.6-1.4,1.4-1.4c0.8,0,1.4,0.6,1.4,1.4c0,0.8-0.6,1.4-1.4,1.4
			C158.2,94.5,157.5,93.9,157.5,93.2z M157.5,121.5c0-0.8,0.6-1.4,1.4-1.4c0.8,0,1.4,0.6,1.4,1.4c0,0.8-0.6,1.4-1.4,1.4
			C158.2,122.9,157.5,122.2,157.5,121.5z M157.5,125.5c0-0.8,0.6-1.4,1.4-1.4c0.8,0,1.4,0.6,1.4,1.4c0,0.8-0.6,1.4-1.4,1.4
			C158.2,126.9,157.5,126.3,157.5,125.5z M161.6,89.1c0-0.8,0.6-1.4,1.4-1.4c0.8,0,1.4,0.6,1.4,1.4c0,0.8-0.6,1.4-1.4,1.4
			C162.2,90.5,161.6,89.9,161.6,89.1z M161.6,93.2c0-0.8,0.6-1.4,1.4-1.4c0.8,0,1.4,0.6,1.4,1.4c0,0.8-0.6,1.4-1.4,1.4
			C162.2,94.5,161.6,93.9,161.6,93.2z M161.6,97.2c0-0.8,0.6-1.4,1.4-1.4c0.8,0,1.4,0.6,1.4,1.4c0,0.8-0.6,1.4-1.4,1.4
			C162.2,98.6,161.6,98,161.6,97.2z M161.6,101.2c0-0.8,0.6-1.4,1.4-1.4c0.8,0,1.4,0.6,1.4,1.4c0,0.8-0.6,1.4-1.4,1.4
			C162.2,102.6,161.6,102,161.6,101.2z M161.6,105.3c0-0.8,0.6-1.4,1.4-1.4c0.8,0,1.4,0.6,1.4,1.4c0,0.8-0.6,1.4-1.4,1.4
			C162.2,106.7,161.6,106.1,161.6,105.3z M161.6,109.3c0-0.8,0.6-1.4,1.4-1.4c0.8,0,1.4,0.6,1.4,1.4c0,0.8-0.6,1.4-1.4,1.4
			C162.2,110.7,161.6,110.1,161.6,109.3z M161.6,113.4c0-0.8,0.6-1.4,1.4-1.4c0.8,0,1.4,0.6,1.4,1.4c0,0.8-0.6,1.4-1.4,1.4
			C162.2,114.8,161.6,114.1,161.6,113.4z M161.6,117.4c0-0.8,0.6-1.4,1.4-1.4c0.8,0,1.4,0.6,1.4,1.4c0,0.8-0.6,1.4-1.4,1.4
			C162.2,118.8,161.6,118.2,161.6,117.4z M161.6,121.5c0-0.8,0.6-1.4,1.4-1.4c0.8,0,1.4,0.6,1.4,1.4c0,0.8-0.6,1.4-1.4,1.4
			C162.2,122.9,161.6,122.2,161.6,121.5z M161.6,125.5c0-0.8,0.6-1.4,1.4-1.4c0.8,0,1.4,0.6,1.4,1.4c0,0.8-0.6,1.4-1.4,1.4
			C162.2,126.9,161.6,126.3,161.6,125.5z M165.6,89.1c0-0.8,0.6-1.4,1.4-1.4c0.8,0,1.4,0.6,1.4,1.4c0,0.8-0.6,1.4-1.4,1.4
			C166.3,90.5,165.6,89.9,165.6,89.1z M165.6,93.2c0-0.8,0.6-1.4,1.4-1.4c0.8,0,1.4,0.6,1.4,1.4c0,0.8-0.6,1.4-1.4,1.4
			C166.3,94.5,165.6,93.9,165.6,93.2z M165.6,97.2c0-0.8,0.6-1.4,1.4-1.4c0.8,0,1.4,0.6,1.4,1.4c0,0.8-0.6,1.4-1.4,1.4
			C166.3,98.6,165.6,98,165.6,97.2z M165.6,101.2c0-0.8,0.6-1.4,1.4-1.4c0.8,0,1.4,0.6,1.4,1.4c0,0.8-0.6,1.4-1.4,1.4
			C166.3,102.6,165.6,102,165.6,101.2z M165.6,105.3c0-0.8,0.6-1.4,1.4-1.4c0.8,0,1.4,0.6,1.4,1.4c0,0.8-0.6,1.4-1.4,1.4
			C166.3,106.7,165.6,106.1,165.6,105.3z M165.6,109.3c0-0.8,0.6-1.4,1.4-1.4c0.8,0,1.4,0.6,1.4,1.4c0,0.8-0.6,1.4-1.4,1.4
			C166.3,110.7,165.6,110.1,165.6,109.3z M165.6,113.4c0-0.8,0.6-1.4,1.4-1.4c0.8,0,1.4,0.6,1.4,1.4c0,0.8-0.6,1.4-1.4,1.4
			C166.3,114.8,165.6,114.1,165.6,113.4z M165.6,117.4c0-0.8,0.6-1.4,1.4-1.4c0.8,0,1.4,0.6,1.4,1.4c0,0.8-0.6,1.4-1.4,1.4
			C166.3,118.8,165.6,118.2,165.6,117.4z M165.6,121.5c0-0.8,0.6-1.4,1.4-1.4c0.8,0,1.4,0.6,1.4,1.4c0,0.8-0.6,1.4-1.4,1.4
			C166.3,122.9,165.6,122.2,165.6,121.5z M165.6,125.5c0-0.8,0.6-1.4,1.4-1.4c0.8,0,1.4,0.6,1.4,1.4c0,0.8-0.6,1.4-1.4,1.4
			C166.3,126.9,165.6,126.3,165.6,125.5z M169.7,89.1c0-0.8,0.6-1.4,1.4-1.4c0.8,0,1.4,0.6,1.4,1.4c0,0.8-0.6,1.4-1.4,1.4
			C170.3,90.5,169.7,89.9,169.7,89.1z M169.7,93.2c0-0.8,0.6-1.4,1.4-1.4c0.8,0,1.4,0.6,1.4,1.4c0,0.8-0.6,1.4-1.4,1.4
			C170.3,94.5,169.7,93.9,169.7,93.2z M169.7,121.5c0-0.8,0.6-1.4,1.4-1.4c0.8,0,1.4,0.6,1.4,1.4c0,0.8-0.6,1.4-1.4,1.4
			C170.3,122.9,169.7,122.2,169.7,121.5z M169.7,125.5c0-0.8,0.6-1.4,1.4-1.4c0.8,0,1.4,0.6,1.4,1.4c0,0.8-0.6,1.4-1.4,1.4
			C170.3,126.9,169.7,126.3,169.7,125.5z M173.7,89.1c0-0.8,0.6-1.4,1.4-1.4c0.8,0,1.4,0.6,1.4,1.4c0,0.8-0.6,1.4-1.4,1.4
			C174.4,90.5,173.7,89.9,173.7,89.1z M173.7,93.2c0-0.8,0.6-1.4,1.4-1.4c0.8,0,1.4,0.6,1.4,1.4c0,0.8-0.6,1.4-1.4,1.4
			C174.4,94.5,173.7,93.9,173.7,93.2z M173.7,121.5c0-0.8,0.6-1.4,1.4-1.4c0.8,0,1.4,0.6,1.4,1.4c0,0.8-0.6,1.4-1.4,1.4
			C174.4,122.9,173.7,122.2,173.7,121.5z M173.7,125.5c0-0.8,0.6-1.4,1.4-1.4c0.8,0,1.4,0.6,1.4,1.4c0,0.8-0.6,1.4-1.4,1.4
			C174.4,126.9,173.7,126.3,173.7,125.5z"/>
		<path class="st0" d="M182.8,97.2c0-0.8,0.6-1.4,1.4-1.4c0.8,0,1.4,0.6,1.4,1.4c0,0.8-0.6,1.4-1.4,1.4
			C183.5,98.6,182.8,98,182.8,97.2z M182.8,101.2c0-0.8,0.6-1.4,1.4-1.4c0.8,0,1.4,0.6,1.4,1.4c0,0.8-0.6,1.4-1.4,1.4
			C183.5,102.6,182.8,102,182.8,101.2z M182.8,105.3c0-0.8,0.6-1.4,1.4-1.4c0.8,0,1.4,0.6,1.4,1.4c0,0.8-0.6,1.4-1.4,1.4
			C183.5,106.7,182.8,106.1,182.8,105.3z M182.8,109.3c0-0.8,0.6-1.4,1.4-1.4c0.8,0,1.4,0.6,1.4,1.4c0,0.8-0.6,1.4-1.4,1.4
			C183.5,110.7,182.8,110.1,182.8,109.3z M182.8,113.4c0-0.8,0.6-1.4,1.4-1.4c0.8,0,1.4,0.6,1.4,1.4c0,0.8-0.6,1.4-1.4,1.4
			C183.5,114.8,182.8,114.1,182.8,113.4z M182.8,117.4c0-0.8,0.6-1.4,1.4-1.4c0.8,0,1.4,0.6,1.4,1.4c0,0.8-0.6,1.4-1.4,1.4
			C183.5,118.8,182.8,118.2,182.8,117.4z M186.9,97.2c0-0.8,0.6-1.4,1.4-1.4c0.8,0,1.4,0.6,1.4,1.4c0,0.8-0.6,1.4-1.4,1.4
			C187.5,98.6,186.9,98,186.9,97.2z M186.9,101.2c0-0.8,0.6-1.4,1.4-1.4c0.8,0,1.4,0.6,1.4,1.4c0,0.8-0.6,1.4-1.4,1.4
			C187.5,102.6,186.9,102,186.9,101.2z M186.9,105.3c0-0.8,0.6-1.4,1.4-1.4c0.8,0,1.4,0.6,1.4,1.4c0,0.8-0.6,1.4-1.4,1.4
			C187.5,106.7,186.9,106.1,186.9,105.3z M186.9,109.3c0-0.8,0.6-1.4,1.4-1.4c0.8,0,1.4,0.6,1.4,1.4c0,0.8-0.6,1.4-1.4,1.4
			C187.5,110.7,186.9,110.1,186.9,109.3z M186.9,113.4c0-0.8,0.6-1.4,1.4-1.4c0.8,0,1.4,0.6,1.4,1.4c0,0.8-0.6,1.4-1.4,1.4
			C187.5,114.8,186.9,114.1,186.9,113.4z M186.9,117.4c0-0.8,0.6-1.4,1.4-1.4c0.8,0,1.4,0.6,1.4,1.4c0,0.8-0.6,1.4-1.4,1.4
			C187.5,118.8,186.9,118.2,186.9,117.4z M190.9,89.1c0-0.8,0.6-1.4,1.4-1.4c0.8,0,1.4,0.6,1.4,1.4c0,0.8-0.6,1.4-1.4,1.4
			C191.6,90.5,190.9,89.9,190.9,89.1z M190.9,93.2c0-0.8,0.6-1.4,1.4-1.4c0.8,0,1.4,0.6,1.4,1.4c0,0.8-0.6,1.4-1.4,1.4
			C191.6,94.5,190.9,93.9,190.9,93.2z M190.9,121.5c0-0.8,0.6-1.4,1.4-1.4c0.8,0,1.4,0.6,1.4,1.4c0,0.8-0.6,1.4-1.4,1.4
			C191.6,122.9,190.9,122.2,190.9,121.5z M190.9,125.5c0-0.8,0.6-1.4,1.4-1.4c0.8,0,1.4,0.6,1.4,1.4c0,0.8-0.6,1.4-1.4,1.4
			C191.6,126.9,190.9,126.3,190.9,125.5z M195,89.1c0-0.8,0.6-1.4,1.4-1.4c0.8,0,1.4,0.6,1.4,1.4c0,0.8-0.6,1.4-1.4,1.4
			C195.6,90.5,195,89.9,195,89.1z M195,93.2c0-0.8,0.6-1.4,1.4-1.4c0.8,0,1.4,0.6,1.4,1.4c0,0.8-0.6,1.4-1.4,1.4
			C195.6,94.5,195,93.9,195,93.2z M195,121.5c0-0.8,0.6-1.4,1.4-1.4c0.8,0,1.4,0.6,1.4,1.4c0,0.8-0.6,1.4-1.4,1.4
			C195.6,122.9,195,122.2,195,121.5z M195,125.5c0-0.8,0.6-1.4,1.4-1.4c0.8,0,1.4,0.6,1.4,1.4c0,0.8-0.6,1.4-1.4,1.4
			C195.6,126.9,195,126.3,195,125.5z M199,89.1c0-0.8,0.6-1.4,1.4-1.4c0.8,0,1.4,0.6,1.4,1.4c0,0.8-0.6,1.4-1.4,1.4
			C199.6,90.5,199,89.9,199,89.1z M199,93.2c0-0.8,0.6-1.4,1.4-1.4c0.8,0,1.4,0.6,1.4,1.4c0,0.8-0.6,1.4-1.4,1.4
			C199.6,94.5,199,93.9,199,93.2z M199,121.5c0-0.8,0.6-1.4,1.4-1.4c0.8,0,1.4,0.6,1.4,1.4c0,0.8-0.6,1.4-1.4,1.4
			C199.6,122.9,199,122.2,199,121.5z M199,125.5c0-0.8,0.6-1.4,1.4-1.4c0.8,0,1.4,0.6,1.4,1.4c0,0.8-0.6,1.4-1.4,1.4
			C199.6,126.9,199,126.3,199,125.5z M203.1,89.1c0-0.8,0.6-1.4,1.4-1.4c0.8,0,1.4,0.6,1.4,1.4c0,0.8-0.6,1.4-1.4,1.4
			C203.7,90.5,203.1,89.9,203.1,89.1z M203.1,93.2c0-0.8,0.6-1.4,1.4-1.4c0.8,0,1.4,0.6,1.4,1.4c0,0.8-0.6,1.4-1.4,1.4
			C203.7,94.5,203.1,93.9,203.1,93.2z M203.1,121.5c0-0.8,0.6-1.4,1.4-1.4c0.8,0,1.4,0.6,1.4,1.4c0,0.8-0.6,1.4-1.4,1.4
			C203.7,122.9,203.1,122.2,203.1,121.5z M203.1,125.5c0-0.8,0.6-1.4,1.4-1.4c0.8,0,1.4,0.6,1.4,1.4c0,0.8-0.6,1.4-1.4,1.4
			C203.7,126.9,203.1,126.3,203.1,125.5z M207.1,97.2c0-0.8,0.6-1.4,1.4-1.4c0.8,0,1.4,0.6,1.4,1.4c0,0.8-0.6,1.4-1.4,1.4
			C207.7,98.6,207.1,98,207.1,97.2z M207.1,101.2c0-0.8,0.6-1.4,1.4-1.4c0.8,0,1.4,0.6,1.4,1.4c0,0.8-0.6,1.4-1.4,1.4
			C207.7,102.6,207.1,102,207.1,101.2z M207.1,105.3c0-0.8,0.6-1.4,1.4-1.4c0.8,0,1.4,0.6,1.4,1.4c0,0.8-0.6,1.4-1.4,1.4
			C207.7,106.7,207.1,106.1,207.1,105.3z M207.1,109.3c0-0.8,0.6-1.4,1.4-1.4c0.8,0,1.4,0.6,1.4,1.4c0,0.8-0.6,1.4-1.4,1.4
			C207.7,110.7,207.1,110.1,207.1,109.3z M207.1,113.4c0-0.8,0.6-1.4,1.4-1.4c0.8,0,1.4,0.6,1.4,1.4c0,0.8-0.6,1.4-1.4,1.4
			C207.7,114.8,207.1,114.1,207.1,113.4z M207.1,117.4c0-0.8,0.6-1.4,1.4-1.4c0.8,0,1.4,0.6,1.4,1.4c0,0.8-0.6,1.4-1.4,1.4
			C207.7,118.8,207.1,118.2,207.1,117.4z M211.1,97.2c0-0.8,0.6-1.4,1.4-1.4c0.8,0,1.4,0.6,1.4,1.4c0,0.8-0.6,1.4-1.4,1.4
			C211.8,98.6,211.1,98,211.1,97.2z M211.1,101.2c0-0.8,0.6-1.4,1.4-1.4c0.8,0,1.4,0.6,1.4,1.4c0,0.8-0.6,1.4-1.4,1.4
			C211.8,102.6,211.1,102,211.1,101.2z M211.1,105.3c0-0.8,0.6-1.4,1.4-1.4c0.8,0,1.4,0.6,1.4,1.4c0,0.8-0.6,1.4-1.4,1.4
			C211.8,106.7,211.1,106.1,211.1,105.3z M211.1,109.3c0-0.8,0.6-1.4,1.4-1.4c0.8,0,1.4,0.6,1.4,1.4c0,0.8-0.6,1.4-1.4,1.4
			C211.8,110.7,211.1,110.1,211.1,109.3z M211.1,113.4c0-0.8,0.6-1.4,1.4-1.4c0.8,0,1.4,0.6,1.4,1.4c0,0.8-0.6,1.4-1.4,1.4
			C211.8,114.8,211.1,114.1,211.1,113.4z M211.1,117.4c0-0.8,0.6-1.4,1.4-1.4c0.8,0,1.4,0.6,1.4,1.4c0,0.8-0.6,1.4-1.4,1.4
			C211.8,118.8,211.1,118.2,211.1,117.4z"/>
	</g>
</g>
</svg>
