<?xml version="1.0" standalone="no"?>
<!DOCTYPE svg PUBLIC "-//W3C//DTD SVG 20010904//EN"
 "http://www.w3.org/TR/2001/REC-SVG-20010904/DTD/svg10.dtd">
<svg version="1.0" xmlns="http://www.w3.org/2000/svg"
 width="700.000000pt" height="700.000000pt" viewBox="0 0 700.000000 700.000000"
 preserveAspectRatio="xMidYMid meet">
<metadata>
Created by potrace 1.11, written by Peter Selinger 2001-2013
</metadata>
<g transform="translate(0.000000,700.000000) scale(0.100000,-0.100000)"
fill="#000000" stroke="none">
<path d="M3408 6964 c-2 -1 -48 -5 -103 -9 -96 -6 -134 -10 -200 -20 -16 -2
-52 -7 -80 -11 -42 -5 -115 -18 -275 -50 -202 -40 -520 -151 -735 -255 -174
-84 -378 -214 -525 -333 -90 -73 -293 -275 -317 -317 -10 -16 -20 -29 -24 -29
-20 0 -253 -387 -265 -440 0 -3 -6 -18 -13 -35 -30 -72 -74 -217 -91 -300 -37
-176 -42 -221 -45 -405 -3 -214 16 -374 66 -568 91 -354 259 -617 564 -880 72
-63 289 -200 410 -260 101 -50 335 -149 370 -156 6 -2 62 -19 125 -39 179 -57
463 -121 685 -156 119 -19 129 -20 180 -26 28 -3 77 -11 110 -17 33 -5 69 -11
80 -13 18 -2 54 -8 140 -22 69 -11 347 -55 435 -68 52 -8 106 -17 120 -19 14
-3 70 -12 125 -20 241 -38 365 -99 433 -215 24 -41 27 -56 27 -136 0 -78 -4
-98 -27 -145 -47 -95 -129 -169 -251 -225 -359 -165 -972 -154 -1547 27 -449
141 -857 371 -1138 642 -35 34 -66 62 -70 63 -4 1 -78 -89 -165 -200 -87 -111
-168 -215 -182 -232 -13 -16 -90 -113 -170 -215 -80 -102 -151 -192 -158 -200
-10 -13 -134 -169 -177 -224 -8 -10 -26 -33 -40 -50 -14 -17 -59 -73 -100
-124 l-73 -94 112 -108 c395 -385 945 -694 1496 -840 141 -38 301 -78 331 -84
16 -2 63 -11 104 -20 112 -22 155 -30 235 -42 115 -16 166 -23 240 -30 39 -3
78 -8 87 -10 116 -21 733 -21 846 1 9 1 46 6 82 9 36 4 79 9 95 11 48 9 137
24 172 30 170 28 460 112 662 191 127 50 358 161 415 199 20 13 36 22 36 20 0
-2 39 22 88 54 337 224 593 499 762 817 88 166 167 403 196 584 3 19 7 46 10
60 19 113 26 415 12 560 -22 214 -64 382 -141 560 -258 597 -844 985 -1797
1190 -147 32 -399 75 -495 85 -22 2 -67 9 -100 14 -33 6 -121 20 -195 31 -74
11 -162 25 -195 31 -33 6 -73 13 -90 15 -16 2 -41 6 -55 9 -14 3 -52 10 -85
15 -33 5 -71 12 -85 15 -14 3 -63 12 -110 20 -299 53 -447 159 -456 328 -9
175 120 314 361 390 162 51 448 76 635 55 164 -18 229 -28 270 -38 19 -5 53
-12 75 -16 22 -3 43 -8 46 -10 3 -2 20 -6 38 -9 59 -10 325 -96 441 -142 276
-109 513 -256 703 -435 31 -30 57 -52 57 -49 0 4 10 17 23 31 18 21 70 84 174
215 9 11 28 34 42 50 14 17 40 48 56 69 37 47 250 314 273 341 9 11 89 110
177 220 88 110 167 209 177 220 9 11 41 51 72 89 l57 69 -23 25 c-24 26 -95
93 -131 125 -12 10 -33 28 -46 39 -162 139 -449 324 -651 420 -189 89 -313
139 -490 196 -116 38 -367 104 -435 116 -16 3 -70 12 -120 21 -137 24 -137 24
-190 31 -27 3 -61 7 -75 9 -14 2 -59 6 -100 10 -41 3 -100 9 -130 12 -54 5
-557 12 -562 7z"/>
</g>
</svg>
